<svg xmlns="http://www.w3.org/2000/svg">
<defs>
<font id="Sniglet-Regular" horiz-adv-x="687" >
  <font-face 
    font-family="Sniglet"
    font-weight="400"
    font-stretch="normal"
    units-per-em="1000"
    panose-1="4 7 5 5 3 1 0 2 0 0"
    ascent="800"
    descent="-200"
    x-height="502.999"
    cap-height="701.999"
    bbox="-72.001 -260 938.996 952.005"
    underline-thickness="50"
    underline-position="-50"
    unicode-range="U+0020-U+FB02"
  />
<missing-glyph horiz-adv-x="554" 
d="M85 597c1.33301 26.667 5.83691 44.166 13.5039 52.499s17.5 12.833 29.5 13.5c15.333 8.66699 35.166 15.667 59.499 21s48.833 9.33301 73.5 12s47.5 4.5 68.5 5.5s35.5 1.5 43.5 1.5c24 0 42.667 -1.5 56 -4.5s23.333 -12 30 -27s10.834 -37.833 12.501 -68.5
s2.5 -74 2.5 -130v-137.5c0 -37.667 -0.333008 -70.667 -1 -99s-1.33398 -53.5 -2.00098 -75.5l-2 -65c-1.33301 -27.333 -6 -45.166 -14 -53.499s-17.667 -12.5 -29 -12.5c-16 -8.66699 -36.167 -15.667 -60.5 -21s-48.833 -9.33301 -73.5 -12s-47.334 -4.5 -68.001 -5.5
s-35 -1.5 -43 -1.5c-24 0 -42.667 1.5 -56 4.5s-23.333 12 -30 27s-10.834 37.833 -12.501 68.5s-2.5 74 -2.5 130v137.5c0 37.667 0.333008 70.667 1 99s1.16699 53.5 1.5 75.5s1.16602 43.667 2.49902 65zM374.004 413.999l-0.000976562 56.499
c0 16.333 0.166992 31.833 0.5 46.5s0.833008 29.334 1.5 44.001s1.33398 31 2.00098 49c-34 -4 -62.5 -7.5 -85.5 -10.5l-57 -7.5c-15 -2 -27.167 -3.5 -36.5 -4.5s-17.666 -1.83301 -24.999 -2.5c1.33301 -28 2.33301 -53.833 3 -77.5l2 -71
c0.666992 -23.667 1 -48.167 1 -73.5v-84v-56.5c0 -16.333 -0.166992 -31.833 -0.5 -46.5s-0.833008 -29.334 -1.5 -44.001s-1.33398 -31 -2.00098 -49l85 10c22.667 2.66699 41.5 5 56.5 7l36.5 5c9.33301 1.33301 17.666 2.33301 24.999 3
c-1.33301 28 -2.16602 53.833 -2.49902 77.5s-0.833008 47.334 -1.5 71.001s-1 48 -1 73v84.5z" />
    <glyph glyph-name="f_i" unicode="fi" horiz-adv-x="541" 
d="M85 406c-7.33301 -0.666992 -14.498 -1.16602 -21.498 -1.49902s-13.833 -0.5 -20.5 -0.5c-22 0 -38.5 3.5 -49.5 10.5s-16.5 20.5 -16.5 40.5c0 15.333 4.16699 27.5 12.5 36.5s24.833 13.5 49.5 13.5c15.333 0 31 -1 47 -3v58c0 26.667 3 52 9 76
s15.333 45.167 28 63.5s29.167 33 49.5 44s45.166 16.5 74.499 16.5c26.667 0 45.334 -3.83301 56.001 -11.5s16 -20.167 16 -37.5s-7 -28 -21 -32s-30 -6 -48 -6c-22 0 -38.5 -9.66699 -49.5 -29s-16.5 -43 -16.5 -71v-70c8.66699 2 17.167 3.16699 25.5 3.5
s17.166 0.5 26.499 0.5c24.667 0 42.167 -4 52.5 -12s15.5 -20.667 15.5 -38c0 -22 -7 -36.167 -21 -42.5s-32.667 -9.5 -56 -9.5h-20.5c-7.66699 0 -15.167 0.666992 -22.5 2v-344c0 -16 -1.33301 -28.333 -4 -37s-6.33398 -15.334 -11.001 -20.001s-10 -7.5 -16 -8.5
s-12.333 -1.5 -19 -1.5c-6 0 -12 0.833008 -18 2.5s-11.167 5 -15.5 10s-8 11.833 -11 20.5s-4.5 19.667 -4.5 33v344zM383.002 62.001c-1.33301 24.667 -2.50098 52.834 -3.50098 84.501s-1.5 66.5 -1.5 104.5c0 47.333 0.333008 87.833 1 121.5s2.5 61.334 5.5 83.001
s7.83301 37.667 14.5 48s16 15.5 28 15.5c11.333 0 21.333 -4 30 -12s13.667 -25.333 15 -52c4 -70 6 -137.667 6 -203c0 -33.333 -0.666992 -64.5 -2 -93.5s-2.66602 -60.833 -3.99902 -95.5c-0.666992 -16 -2.16699 -28.333 -4.5 -37s-5.5 -15.334 -9.5 -20.001
s-8.5 -7.5 -13.5 -8.5s-10.833 -1.5 -17.5 -1.5c-12 0 -22 4.16699 -30 12.5s-12.667 26.166 -14 53.499zM428.001 700.001c15.333 0 29.5 -6 42.5 -18s19.5 -26.333 19.5 -43c0 -16 -6.66699 -29.833 -20 -41.5s-28.333 -17.5 -45 -17.5c-14 0 -27.167 5.83301 -39.5 17.5
s-18.5 26.167 -18.5 43.5c0 16 6.16699 29.833 18.5 41.5s26.5 17.5 42.5 17.5z" />
    <glyph glyph-name="f_l" unicode="fl" horiz-adv-x="539" 
d="M85 406c-7.33301 -0.666992 -14.498 -1.16602 -21.498 -1.49902s-13.833 -0.5 -20.5 -0.5c-22 0 -38.5 3.5 -49.5 10.5s-16.5 20.5 -16.5 40.5c0 15.333 4.16699 27.5 12.5 36.5s24.833 13.5 49.5 13.5c15.333 0 31 -1 47 -3v58c0 26.667 3 52 9 76
s15.333 45.167 28 63.5s29.167 33 49.5 44s45.166 16.5 74.499 16.5c26.667 0 45.334 -3.83301 56.001 -11.5s16 -20.167 16 -37.5s-7 -28 -21 -32s-30 -6 -48 -6c-22 0 -38.5 -9.66699 -49.5 -29s-16.5 -43 -16.5 -71v-70c8.66699 2 17.167 3.16699 25.5 3.5
s17.166 0.5 26.499 0.5c24.667 0 42.167 -4 52.5 -12s15.5 -20.667 15.5 -38c0 -22 -7 -36.167 -21 -42.5s-32.667 -9.5 -56 -9.5h-20.5c-7.66699 0 -15.167 0.666992 -22.5 2v-344c0 -16 -1.33301 -28.333 -4 -37s-6.33398 -15.334 -11.001 -20.001s-10 -7.5 -16 -8.5
s-12.333 -1.5 -19 -1.5c-6 0 -12 0.833008 -18 2.5s-11.167 5 -15.5 10s-8 11.833 -11 20.5s-4.5 19.667 -4.5 33v344zM382.002 58.001c-0.666992 24 -1.33496 52.0039 -2.00195 84.0039s-1.16699 66.667 -1.5 104s-0.666016 76.666 -0.999023 117.999
s-0.5 83.666 -0.5 126.999c0 47.333 0.333008 88 1 122s2.5 62 5.5 84s7.83301 38.167 14.5 48.5s16 15.5 28 15.5c11.333 0 21.333 -3.66699 30 -11s13.667 -24.333 15 -51c2.66699 -48 4.33398 -97.833 5.00098 -149.5s1 -102.5 1 -152.5v-86.5
c0 -27.667 -0.333008 -55 -1 -82l-2 -82.5c-0.666992 -28 -1.66699 -57 -3 -87c-0.666992 -16 -2.16699 -28.333 -4.5 -37s-5.5 -15.334 -9.5 -20.001s-8.5 -7.5 -13.5 -8.5s-10.833 -1.5 -17.5 -1.5c-12 0 -22 4.16699 -30 12.5s-12.667 26.166 -14 53.499z" />
    <glyph glyph-name=".notdef" horiz-adv-x="554" 
d="M85 597c1.33301 26.667 5.83691 44.166 13.5039 52.499s17.5 12.833 29.5 13.5c15.333 8.66699 35.166 15.667 59.499 21s48.833 9.33301 73.5 12s47.5 4.5 68.5 5.5s35.5 1.5 43.5 1.5c24 0 42.667 -1.5 56 -4.5s23.333 -12 30 -27s10.834 -37.833 12.501 -68.5
s2.5 -74 2.5 -130v-137.5c0 -37.667 -0.333008 -70.667 -1 -99s-1.33398 -53.5 -2.00098 -75.5l-2 -65c-1.33301 -27.333 -6 -45.166 -14 -53.499s-17.667 -12.5 -29 -12.5c-16 -8.66699 -36.167 -15.667 -60.5 -21s-48.833 -9.33301 -73.5 -12s-47.334 -4.5 -68.001 -5.5
s-35 -1.5 -43 -1.5c-24 0 -42.667 1.5 -56 4.5s-23.333 12 -30 27s-10.834 37.833 -12.501 68.5s-2.5 74 -2.5 130v137.5c0 37.667 0.333008 70.667 1 99s1.16699 53.5 1.5 75.5s1.16602 43.667 2.49902 65zM374.004 413.999l-0.000976562 56.499
c0 16.333 0.166992 31.833 0.5 46.5s0.833008 29.334 1.5 44.001s1.33398 31 2.00098 49c-34 -4 -62.5 -7.5 -85.5 -10.5l-57 -7.5c-15 -2 -27.167 -3.5 -36.5 -4.5s-17.666 -1.83301 -24.999 -2.5c1.33301 -28 2.33301 -53.833 3 -77.5l2 -71
c0.666992 -23.667 1 -48.167 1 -73.5v-84v-56.5c0 -16.333 -0.166992 -31.833 -0.5 -46.5s-0.833008 -29.334 -1.5 -44.001s-1.33398 -31 -2.00098 -49l85 10c22.667 2.66699 41.5 5 56.5 7l36.5 5c9.33301 1.33301 17.666 2.33301 24.999 3
c-1.33301 28 -2.16602 53.833 -2.49902 77.5s-0.833008 47.334 -1.5 71.001s-1 48 -1 73v84.5z" />
    <glyph glyph-name="space" unicode=" " horiz-adv-x="209" 
 />
    <glyph glyph-name="exclam" unicode="!" horiz-adv-x="223" 
d="M67 688c1.33301 27.333 6.00098 45.167 14.001 53.5s18 12.5 30 12.5c6.66699 0 12.5 -0.5 17.5 -1.5s9.5 -3.83301 13.5 -8.5s7.16699 -11.334 9.5 -20.001s3.83301 -21 4.5 -37l4 -102c1.33301 -33.333 2 -66.666 2 -99.999c0 -16.667 -0.166992 -31.667 -0.5 -45
l-1 -40c-0.333008 -13.333 -1 -27 -2 -41s-1.83301 -29.667 -2.5 -47c-0.666992 -13.333 -2.33398 -24.166 -5.00098 -32.499s-6 -14.833 -10 -19.5s-8.5 -7.83398 -13.5 -9.50098s-10.5 -2.5 -16.5 -2.5c-12 0 -21.333 3.5 -28 10.5s-11.5 19.5 -14.5 37.5
s-4.83301 42.333 -5.5 73s-1 69.667 -1 117c0 38 0.5 75 1.5 111s2.16699 66.333 3.5 91zM111.001 110.001c15.333 0 29.5 -6 42.5 -18s19.5 -26.333 19.5 -43c0 -16 -6.66699 -29.833 -20 -41.5s-28.333 -17.5 -45 -17.5c-14 0 -27.167 5.83301 -39.5 17.5
s-18.5 26.167 -18.5 43.5c0 16 6.16699 29.833 18.5 41.5s26.5 17.5 42.5 17.5z" />
    <glyph glyph-name="quotedbl" unicode="&#x22;" horiz-adv-x="401" 
d="M147 629c-3.33301 -19.333 -6.16406 -38.1689 -8.49707 -56.502s-5.33301 -34.5 -9 -48.5s-8.33398 -25.167 -14.001 -33.5s-12.834 -12.5 -21.501 -12.5c-8 0 -14.5 4.33301 -19.5 13s-9.16699 20.167 -12.5 34.5s-6 30.5 -8 48.5l-6 55c-2 18 -3 34.333 -3 49
c0 33.333 5 57 15 71s23.667 21 41 21c15.333 0 27.666 -6.66699 36.999 -20s14 -34.666 14 -63.999c0 -8 -0.5 -16.667 -1.5 -26s-2.16699 -19.666 -3.5 -30.999zM351.002 628.997c-3.33301 -19.333 -6.16406 -38.1689 -8.49707 -56.502s-5.33301 -34.5 -9 -48.5
s-8.33398 -25.167 -14.001 -33.5s-12.834 -12.5 -21.501 -12.5c-8 0 -14.5 4.33301 -19.5 13s-9.16699 20.167 -12.5 34.5s-6 30.5 -8 48.5l-6 55c-2 18 -3 34.333 -3 49c0 33.333 5 57 15 71s23.667 21 41 21c15.333 0 27.666 -6.66699 36.999 -20s14 -34.666 14 -63.999
c0 -8 -0.5 -16.667 -1.5 -26s-2.16699 -19.666 -3.5 -30.999z" />
    <glyph glyph-name="numbersign" unicode="#" horiz-adv-x="679" 
d="M489 206l-6.99512 -44.0039c-6.66699 -41.333 -14.334 -71.333 -23.001 -90s-20 -28 -34 -28c-12 0 -21.667 3 -29 9s-11 21.333 -11 46c0 11.333 0.666992 26 2 44s3.66602 38.333 6.99902 61c-24.667 0 -50 -0.166992 -76 -0.5s-51.333 -0.5 -76 -0.5l-6 -41
c-6 -41.333 -13.5 -71.333 -22.5 -90s-20.5 -28 -34.5 -28c-12 0 -21.667 3 -29 9s-11 21.333 -11 46c0 11.333 0.666992 25.833 2 43.5s3.66602 37.834 6.99902 60.501c-19.333 0 -35.833 0.333008 -49.5 1s-24.834 2.66699 -33.501 6s-15 8.33301 -19 15s-6 15.667 -6 27
c0 8 1.5 15 4.5 21s8.83301 11.167 17.5 15.5s21 7.66602 37 9.99902s37 3.5 63 3.5c2.66699 18.667 5.5 37.334 8.5 56.001s6.16699 37.334 9.5 56.001c-16.667 0 -30.834 0.666992 -42.501 2s-21.334 3.66602 -29.001 6.99902s-13.167 8.16602 -16.5 14.499
s-5 14.833 -5 25.5c0 5.33301 0.666992 10.5 2 15.5s4.33301 9.66699 9 14s11.167 8 19.5 11s19.166 5.16699 32.499 6.5l47 3c6 33.333 11.167 60.333 15.5 81s8.83301 36.834 13.5 48.501s9.83398 19.5 15.501 23.5s12.834 6 21.501 6c16 0 27.667 -4.16699 35 -12.5
s11 -18.833 11 -31.5c0 -0.666992 -0.166992 -2 -0.5 -4s-1 -6.66699 -2 -14s-2.83301 -18.5 -5.5 -33.5s-6 -35.833 -10 -62.5h75c25.333 0 51 -0.333008 77 -1c6 33.333 11.167 60.333 15.5 81s8.83301 36.834 13.5 48.501s9.83398 19.5 15.501 23.5s12.834 6 21.501 6
c15.333 0 26.833 -4.16699 34.5 -12.5s11.5 -18.5 11.5 -30.5c0 -1.33301 -0.166992 -3 -0.5 -5s-1 -6.66699 -2 -14s-2.66699 -18.666 -5 -33.999s-5.83301 -37 -10.5 -65c21.333 0 38.666 -1 51.999 -3s23.666 -5 30.999 -9s12.333 -9 15 -15s4 -13 4 -21
c0 -11.333 -4.16699 -21.166 -12.5 -29.499s-26.166 -13.166 -53.499 -14.499l-51 -2l-18 -117c18 0 32.667 -0.833008 44 -2.5s20.166 -4.33398 26.499 -8.00098s10.666 -8.66699 12.999 -15s3.5 -13.833 3.5 -22.5c0 -12 -4.16699 -22 -12.5 -30
s-26.166 -12.667 -53.499 -14zM408.005 301.996c2.66699 18.667 5.5 37.5 8.5 56.5s6.16699 37.833 9.5 56.5c-23.333 0 -47.5 -0.166992 -72.5 -0.5s-50.833 -0.5 -77.5 -0.5l-18 -111c22.667 0 46.5 -0.166992 71.5 -0.5s51.167 -0.5 78.5 -0.5z" />
    <glyph glyph-name="dollar" unicode="$" horiz-adv-x="511" 
d="M309 630c15.333 -2 31.334 -4.83105 48.001 -8.49805s31.834 -8.66699 45.501 -15s25 -14.333 34 -24s13.5 -21.5 13.5 -35.5c0 -10 -2.83301 -18.667 -8.5 -26s-14.5 -11 -26.5 -11c-8.66699 0 -18.5 1.33301 -29.5 4s-23 5.83398 -36 9.50098s-27 6.83398 -42 9.50098
s-30.833 4 -47.5 4c-28 0 -50.833 -4.33301 -68.5 -13s-26.5 -22.334 -26.5 -41.001c0 -10.667 3.16699 -19.667 9.5 -27s15 -13.833 26 -19.5s24 -10.5 39 -14.5s30.833 -8 47.5 -12c20.667 -5.33301 41.167 -11.333 61.5 -18s38.5 -15.834 54.5 -27.501
s29 -26.334 39 -44.001s15 -39.5 15 -65.5c0 -42 -13.667 -76.833 -41 -104.5s-67.333 -45.167 -120 -52.5v-79c0 -16 -1.16699 -28.333 -3.5 -37s-5.5 -15.334 -9.5 -20.001s-8.66699 -7.5 -14 -8.5s-11.333 -1.5 -18 -1.5c-6 0 -11.667 0.833008 -17 2.5s-10 5 -14 10
s-7.33301 11.833 -10 20.5s-4.33398 19.667 -5.00098 33v77c-16.667 0.666992 -34.334 2.66699 -53.001 6s-35.667 8.5 -51 15.5s-28.166 16 -38.499 27s-15.5 24.5 -15.5 40.5c0 13.333 3.16699 23.5 9.5 30.5s14.166 10.5 23.499 10.5c7.33301 0 15 -2.33301 23 -7
s17.667 -9.66699 29 -15s25 -10.333 41 -15s35.667 -7 59 -7c8.66699 0 20 0.5 34 1.5s27.833 3.83301 41.5 8.5s25.334 11.167 35.001 19.5s14.5 20.166 14.5 35.499c0 12 -3.33301 22.167 -10 30.5s-15.667 15.5 -27 21.5s-24.5 11.167 -39.5 15.5l-47.5 13.5
c-19.333 5.33301 -38.833 11.333 -58.5 18s-37.5 15.334 -53.5 26.001s-29 24.167 -39 40.5s-15 36.5 -15 60.5c0 38.667 13 72 39 100s61.333 46.667 106 56c0.666992 56 4.16699 97 10.5 123s19.166 39 38.499 39c11.333 0 21.333 -3.66699 30 -11s13.667 -24.333 15 -51z
" />
    <glyph glyph-name="percent" unicode="%" horiz-adv-x="653" 
d="M149 109l38.5 74.998l42.5 82.5l51 97.5l64 119l50.5 90.5c14.333 25 27.166 45.5 38.499 61.5s21.5 27.667 30.5 35s18.167 11 27.5 11c11.333 0 20.833 -4.16699 28.5 -12.5s11.5 -18.166 11.5 -29.499c0 -6 -1.16699 -12.5 -3.5 -19.5s-5.16602 -13.5 -8.49902 -19.5
l-72.5 -141.5l-67 -126l-70.5 -125.5l-83 -140c-5.33301 -9.33301 -12.5 -19.333 -21.5 -30s-19.833 -16 -32.5 -16c-10.667 0 -19.667 3.83301 -27 11.5s-11 17.834 -11 30.501c0 7.33301 1.33301 14.5 4 21.5s6 15.167 10 24.5zM281 542.998
c0 -18.667 -3.50098 -36.166 -10.501 -52.499s-16.333 -30.5 -28 -42.5s-25.5 -21.5 -41.5 -28.5s-33 -10.5 -51 -10.5s-35.167 3.5 -51.5 10.5s-30.666 16.5 -42.999 28.5s-22 26.167 -29 42.5s-10.5 34.166 -10.5 53.499c0 20 3.83301 38.167 11.5 54.5
s17.667 30.5 30 42.5s26.5 21.333 42.5 28s32.667 10 50 10s33.833 -3.5 49.5 -10.5s29.5 -16.5 41.5 -28.5s21.667 -26.333 29 -43s11 -34.667 11 -54zM94.999 542.999c0 -19.333 5.16602 -33.5 15.499 -42.5s22.833 -13.5 37.5 -13.5c16 0 28.667 5.33301 38 16
s14 24.667 14 42c0 16 -4.16699 30 -12.5 42s-21.166 18 -38.499 18c-16 0 -29 -5.66699 -39 -17s-15 -26.333 -15 -45zM640.998 142.999c0 -18.667 -3.50098 -36.166 -10.501 -52.499s-16.333 -30.5 -28 -42.5s-25.5 -21.5 -41.5 -28.5s-33 -10.5 -51 -10.5
s-35.167 3.5 -51.5 10.5s-30.666 16.5 -42.999 28.5s-22 26.167 -29 42.5s-10.5 34.166 -10.5 53.499c0 20 3.83301 38.167 11.5 54.5s17.667 30.5 30 42.5s26.5 21.333 42.5 28s32.667 10 50 10s33.833 -3.5 49.5 -10.5s29.5 -16.5 41.5 -28.5s21.667 -26.333 29 -43
s11 -34.667 11 -54zM454.997 143c0 -19.333 5.16602 -33.5 15.499 -42.5s22.833 -13.5 37.5 -13.5c16 0 28.667 5.33301 38 16s14 24.667 14 42c0 16 -4.16699 30 -12.5 42s-21.166 18 -38.499 18c-16 0 -29 -5.66699 -39 -17s-15 -26.333 -15 -45z" />
    <glyph glyph-name="ampersand" unicode="&#x26;" horiz-adv-x="636" 
d="M190 425c-18 26 -33.8301 53.5 -47.4971 82.5s-20.5 60.833 -20.5 95.5c0 25.333 4.33301 47.5 13 66.5s20.667 35 36 48s33.5 22.833 54.5 29.5s43.5 10 67.5 10c30.667 0 55.834 -4.83301 75.501 -14.5s35 -22.334 46 -38.001s18.667 -33.167 23 -52.5
s6.5 -38.333 6.5 -57c0 -23.333 -3 -43.666 -9 -60.999s-14.333 -33 -25 -47s-23.834 -27.333 -39.501 -40s-32.834 -25.667 -51.501 -39l141 -235l50 59l13.5 17.5c5 6.33301 10.333 12.333 16 18s11.667 10.5 18 14.5s13.5 6 21.5 6c10 0 19.167 -3.5 27.5 -10.5
s12.5 -16.5 12.5 -28.5c0 -12.667 -4.33301 -24.167 -13 -34.5l-25 -30.5l-30.5 -36.5l-44.5 -51.5l45 -71c4.66699 -7.33301 8.5 -15 11.5 -23s4.5 -15.667 4.5 -23c0 -12 -4.5 -22.167 -13.5 -30.5s-18.167 -12.5 -27.5 -12.5c-7.33301 0 -15 3 -23 9
s-17.667 17.333 -29 34l-35 51c-32 -27.333 -63.5 -48.166 -94.5 -62.499s-64.833 -21.5 -101.5 -21.5c-24.667 0 -49.834 3.66699 -75.501 11s-48.834 19.5 -69.501 36.5s-37.667 39 -51 66s-20 60.5 -20 100.5c0 32.667 4.5 62 13.5 88s21 49.5 36 70.5
s32.333 40.167 52 57.5s40.167 33.666 61.5 48.999zM246.003 39c29.333 0 55.167 5.99805 77.5 17.998s44.833 27.333 67.5 46l-78 122l-76 122c-33.333 -27.333 -61.333 -55.666 -84 -84.999s-34 -63.666 -34 -102.999c0 -22 3.5 -40.5 10.5 -55.5s16.5 -27.333 28.5 -37
s25.667 -16.667 41 -21s31 -6.5 47 -6.5zM222.004 596.998c0 -15.333 4.16699 -31.499 12.5 -48.499s21.5 -39.5 39.5 -67.5c19.333 14 36.5 31.667 51.5 53s22.5 44.666 22.5 69.999c0 22.667 -6.16699 40 -18.5 52s-26.5 18 -42.5 18c-20 0 -35.833 -8 -47.5 -24
s-17.5 -33.667 -17.5 -53z" />
    <glyph glyph-name="quotesingle" unicode="'" horiz-adv-x="219" 
d="M158 629c-3.33301 -19.333 -6.16406 -38.1689 -8.49707 -56.502s-5.33301 -34.5 -9 -48.5s-8.33398 -25.167 -14.001 -33.5s-12.834 -12.5 -21.501 -12.5c-8 0 -14.5 4.33301 -19.5 13s-9.16699 20.167 -12.5 34.5s-6 30.5 -8 48.5l-6 55c-2 18 -3 34.333 -3 49
c0 33.333 5 57 15 71s23.667 21 41 21c15.333 0 27.666 -6.66699 36.999 -20s14 -34.666 14 -63.999c0 -8 -0.5 -16.667 -1.5 -26s-2.16699 -19.666 -3.5 -30.999z" />
    <glyph glyph-name="parenleft" unicode="(" horiz-adv-x="332" 
d="M109 648c10.667 22 22.332 42.834 34.999 62.501s25.667 36.667 39 51s27 25.666 41 33.999s27.667 12.5 41 12.5c6 0 12.167 -0.666992 18.5 -2s12.166 -3.5 17.499 -6.5s9.66602 -7 12.999 -12s5 -10.833 5 -17.5c0 -17.333 -8 -30.333 -24 -39
c-30.667 -18 -55.5 -42.667 -74.5 -74s-33.833 -65.166 -44.5 -101.499s-18 -73.5 -22 -111.5s-6 -73 -6 -105c0 -56 4.33301 -103 13 -141s20 -70 34 -96s29.833 -47.333 47.5 -64s35.5 -31.334 53.5 -44.001c6.66699 -4.66699 12.667 -10.5 18 -17.5s8 -16.833 8 -29.5
c0 -11.333 -5 -19.166 -15 -23.499s-22 -6.5 -36 -6.5s-28.167 3.66699 -42.5 11s-28.5 17.5 -42.5 30.5s-27.333 28 -40 45s-24 35.5 -34 55.5c-13.333 26.667 -24.166 53.667 -32.499 81s-14.666 54 -18.999 80s-7.16602 50.667 -8.49902 74s-2 44.333 -2 63
c0 44 3.83301 90.667 11.5 140s23.5 99.666 47.5 150.999z" />
    <glyph glyph-name="parenright" unicode=")" horiz-adv-x="332" 
d="M223 648c24 -51.333 39.8311 -101.667 47.498 -151s11.5 -96 11.5 -140c0 -18.667 -0.666992 -39.667 -2 -63s-4.16602 -48 -8.49902 -74s-10.666 -52.667 -18.999 -80s-19.166 -54.333 -32.499 -81c-10 -20 -21.333 -38.5 -34 -55.5s-26 -32 -40 -45
s-28.167 -23.167 -42.5 -30.5s-28.5 -11 -42.5 -11s-26 2.16699 -36 6.5s-15 12.166 -15 23.499c0 12.667 2.66699 22.5 8 29.5s11.333 12.833 18 17.5c18 12.667 35.833 27.334 53.5 44.001s33.5 38 47.5 64s25.333 58 34 96s13 85 13 141c0 32 -2 67 -6 105
s-11.333 75.167 -22 111.5s-25.5 70.166 -44.5 101.499s-43.833 56 -74.5 74c-16 8.66699 -24 21.667 -24 39c0 6.66699 1.66699 12.5 5 17.5s7.66602 9 12.999 12s11.166 5.16699 17.499 6.5s12.5 2 18.5 2c13.333 0 27 -4.16699 41 -12.5s27.667 -19.666 41 -33.999
s26.333 -31.333 39 -51s24.334 -40.5 35.001 -62.5z" />
    <glyph glyph-name="asterisk" unicode="*" horiz-adv-x="469" 
d="M150 556c-38 19.333 -65.8359 35.6709 -83.5029 49.0039s-26.5 26.666 -26.5 39.999c0 10 4.33301 19.667 13 29s18.334 14 29.001 14c14 0 31.167 -6.5 51.5 -19.5s40.166 -27.833 59.499 -44.5c-0.666992 5.33301 -1.16699 11.666 -1.5 18.999s-0.5 15.333 -0.5 24
c0 11.333 0.666992 23 2 35s4 23 8 33s9.5 18.333 16.5 25s16.167 10 27.5 10c12 0 22.333 -4.83301 31 -14.5s13 -25.167 13 -46.5c0 -13.333 -2.16699 -28 -6.5 -44s-9.16602 -35 -14.499 -57c18.667 8 34.167 14.333 46.5 19s22.333 8.16699 30 10.5
s13.834 3.83301 18.501 4.5s9.33398 1 14.001 1c16 0 28.667 -4.66699 38 -14s14 -19.666 14 -30.999c0 -16 -10.167 -28.833 -30.5 -38.5s-56.166 -17.834 -107.499 -24.501l26.5 -45.5c7 -12.333 12.333 -22.833 16 -31.5s6.16699 -15.834 7.5 -21.501
s2 -10.834 2 -15.501c0 -12 -5 -22.333 -15 -31s-19.667 -13 -29 -13c-32.667 0 -60.667 43.667 -84 131c-8.66699 -12 -17.834 -23.5 -27.501 -34.5s-19.334 -21 -29.001 -30s-19 -16.167 -28 -21.5s-16.833 -8 -23.5 -8c-12 0 -22 4.33301 -30 13s-12 18 -12 28
c0 8.66699 2.66699 17.5 8 26.5s12.333 17.667 21 26s17.834 16.5 27.501 24.5z" />
    <glyph glyph-name="plus" unicode="+" horiz-adv-x="459" 
d="M383 304c-15.333 -1.33301 -31.502 -2.1709 -48.502 -2.50391s-35.5 -0.833008 -55.5 -1.5v-45c0 -22.667 -0.333008 -42 -1 -58s-2.5 -29 -5.5 -39s-7.83301 -17.333 -14.5 -22s-16 -7 -28 -7c-6 0 -11.5 0.666992 -16.5 2s-9.5 4.33301 -13.5 9s-7.5 11.167 -10.5 19.5
s-5.16699 19.166 -6.5 32.499c-0.666992 10 -1.33398 18.833 -2.00098 26.5s-1.16699 15.5 -1.5 23.5s-0.5 16.5 -0.5 25.5v31.5c-34 0 -61.833 0.333008 -83.5 1s-39 2.5 -52 5.5s-22 7.83301 -27 14.5s-7.5 16 -7.5 28c0 6 0.666992 11.5 2 16.5s4.33301 9.5 9 13.5
s11.167 7.5 19.5 10.5s19.166 5.16699 32.499 6.5c10 0.666992 18.833 1.33398 26.5 2.00098s15.5 1.16699 23.5 1.5s16.5 0.5 25.5 0.5h31.5c0.666992 17.333 1.16699 34.5 1.5 51.5s1.16602 34.167 2.49902 51.5c0.666992 16 2.33398 28.333 5.00098 37
s6 15.334 10 20.001s8.66699 7.5 14 8.5s11.333 1.5 18 1.5c12 0 22 -4.16699 30 -12.5s12.667 -26.166 14 -53.499c0.666992 -15.333 1.33398 -31.666 2.00098 -48.999s1.33398 -36 2.00098 -56c33.333 0 68 -1 104 -3c16 -1.33301 28.333 -3.16602 37 -5.49902
s15.334 -5.5 20.001 -9.5s7.5 -8.66699 8.5 -14s1.5 -11.333 1.5 -18c0 -12 -4.16699 -22 -12.5 -30s-26.166 -12.667 -53.499 -14z" />
    <glyph glyph-name="comma" unicode="," horiz-adv-x="170" 
d="M62 -41c3.33301 2.66699 5.50098 6.83496 6.50098 12.502s1.5 12.167 1.5 19.5c-12.667 2 -24.167 8.66699 -34.5 20s-15.5 24.666 -15.5 39.999c0 16 4.66699 29.833 14 41.5s25 17.5 47 17.5c12.667 0 23.5 -2.33301 32.5 -7s16.167 -11 21.5 -19
s9.16602 -17 11.499 -27s3.5 -20 3.5 -30c0 -38.667 -7.33301 -69.334 -22 -92.001s-35.334 -34 -62.001 -34c-6.66699 0 -12.5 2.5 -17.5 7.5s-7.5 12.167 -7.5 21.5c0 12 2.83301 19.333 8.5 22s9.83398 5 12.501 7z" />
    <glyph glyph-name="hyphen" unicode="-" horiz-adv-x="480" 
d="M394 250c-30.667 -1.33301 -66 -2.50195 -106 -3.50195s-87.333 -1.5 -142 -1.5c-22.667 0 -42 0.333008 -58 1s-29 2.5 -39 5.5s-17.333 7.83301 -22 14.5s-7 16 -7 28c0 6 0.666992 11.5 2 16.5s4.33301 9.5 9 13.5s11.167 7.5 19.5 10.5s19.166 5.16699 32.499 6.5
c10 0.666992 18.833 1.33398 26.5 2.00098s15.167 1.16699 22.5 1.5s15.166 0.5 23.499 0.5h29.5c36 0 70.667 -0.166992 104 -0.5s68 -1.5 104 -3.5c16 -1.33301 28.333 -3.16602 37 -5.49902s15.334 -5.5 20.001 -9.5s7.5 -8.66699 8.5 -14s1.5 -11.333 1.5 -18
c0 -12 -4.16699 -22 -12.5 -30s-26.166 -12.667 -53.499 -14z" />
    <glyph glyph-name="period" unicode="." horiz-adv-x="163" 
d="M81 110c15.333 0 29.5 -6 42.5 -18s19.5 -26.333 19.5 -43c0 -16 -6.66699 -29.833 -20 -41.5s-28.333 -17.5 -45 -17.5c-14 0 -27.167 5.83301 -39.5 17.5s-18.5 26.167 -18.5 43.5c0 16 6.16699 29.833 18.5 41.5s26.5 17.5 42.5 17.5z" />
    <glyph glyph-name="slash" unicode="/" horiz-adv-x="404" 
d="M69 61l27.999 93.499l35.5 116l42 131.5l45.5 141l35.5 106.5c10.333 30.333 20 55.166 29 74.499s17.667 33.833 26 43.5s17.5 14.5 27.5 14.5s19.167 -3.33301 27.5 -10s12.5 -17 12.5 -31c0 -4.66699 -0.333008 -9.66699 -1 -15s-2 -11.666 -4 -18.999
c-31.333 -110.667 -65.333 -222.5 -102 -335.5s-75.667 -225.5 -117 -337.5c-8 -21.333 -15.667 -35.666 -23 -42.999s-14.666 -11 -21.999 -11c-12 0 -22.667 3.33301 -32 10s-14 17.667 -14 33c0 9.33301 2 22 6 38z" />
    <glyph glyph-name="zero" unicode="0" horiz-adv-x="607" 
d="M40 342c0 40.667 3.83398 82.332 11.501 124.999s21.5 81.334 41.5 116.001s47.167 63 81.5 85s78.166 33 131.499 33c42 0 77.833 -6.33301 107.5 -19s54.167 -29.334 73.5 -50.001s34.333 -44.167 45 -70.5s18.667 -53.833 24 -82.5s8.5 -57 9.5 -85
s1.5 -53.667 1.5 -77c0 -46.667 -5.5 -89.5 -16.5 -128.5s-27.667 -72.5 -50 -100.5s-50.333 -49.833 -84 -65.5s-73.167 -23.5 -118.5 -23.5c-47.333 0 -87.5 9.16699 -120.5 27.5s-59.667 43 -80 74s-35 67.333 -44 109s-13.5 85.834 -13.5 132.501zM140.001 343.998
c0 -32.667 2.83398 -63.834 8.50098 -93.501s14.834 -55.667 27.501 -78s29.167 -40.166 49.5 -53.499s45.166 -20 74.499 -20c28 0 52.5 5.66699 73.5 17s38.5 27.166 52.5 47.499s24.333 44.5 31 72.5s10 58.333 10 91c0 24.667 -1 52.834 -3 84.501
s-8.16699 61.5 -18.5 89.5s-26.5 51.667 -48.5 71s-52.667 29 -92 29c-33.333 0 -60.5 -8 -81.5 -24s-37.833 -36.5 -50.5 -61.5s-21.334 -52.667 -26.001 -83s-7 -59.833 -7 -88.5z" />
    <glyph glyph-name="one" unicode="1" horiz-adv-x="349" 
d="M194 62c-1.33301 24 -2.16504 49.002 -2.49805 75.002s-0.833008 54 -1.5 84s-1 62.5 -1 97.5v117.5v125l-60 -31c-16.667 -10.667 -29.834 -17 -39.501 -19s-20.167 -3 -31.5 -3c-10 0 -18.833 4.33301 -26.5 13s-11.5 19 -11.5 31s4.16699 22.5 12.5 31.5
s18.166 17.167 29.499 24.5c14.667 10 30.5 20 47.5 30s33.5 19.167 49.5 27.5s30.833 15 44.5 20s25.167 7.5 34.5 7.5c4.66699 0 9.5 -0.666992 14.5 -2s9.66699 -4 14 -8s8 -10.167 11 -18.5s4.83301 -19.5 5.5 -33.5c1.33301 -24 2.33301 -45 3 -63l2 -52.5
c0.666992 -17 1 -34.833 1 -53.5v-65v-86c0 -27.333 -0.333008 -54.333 -1 -81l-2 -81c-0.666992 -27.333 -1.66699 -56 -3 -86c-0.666992 -16 -2.16699 -28.333 -4.5 -37s-5.5 -15.334 -9.5 -20.001s-8.5 -7.5 -13.5 -8.5s-10.833 -1.5 -17.5 -1.5
c-12 0 -22 4.16699 -30 12.5s-12.667 26.166 -14 53.499z" />
    <glyph glyph-name="two" unicode="2" horiz-adv-x="569" 
d="M268 604c-24 0 -44.001 -2.49609 -60.001 -7.49609s-29.333 -11.5 -40 -19.5s-19.167 -16.333 -25.5 -25l-18 -25c-5.66699 -8 -11.667 -14.5 -18 -19.5s-14.166 -7.5 -23.499 -7.5c-16 0 -27.167 4.16699 -33.5 12.5s-9.5 19.5 -9.5 33.5c0 29.333 11 56.666 33 81.999
c6.66699 8 15.834 16.5 27.501 25.5s25.667 17.167 42 24.5s35.333 13.5 57 18.5s46.167 7.5 73.5 7.5c72.667 0 129 -17.667 169 -53s60 -85 60 -149c0 -12.667 -1.16699 -26.667 -3.5 -42s-6.66602 -31.333 -12.999 -48s-15.166 -34 -26.499 -52s-26.333 -36.333 -45 -55
c-16.667 -16.667 -34.334 -32 -53.001 -46l-58 -42l-62.5 -44.5c-21.667 -15.667 -43.5 -33.5 -65.5 -53.5c21.333 -11.333 44.333 -18.666 69 -21.999s52.334 -5 83.001 -5c28.667 0 51.667 0.666992 69 2s31.333 3 42 5s19 3.66699 25 5s12.333 2 19 2
c24.667 0 37 -11.333 37 -34c0 -20 -8.33301 -35.333 -25 -46s-36.667 -18.5 -60 -23.5s-47.333 -8 -72 -9s-45 -1.5 -61 -1.5c-8.66699 0 -20.834 0.5 -36.501 1.5s-32.5 2.83301 -50.5 5.5s-36.167 6.5 -54.5 11.5s-35 11.667 -50 20s-27.167 18.666 -36.5 30.999
s-14 27.166 -14 44.499c0 23.333 8.5 45.5 25.5 66.5s38.167 41.667 63.5 62s52.666 40.666 81.999 60.999s56.666 41.333 81.999 63s46.5 44.167 63.5 67.5s25.5 48.666 25.5 75.999c0 34 -11.5 59.5 -34.5 76.5s-55.833 25.5 -98.5 25.5z" />
    <glyph glyph-name="three" unicode="3" horiz-adv-x="584" 
d="M126 600c-21.333 0 -36.999 5.49609 -46.999 16.4961s-15 22.167 -15 33.5c0 12 5.66699 21.833 17 29.5s26.333 13.667 45 18s40 7.33301 64 9s48.333 2.5 73 2.5c20.667 0 43.667 -0.833008 69 -2.5s49 -5.66699 71 -12s40.333 -15.666 55 -27.999
s22 -29.166 22 -50.499c0 -16.667 -6.33301 -34 -19 -52s-27.334 -35 -44.001 -51s-33.167 -30.167 -49.5 -42.5l-35.5 -26.5c70.667 0 122 -17.667 154 -53s48 -86 48 -152c0 -41.333 -7.5 -77.333 -22.5 -108s-35 -56.167 -60 -76.5s-53.667 -35.5 -86 -45.5
s-65.5 -15 -99.5 -15c-28 0 -55.5 2.33301 -82.5 7s-51.167 12.834 -72.5 24.501s-38.5 27.334 -51.5 47.001s-19.5 44.167 -19.5 73.5c0 30.667 16.667 46 50 46c10 0 17.833 -2.5 23.5 -7.5s10.667 -11 15 -18s8.83301 -14.833 13.5 -23.5s11.5 -16.5 20.5 -23.5
s21 -13 36 -18s34.833 -7.5 59.5 -7.5c19.333 0 38.333 2.16699 57 6.5s35.334 11.5 50.001 21.5s26.5 23.5 35.5 40.5s13.5 38.167 13.5 63.5c0 49.333 -10.167 84.333 -30.5 105s-48.833 31 -85.5 31c-9.33301 0 -18 -1.5 -26 -4.5s-16 -6.33301 -24 -10
s-16.333 -7 -25 -10s-18.334 -4.5 -29.001 -4.5s-20 4.83301 -28 14.5s-12 22.167 -12 37.5c0 10.667 5.16699 23 15.5 37s24.666 30 42.999 48s40.5 37.833 66.5 59.5l87 70.5h-23.5c-9 0 -18 -0.166992 -27 -0.5s-17.833 -0.5 -26.5 -0.5h-22
c-25.333 0 -50.166 0.166992 -74.499 0.5s-46.5 0.5 -66.5 0.5z" />
    <glyph glyph-name="four" unicode="4" horiz-adv-x="543" 
d="M425 207c-0.666992 -25.333 -1 -53.002 -1 -83.002s-1 -58 -3 -84c-1.33301 -20 -5.83301 -32.833 -13.5 -38.5s-18.167 -8.5 -31.5 -8.5c-12 0 -21.167 2.16699 -27.5 6.5s-11 13.666 -14 27.999s-4.83301 35.333 -5.5 63s-1 64.834 -1 111.501
c-22 0 -43 -0.333008 -63 -1s-39.333 -1 -58 -1c-28 0 -53.5 0.666992 -76.5 2s-42.667 3.83301 -59 7.5s-29 8.83398 -38 15.501s-13.5 15.334 -13.5 26.001c0 14.667 6 33.167 18 55.5s27 46.5 45 72.5l57.5 79.5l56.5 75.5l34.5 44.5c15 19 31.167 38 48.5 57
s34.666 35.5 51.999 49.5s32 21 44 21c11.333 0 21.333 -3.66699 30 -11s13.667 -24.333 15 -51c2.66699 -38.667 4.33398 -79.167 5.00098 -121.5s1 -84.166 1 -125.499v-99c18.667 -1.33301 33.667 -3 45 -5s20 -4.83301 26 -8.5s10 -8.16699 12 -13.5s3 -12 3 -20
c0 -16.667 -7.66699 -27.834 -23 -33.501s-37 -9.16699 -65 -10.5zM327 533.998l-74.5 -90.499l-52 -64.5l-37 -46l-27.5 -34c30.667 1.33301 62.167 2.16602 94.5 2.49902s64.5 0.5 96.5 0.5v232z" />
    <glyph glyph-name="five" unicode="5" horiz-adv-x="559" 
d="M304 700c23.333 0 46.3311 -0.662109 68.998 -1.99512s42.834 -3.83301 60.501 -7.5s32 -9 43 -16s16.5 -16.167 16.5 -27.5c0 -12.667 -4.83301 -23.667 -14.5 -33s-30.167 -14 -61.5 -14c-39.333 0 -70.5 -0.166992 -93.5 -0.5s-41.333 -0.833008 -55 -1.5
s-24.5 -1.33398 -32.5 -2.00098s-17 -1.33398 -27 -2.00098c-9.33301 -0.666992 -16.5 -2.16699 -21.5 -4.5s-8.66699 -6.33301 -11 -12s-3.83301 -13.334 -4.5 -23.001s-1 -21.834 -1 -36.501c0 -10 0.166992 -18.833 0.5 -26.5s0.5 -15.834 0.5 -24.501
c50 -2 96.167 -6.33301 138.5 -13s79 -18.167 110 -34.5s55.167 -38.833 72.5 -67.5s26 -66.334 26 -113.001c0 -47.333 -6.33301 -86.5 -19 -117.5s-29.5 -56 -50.5 -75s-45.333 -32.333 -73 -40s-56.167 -11.5 -85.5 -11.5c-25.333 0 -52 2.5 -80 7.5s-54 14.167 -78 27.5
s-43.833 31.5 -59.5 54.5s-23.5 52.167 -23.5 87.5c0 20.667 5.16699 36.334 15.5 47.001s22.166 16 35.499 16c11.333 0 22 -3.83301 32 -11.5s15.333 -21.5 16 -41.5s5.33398 -36.333 14.001 -49s19.667 -22.667 33 -30s28.333 -12.333 45 -15s33.667 -4 51 -4
c42 0 73.667 12 95 36s32 61.333 32 112c0 32.667 -7.5 58.5 -22.5 77.5s-34 33.333 -57 43s-48.167 16 -75.5 19s-53.166 4.83301 -77.499 5.5s-45.333 1.5 -63 2.5s-28.5 4.16699 -32.5 9.5c-4.66699 6.66699 -8.33398 15.167 -11.001 25.5s-4.66699 21.166 -6 32.499
s-2.16602 22.5 -2.49902 33.5s-0.5 21.167 -0.5 30.5c0 38.667 3.66699 70.334 11 95.001s20 44 38 58s41.833 23.5 71.5 28.5s67.167 7.5 112.5 7.5z" />
    <glyph glyph-name="six" unicode="6" horiz-adv-x="550" 
d="M40 280c0 56 9.66797 109.499 29.001 160.499s43.333 96 72 135s59 70 91 93s60.667 34.5 86 34.5c10.667 0 21.5 -2.5 32.5 -7.5s16.5 -12.833 16.5 -23.5c0 -9.33301 -5.33301 -19.5 -16 -30.5l-50 -50.5c-12 -12 -24.833 -25.667 -38.5 -41
s-26.834 -31.666 -39.501 -48.999s-24 -35.333 -34 -54s-17.333 -37 -22 -55c22.667 20 48 33.667 76 41s52.667 11 74 11c26.667 0 52.334 -4.83301 77.001 -14.5s46.334 -24 65.001 -43s33.5 -42.667 44.5 -71s16.5 -61.166 16.5 -98.499
c0 -32.667 -5.33301 -62.5 -16 -89.5s-25.834 -50.333 -45.501 -70s-43.334 -35 -71.001 -46s-58.5 -16.5 -92.5 -16.5c-33.333 0 -65.5 4.16699 -96.5 12.5s-58.167 23.166 -81.5 44.499s-42 50.333 -56 87s-21 83.667 -21 141zM154.001 221.999
c0 -44 11.5 -77.334 34.5 -100.001s57.5 -34 103.5 -34c16.667 0 32.667 2.33301 48 7s29 12.5 41 23.5s21.5 25.5 28.5 43.5s10.5 40.333 10.5 67c0 16.667 -3.16699 32.334 -9.5 47.001s-15.333 27.5 -27 38.5s-25.5 19.667 -41.5 26s-33.333 9.5 -52 9.5
c-42.667 0 -76 -11.667 -100 -35s-36 -54.333 -36 -93z" />
    <glyph glyph-name="seven" unicode="7" horiz-adv-x="460" 
d="M235 85c-10.667 -30 -20.6689 -51.999 -30.002 -65.999s-22.666 -21 -39.999 -21c-13.333 0 -24.333 3.16699 -33 9.5s-13 14.5 -13 24.5c0 6 0.833008 12.333 2.5 19s3.83398 13.334 6.50098 20.001c14 42.667 29.5 87.167 46.5 133.5l52 140l52.5 140.5
c17.333 46.667 33.333 92 48 136c-23.333 -1.33301 -45.833 -2 -67.5 -2h-74.5c-33.333 0 -60.5 0.333008 -81.5 1s-37.5 2.5 -49.5 5.5s-20.333 7.83301 -25 14.5s-7 16 -7 28c0 11.333 3.66699 21.166 11 29.499s24.666 13.5 51.999 15.5s51 3.5 71 4.5s42.667 1.5 68 1.5
h43c12.667 0 25.167 -0.333008 37.5 -1l38 -2c13 -0.666992 27.5 -1.33398 43.5 -2.00098c4.66699 0 10.334 -0.666992 17.001 -2s12.667 -3.66602 18 -6.99902s10 -8 14 -14s6 -13.667 6 -23c0 -13.333 -4.33301 -34.5 -13 -63.5s-19.5 -62.333 -32.5 -100
s-27.667 -77.334 -44 -119.001l-47 -121l-41.5 -106c-12.667 -31.667 -22 -56.167 -28 -73.5z" />
    <glyph glyph-name="eight" unicode="8" horiz-adv-x="568" 
d="M284 712c32.667 0 61.6719 -5.16602 87.0049 -15.499s46.666 -24.333 63.999 -42s30.333 -37.667 39 -60s13 -45.5 13 -69.5c0 -25.333 -4.83301 -49.833 -14.5 -73.5s-24.167 -44.167 -43.5 -61.5c32 -16.667 56.5 -40.167 73.5 -70.5s25.5 -67.5 25.5 -111.5
c0 -34 -5 -64.833 -15 -92.5s-25.333 -51.334 -46 -71.001s-46.334 -35 -77.001 -46s-66.334 -16.5 -107.001 -16.5c-41.333 0 -77.333 5.5 -108 16.5s-56 26.5 -76 46.5s-34.833 43.667 -44.5 71s-14.5 57.333 -14.5 90c0 42.667 8.16699 79.5 24.5 110.5
s41.5 55.167 75.5 72.5c-20 17.333 -35 38 -45 62s-15 48.667 -15 74c0 24 4.33301 47.167 13 69.5s21.667 42.333 39 60s38.666 31.667 63.999 42s54.666 15.5 87.999 15.5zM285.005 74.001c24 0 45.002 3.50195 63.002 10.502s32.833 16.5 44.5 28.5s20.5 26 26.5 42
s9 32.667 9 50c0 15.333 -2.5 31 -7.5 47s-13.333 30.333 -25 43s-26.834 23 -45.501 31s-41.334 12 -68.001 12c-46 0 -81.167 -11.833 -105.5 -35.5s-36.5 -54.834 -36.5 -93.501c0 -40.667 12.667 -73.334 38 -98.001s61 -37 107 -37zM286.007 423.003
c16.667 0 31.5 3.33594 44.5 10.0029s24 15.167 33 25.5s15.667 21.666 20 33.999s6.5 24.166 6.5 35.499c0 23.333 -9.16699 43.166 -27.5 59.499s-44.5 24.5 -78.5 24.5s-59.667 -8.16699 -77 -24.5s-26 -35.833 -26 -58.5c0 -11.333 2.16699 -23.333 6.5 -36
s11 -24.167 20 -34.5s20 -18.833 33 -25.5s28.167 -10 45.5 -10z" />
    <glyph glyph-name="nine" unicode="9" horiz-adv-x="550" 
d="M510 418c0 -56 -9.6709 -109.499 -29.0039 -160.499s-43.333 -96 -72 -135s-59 -70 -91 -93s-60.667 -34.5 -86 -34.5c-10.667 0 -21.5 2.5 -32.5 7.5s-16.5 12.833 -16.5 23.5c0 4.66699 1.33301 9.33398 4 14.001s6.66699 10 12 16s12.166 13.167 20.499 21.5
l29.5 29.5c12 12 24.833 25.667 38.5 41s26.834 31.666 39.501 48.999s24 35.333 34 54s17.333 37 22 55c-22.667 -20 -48 -33.667 -76 -41s-52.667 -11 -74 -11c-27.333 0 -53.166 4.83301 -77.499 14.5s-45.833 24 -64.5 43s-33.5 42.667 -44.5 71
s-16.5 61.166 -16.5 98.499c0 32.667 5.33301 63 16 91s25.834 52.5 45.501 73.5s43.334 37.5 71.001 49.5s58.5 18 92.5 18c33.333 0 65.333 -4.66699 96 -14s57.834 -25.333 81.501 -48s42.5 -53 56.5 -91s21 -85.333 21 -142zM395.996 476.001
c0 44 -11.501 79.001 -34.501 105.001s-57.5 39 -103.5 39c-16.667 0 -32.667 -2.83301 -48 -8.5s-29 -14.667 -41 -27s-21.5 -28 -28.5 -47s-10.5 -41.833 -10.5 -68.5c0 -16.667 3.16699 -32.334 9.5 -47.001s15.333 -27.5 27 -38.5s25.334 -19.667 41.001 -26
s33.167 -9.5 52.5 -9.5c42.667 0 76 11.667 100 35s36 54.333 36 93z" />
    <glyph glyph-name="colon" unicode=":" horiz-adv-x="163" 
d="M81 110c15.333 0 29.5 -6 42.5 -18s19.5 -26.333 19.5 -43c0 -16 -6.66699 -29.833 -20 -41.5s-28.333 -17.5 -45 -17.5c-14 0 -27.167 5.83301 -39.5 17.5s-18.5 26.167 -18.5 43.5c0 16 6.16699 29.833 18.5 41.5s26.5 17.5 42.5 17.5zM81 460
c15.333 0 29.5 -6 42.5 -18s19.5 -26.333 19.5 -43c0 -16 -6.66699 -29.833 -20 -41.5s-28.333 -17.5 -45 -17.5c-14 0 -27.167 5.83301 -39.5 17.5s-18.5 26.167 -18.5 43.5c0 16 6.16699 29.833 18.5 41.5s26.5 17.5 42.5 17.5z" />
    <glyph glyph-name="semicolon" unicode=";" horiz-adv-x="170" 
d="M62 -41c3.33301 2.66699 5.50098 6.83496 6.50098 12.502s1.5 12.167 1.5 19.5c-12.667 2 -24.167 8.66699 -34.5 20s-15.5 24.666 -15.5 39.999c0 16 4.66699 29.833 14 41.5s25 17.5 47 17.5c12.667 0 23.5 -2.33301 32.5 -7s16.167 -11 21.5 -19
s9.16602 -17 11.499 -27s3.5 -20 3.5 -30c0 -38.667 -7.33301 -69.334 -22 -92.001s-35.334 -34 -62.001 -34c-6.66699 0 -12.5 2.5 -17.5 7.5s-7.5 12.167 -7.5 21.5c0 12 2.83301 19.333 8.5 22s9.83398 5 12.501 7zM81.001 460.001c15.333 0 29.5 -6 42.5 -18
s19.5 -26.333 19.5 -43c0 -16 -6.66699 -29.833 -20 -41.5s-28.333 -17.5 -45 -17.5c-14 0 -27.167 5.83301 -39.5 17.5s-18.5 26.167 -18.5 43.5c0 16 6.16699 29.833 18.5 41.5s26.5 17.5 42.5 17.5z" />
    <glyph glyph-name="less" unicode="&#x3c;" horiz-adv-x="372" 
d="M321 505c-13.333 -10.667 -29.166 -22.3359 -47.499 -35.0029l-57 -38l-56.5 -36l-46 -28l46 -28l56.5 -36l57 -38.5l47.5 -34.5c11.333 -9.33301 21.5 -18.166 30.5 -26.499s13.5 -18.166 13.5 -29.499c0 -10 -3.66699 -19.333 -11 -28
c-4.66699 -4.66699 -9.33398 -8.33398 -14.001 -11.001s-10 -4 -16 -4s-13.333 1.83301 -22 5.5s-19.667 9.83398 -33 18.501l-112 68.5c-32.667 19.667 -60.167 37.5 -82.5 53.5s-39.333 31.167 -51 45.5s-17.5 29.166 -17.5 44.499s5.66699 30 17 44
s28.166 29.167 50.499 45.5s49.833 34.333 82.5 54l113 68.5c13.333 8.66699 24.333 14.834 33 18.501s16 5.5 22 5.5s11.333 -1.33301 16 -4s9.33398 -6.33398 14.001 -11.001c7.33301 -8.66699 11 -18 11 -28c0 -11.333 -4.5 -21.166 -13.5 -29.499
s-19.167 -17.166 -30.5 -26.499z" />
    <glyph glyph-name="equal" unicode="=" horiz-adv-x="476" 
d="M390 389c-30.667 -1.33301 -65.332 -2.50195 -103.999 -3.50195s-85.334 -1.5 -140.001 -1.5c-22.667 0 -42 0.333008 -58 1s-29 2.5 -39 5.5s-17.333 7.83301 -22 14.5s-7 16 -7 28c0 6 0.666992 11.5 2 16.5s4.33301 9.5 9 13.5s11.167 7.5 19.5 10.5
s19.166 5.16699 32.499 6.5c10 0.666992 18.833 1.33398 26.5 2.00098s15.167 1.16699 22.5 1.5s15.166 0.5 23.499 0.5h29.5c36 0 70 -0.166992 102 -0.5s66 -1.5 102 -3.5c16 -1.33301 28.333 -3.16602 37 -5.49902s15.334 -5.5 20.001 -9.5s7.5 -8.66699 8.5 -14
s1.5 -11.333 1.5 -18c0 -12 -4.16699 -22 -12.5 -30s-26.166 -12.667 -53.499 -14zM390.002 166.998c-30.667 -1.33301 -65.332 -2.50195 -103.999 -3.50195s-85.334 -1.5 -140.001 -1.5c-22.667 0 -42 0.333008 -58 1s-29 2.5 -39 5.5s-17.333 7.83301 -22 14.5
s-7 16 -7 28c0 6 0.666992 11.5 2 16.5s4.33301 9.5 9 13.5s11.167 7.5 19.5 10.5s19.166 5.16699 32.499 6.5c10 0.666992 18.833 1.33398 26.5 2.00098s15.167 1.16699 22.5 1.5s15.166 0.5 23.499 0.5h29.5c36 0 70 -0.166992 102 -0.5s66 -1.5 102 -3.5
c16 -1.33301 28.333 -3.16602 37 -5.49902s15.334 -5.5 20.001 -9.5s7.5 -8.66699 8.5 -14s1.5 -11.333 1.5 -18c0 -12 -4.16699 -22 -12.5 -30s-26.166 -12.667 -53.499 -14z" />
    <glyph glyph-name="greater" unicode="&#x3e;" horiz-adv-x="391" 
d="M50 505c-11.333 9.33301 -21.499 18.168 -30.499 26.501s-13.5 18.166 -13.5 29.499c0 10 3.66699 19.333 11 28c4.66699 4.66699 9.33398 8.33398 14.001 11.001s10 4 16 4s13.333 -1.83301 22 -5.5s19.667 -9.83398 33 -18.501l113 -68.5
c32.667 -19.667 60.167 -37.667 82.5 -54s39.166 -31.5 50.499 -45.5s17 -28.667 17 -44s-5.83301 -30.166 -17.5 -44.499s-28.667 -29.5 -51 -45.5s-49.833 -33.833 -82.5 -53.5l-112 -68.5c-13.333 -8.66699 -24.333 -14.834 -33 -18.501s-16 -5.5 -22 -5.5
s-11.333 1.33301 -16 4s-9.33398 6.33398 -14.001 11.001c-7.33301 8.66699 -11 18 -11 28c0 11.333 4.5 21.166 13.5 29.499s19.167 17.166 30.5 26.499c12.667 10 28.334 21.5 47.001 34.5l57 38.5l56.5 36l46.5 28l-46.5 28l-56.5 36l-57 38
c-18.667 12.667 -34.334 24.334 -47.001 35.001z" />
    <glyph glyph-name="question" unicode="?" horiz-adv-x="462" 
d="M221 278c7.33301 16 18.1689 35.3311 32.502 57.998l43.5 71c14.667 24.667 27.334 49.334 38.001 74.001s16 47.334 16 68.001c0 34 -11.5 59.5 -34.5 76.5s-55.833 25.5 -98.5 25.5c-22 0 -39.667 -2.5 -53 -7.5s-24.166 -11.5 -32.499 -19.5s-15 -16.333 -20 -25
l-14.5 -25c-4.66699 -8 -10.5 -14.5 -17.5 -19.5s-16.167 -7.5 -27.5 -7.5c-16.667 0 -28 4.16699 -34 12.5s-9 19.5 -9 33.5c0 29.333 11 56.666 33 81.999c6.66699 8 15.167 16.333 25.5 25s22.666 16.834 36.999 24.501s31.166 14 50.499 19s41.666 7.5 66.999 7.5
c72.667 0 129 -17.667 169 -53s60 -85 60 -149c0 -22 -3.33301 -44 -10 -66s-15.334 -43.833 -26.001 -65.5s-22.5 -43 -35.5 -64l-38.5 -61.5c-18 -28.667 -32.833 -50.334 -44.5 -65.001s-24.834 -22 -39.501 -22c-13.333 0 -24.333 3.16699 -33 9.5s-13 14.5 -13 24.5
c0 6 0.333008 12.333 1 19s3.33398 13.334 8.00098 20.001zM247.003 109.998c15.333 0 29.5 -6 42.5 -18s19.5 -26.333 19.5 -43c0 -16 -6.66699 -29.833 -20 -41.5s-28.333 -17.5 -45 -17.5c-14 0 -27.167 5.83301 -39.5 17.5s-18.5 26.167 -18.5 43.5
c0 16 6.16699 29.833 18.5 41.5s26.5 17.5 42.5 17.5z" />
    <glyph glyph-name="at" unicode="@" horiz-adv-x="723" 
d="M508 221c0.666992 -32 2.66699 -55.6709 6 -71.0039s13.333 -23 30 -23c21.333 0 38 11.667 50 35s18 56 18 98c0 41.333 -6 78.5 -18 111.5s-28.833 61.167 -50.5 84.5s-48 41.333 -79 54s-65.5 19 -103.5 19s-72.333 -6.33301 -103 -19s-56.5 -30.834 -77.5 -54.501
s-37.167 -52.5 -48.5 -86.5s-17 -72.333 -17 -115c0 -82.667 20.5 -146.834 61.5 -192.501s99.5 -68.5 175.5 -68.5c18.667 0 35.334 1.83301 50.001 5.5s31.667 10.5 51 20.5c8.66699 4.66699 16.334 7 23.001 7c8.66699 0 15.334 -2.16699 20.001 -6.5
s7 -10.166 7 -17.499c0 -9.33301 -4.33301 -18.166 -13 -26.499s-20.5 -15.5 -35.5 -21.5s-32.333 -10.833 -52 -14.5s-40.5 -5.5 -62.5 -5.5c-45.333 0 -85.833 7.66699 -121.5 23s-66 37 -91 65s-44.167 61.833 -57.5 101.5s-20 83.834 -20 132.501
c0 50.667 7.16699 96.5 21.5 137.5s34.833 76 61.5 105s59.167 51.167 97.5 66.5s81.166 23 128.499 23s90.333 -7.66699 129 -23s71.667 -37 99 -65s48.5 -61.667 63.5 -101s22.5 -83 22.5 -131c0 -63.333 -12.333 -112.166 -37 -146.499s-58.334 -51.5 -101.001 -51.5
c-25.333 0 -45.666 5.83301 -60.999 17.5s-25.333 26.167 -30 43.5c-26 -30.667 -61.333 -46 -106 -46s-79.834 14.333 -105.501 43s-38.5 69 -38.5 121s13 93.833 39 125.5s62 47.5 108 47.5c21.333 0 40.333 -4 57 -12s31.667 -20.667 45 -38c0 16 2.66699 27.333 8 34
s14.666 10 27.999 10c8 0 13.5 -2.16699 16.5 -6.5s5.5 -15.166 7.5 -32.499c2.66699 -23.333 4 -49.166 4 -77.499s0.333008 -54.5 1 -78.5zM437 250.996c0 31.333 -8.16699 56.167 -24.5 74.5s-37.5 27.5 -63.5 27.5s-46.333 -9 -61 -27s-22 -42.667 -22 -74
c0 -32 7.66699 -57.333 23 -76s35.666 -28 60.999 -28c26.667 0 47.834 9.66699 63.501 29s23.5 44 23.5 74z" />
    <glyph glyph-name="A" unicode="A" horiz-adv-x="597" 
d="M479 51c-6.66699 16 -13.8379 34.5029 -21.5049 55.5029l-24.5 66.5c-20 -0.666992 -41 -1.16699 -63 -1.5s-44.333 -0.5 -67 -0.5h-78c-23.333 0 -44.666 0.333008 -63.999 1l-23 -66c-7.33301 -20.667 -14.333 -39 -21 -55c-13.333 -34 -32.666 -51 -57.999 -51
c-9.33301 0 -18.166 3 -26.499 9s-12.5 14.667 -12.5 26s2 26.166 6 44.499s9.16699 38 15.5 59l20.5 65l21 62.5c6.66699 21.333 16.167 48.5 28.5 81.5l39.5 103.5l42 106.5l38 91.5c2.66699 6.66699 6 14.167 10 22.5s8.83301 16.166 14.5 23.499s12 13.666 19 18.999
s14.833 8 23.5 8s16.667 -2.83301 24 -8.5s13.833 -12.5 19.5 -20.5s10.667 -16.333 15 -25s7.83301 -16.334 10.5 -23.001l36.5 -92l41 -105l38.5 -101c12 -32 21.667 -59 29 -81c6 -19.333 12.833 -40 20.5 -62s14.834 -43.667 21.501 -65s12.167 -41.166 16.5 -59.499
s6.5 -33.166 6.5 -44.499s-4.16699 -20 -12.5 -26s-17.166 -9 -26.499 -9c-12 0 -23 4.16699 -33 12.5s-18.667 21.166 -26 38.499zM301.996 271.003c16 0 31.998 -0.166016 47.998 -0.499023s32 -0.833008 48 -1.5l-24 70l-22.5 67l-19 59.5l-14.5 48.5
c-2.66699 8.66699 -5.66699 15.667 -9 21s-7.66602 8 -12.999 8s-9.66602 -2.83301 -12.999 -8.5s-6.33301 -12.834 -9 -21.501c-8 -27.333 -19.167 -62.833 -33.5 -106.5l-45.5 -137.5c18 0.666992 36 1.16699 54 1.5s35.667 0.5 53 0.5z" />
    <glyph glyph-name="B" unicode="B" horiz-adv-x="582" 
d="M243 0c-37.333 0 -67.332 3 -89.999 9s-40.167 14.5 -52.5 25.5s-20.666 24.5 -24.999 40.5s-7.5 34 -9.5 54c-2 23.333 -3.5 54.166 -4.5 92.499s-1.5 78.166 -1.5 119.499c0 20 0.166992 41.167 0.5 63.5l1 66c0.333008 21.667 0.833008 41.834 1.5 60.501
s1.66699 34.667 3 48c2 20.667 5.33301 39.334 10 56.001s13.5 31 26.5 43s31.333 21.167 55 27.5s55.167 9.5 94.5 9.5c89.333 0 156.166 -16.5 200.499 -49.5s66.5 -79.833 66.5 -140.5c0 -31.333 -6.83301 -60.333 -20.5 -87s-37.167 -46.667 -70.5 -60
c18.667 -3.33301 35.667 -10.333 51 -21s28.5 -23.5 39.5 -38.5s19.333 -31.667 25 -50s8.5 -36.833 8.5 -55.5c0 -24 -5 -48.5 -15 -73.5s-27 -47.833 -51 -68.5s-55.833 -37.667 -95.5 -51s-88.834 -20 -147.501 -20zM452.001 216c0 24 -5.50195 43.3301 -16.502 57.9971
s-25.167 25.834 -42.5 33.501s-36.666 12.834 -57.999 15.501s-42.666 4 -63.999 4h-52c-18 0 -34.667 -0.333008 -50 -1l-2 -43c-0.666992 -14.667 -1.16699 -28.5 -1.5 -41.5s-0.5 -24.333 -0.5 -34v-20.5c0 -18 1.33301 -33 4 -45s7.66699 -21.667 15 -29
s17.833 -12.5 31.5 -15.5s31.167 -4.5 52.5 -4.5c58.667 0 104 10.333 136 31s48 51.334 48 92.001zM266.999 619.997c-22 0 -39.832 -1.83301 -53.499 -5.5s-24 -8.5 -31 -14.5s-11.667 -13.333 -14 -22s-3.5 -18 -3.5 -28v-140c9.33301 -0.666992 19.166 -1 29.499 -1
h29.5c24 0 47.5 1.66699 70.5 5s43.833 9 62.5 17s33.667 19 45 33s17 32 17 54c0 30 -12.167 54.5 -36.5 73.5s-62.833 28.5 -115.5 28.5z" />
    <glyph glyph-name="C" unicode="C" horiz-adv-x="599" 
d="M351 708c22 0 44.1641 -1.83398 66.4971 -5.50098s42.5 -9.33398 60.5 -17.001s32.833 -17 44.5 -28s17.5 -23.833 17.5 -38.5c0 -15.333 -4 -27 -12 -35s-18 -12 -30 -12c-11.333 0 -21.333 1.83301 -30 5.5l-29.5 12.5c-11 4.66699 -24.167 8.83398 -39.5 12.501
s-35.666 5.5 -60.999 5.5s-49.5 -6.5 -72.5 -19.5s-43 -31 -60 -54s-30.5 -50.167 -40.5 -81.5s-15 -65.333 -15 -102c0 -45.333 5.83301 -84.333 17.5 -117s26.834 -59.5 45.501 -80.5s39.834 -36.667 63.501 -47s47.5 -15.5 71.5 -15.5c28.667 0 52.667 3 72 9
s35.833 12.667 49.5 20s25.5 14 35.5 20s19.667 9 29 9c11.333 0 20.333 -3.16699 27 -9.5s10 -17.5 10 -33.5c0 -13.333 -5.16699 -26.833 -15.5 -40.5s-25.333 -26 -45 -37s-43.167 -20 -70.5 -27s-58 -10.5 -92 -10.5c-37.333 0 -74.5 7.33301 -111.5 22
s-70 36.5 -99 65.5s-52.5 65.333 -70.5 109s-27 94.5 -27 152.5s8.16699 109.667 24.5 155s38.666 83.833 66.999 115.5s61.333 55.834 99 72.501s77.834 25 120.501 25z" />
    <glyph glyph-name="D" unicode="D" horiz-adv-x="619" 
d="M265 707c68.667 0 123.666 -10.333 164.999 -31s73 -48 95 -82s36.5 -72.667 43.5 -116s10.5 -87.333 10.5 -132c0 -48.667 -6.16699 -94.667 -18.5 -138s-31.333 -81.166 -57 -113.499s-58.5 -58 -98.5 -77s-87.667 -28.5 -143 -28.5c-44 0 -79.167 3.16699 -105.5 9.5
s-46.666 15.833 -60.999 28.5s-23.833 28.667 -28.5 48s-7 42 -7 68v376c0 28.667 2.5 54.667 7.5 78s14.833 43.166 29.5 59.499s35.5 28.833 62.5 37.5s62.167 13 105.5 13zM268.999 89c41.333 0 75.5 7.5 102.5 22.5s48.5 34.833 64.5 59.5s27.167 52.667 33.5 84
s9.5 63.333 9.5 96c0 30 -2.33301 60.167 -7 90.5s-14.334 57.833 -29.001 82.5s-35.667 44.667 -63 60s-63.666 23 -108.999 23c-41.333 0 -70 -6 -86 -18s-24 -30.333 -24 -55v-383c0 -20.667 7.5 -36.167 22.5 -46.5s43.5 -15.5 85.5 -15.5z" />
    <glyph glyph-name="E" unicode="E" horiz-adv-x="559" 
d="M66 152c-1.33301 21.333 -2.66211 50.3291 -3.99512 86.9961s-2 74.334 -2 113.001c0 22 0.166992 44.833 0.5 68.5s0.833008 47.834 1.5 72.501c1.33301 49.333 4.5 88 9.5 116s15 49 30 63s36.167 22.667 63.5 26s63.666 5 108.999 5h21.5
c13.667 0 30.167 -0.166992 49.5 -0.5s39.5 -0.833008 60.5 -1.5s38.5 -1.33398 52.5 -2.00098c14.667 -1.33301 26.5 -3.16602 35.5 -5.49902s15.833 -5.33301 20.5 -9s7.66699 -8 9 -13s2 -10.5 2 -16.5c0 -15.333 -4.33301 -26.5 -13 -33.5s-26.334 -11.5 -53.001 -13.5
c-13.333 -1.33301 -32.833 -2.16602 -58.5 -2.49902s-51.834 -0.5 -78.501 -0.5s-50.667 -0.166992 -72 -0.5s-34.666 -0.5 -39.999 -0.5c-17.333 -0.666992 -29.5 -4.5 -36.5 -11.5s-10.5 -23.5 -10.5 -49.5c0 -6 0.5 -20.5 1.5 -43.5s1.5 -55.167 1.5 -96.5h83
c35.333 0 64.166 -0.5 86.499 -1.5s39.666 -3.16699 51.999 -6.5s20.833 -8.66602 25.5 -15.999s7 -17 7 -29c0 -6 -0.5 -11.5 -1.5 -16.5s-3.83301 -9.33301 -8.5 -13s-11.334 -6.66699 -20.001 -9s-21 -4.16602 -37 -5.49902
c-19.333 -1.33301 -37.5 -2.16602 -54.5 -2.49902s-33.833 -0.5 -50.5 -0.5h-84v-36v-43c0 -14.667 0.166992 -29 0.5 -43s0.833008 -25.333 1.5 -34c0.666992 -10.667 2.16699 -19.667 4.5 -27s6.66602 -13.333 12.999 -18s15.666 -8 27.999 -10s28.833 -3 49.5 -3h215
c23.333 0 38 -4.33301 44 -13s9 -20.334 9 -35.001c0 -12 -2.66699 -21.167 -8 -27.5s-18.166 -11 -38.499 -14s-50.666 -4.83301 -90.999 -5.5s-95.833 -1 -166.5 -1c-30 0 -54.667 2.66699 -74 8s-35 14.333 -47 27s-20.833 29.167 -26.5 49.5s-9.5 45.166 -11.5 74.499z
" />
    <glyph glyph-name="F" unicode="F" horiz-adv-x="540" 
d="M60 465c0 56 2.00781 99.8301 6.00781 131.497s12.333 55.5 25 71.5s30.667 25.833 54 29.5s54 5.5 92 5.5h58c17.333 0 34.166 -0.166992 50.499 -0.5s32.666 -0.833008 48.999 -1.5s34.166 -1.33398 53.499 -2.00098c16 -1.33301 28.333 -3.16602 37 -5.49902
s15.334 -5.5 20.001 -9.5s7.5 -8.66699 8.5 -14s1.5 -11.333 1.5 -18c0 -12 -4.16699 -22 -12.5 -30s-26.166 -12.667 -53.499 -14l-48.5 -2c-15.667 -0.666992 -33.334 -1.16699 -53.001 -1.5s-41.834 -0.666016 -66.501 -0.999023s-54.334 -0.5 -89.001 -0.5
c-12 0 -20.333 -4.16699 -25 -12.5s-7 -18.833 -7 -31.5c0 -10 0.166992 -20 0.5 -30s0.666016 -21 0.999023 -33s0.666016 -25.5 0.999023 -40.5s0.5 -32.5 0.5 -52.5c24.667 0 46.167 -0.166992 64.5 -0.5s34.333 -0.666016 48 -0.999023s25.834 -0.833008 36.501 -1.5
l31 -2c27.333 -1.33301 45.166 -6 53.499 -14s12.5 -18 12.5 -30c0 -6.66699 -0.5 -12.667 -1.5 -18s-3.83301 -10 -8.5 -14s-11.334 -7.33301 -20.001 -10s-21 -4.66699 -37 -6c-10.667 -0.666992 -20.834 -1.16699 -30.501 -1.5s-21 -0.666016 -34 -0.999023
s-28.5 -0.5 -46.5 -0.5h-68c-0.666992 -40 -0.833984 -80.833 -0.500977 -122.5s-0.833984 -84.5 -3.50098 -128.5c-1.33301 -26 -5.83301 -41.833 -13.5 -47.5s-19.167 -8.5 -34.5 -8.5c-14.667 0 -25.667 3.16699 -33 9.5s-11.666 21.5 -12.999 45.5
c-1.33301 21.333 -2.16602 44.833 -2.49902 70.5s-0.833008 55 -1.5 88s-1 70.333 -1 112v143.5z" />
    <glyph glyph-name="G" unicode="G" horiz-adv-x="635" 
d="M365 708c22 0 44.6689 -2 68.002 -6s44.666 -9.83301 63.999 -17.5s35.333 -17.167 48 -28.5s19 -24.333 19 -39c0 -15.333 -4 -27 -12 -35s-18 -12 -30 -12c-11.333 0 -21.833 2 -31.5 6l-32.5 13c-12 4.66699 -26.333 9 -43 13s-37.667 6 -63 6
c-28 0 -54.167 -6.5 -78.5 -19.5s-45.833 -31 -64.5 -54s-33.334 -50.167 -44.001 -81.5s-16 -65.333 -16 -102c0 -44.667 5.66699 -83.334 17 -116.001s26.166 -59.667 44.499 -81s39 -37.166 62 -47.499s46.167 -15.5 69.5 -15.5c38 0 68.167 5.5 90.5 16.5
s40.166 25.167 53.499 42.5c0.666992 14 1 30.667 1 50v63c0 8.66699 -0.666992 15.5 -2 20.5s-4.66602 8.83301 -9.99902 11.5s-13.166 4.33398 -23.499 5.00098s-24.166 1 -41.499 1c-21.333 0 -38.666 2.83301 -51.999 8.5s-20 17.834 -20 36.501
c0 13.333 3.5 24.166 10.5 32.499s21.5 13.166 43.5 14.499c4 0 10.5 0.166992 19.5 0.5s18.667 0.5 29 0.5h30.5h24c20 0 36 -1.83301 48 -5.5s22.667 -11.834 32 -24.501c4.66699 -6.66699 7.5 -18.334 8.5 -35.001s1.5 -36 1.5 -58v-258
c0 -18 -4.83301 -31.333 -14.5 -40s-20.834 -13 -33.501 -13c-15.333 0 -27.833 3.83301 -37.5 11.5s-14.5 19.834 -14.5 36.501v39c-17.333 -20 -37.833 -34.333 -61.5 -43s-53.5 -13 -89.5 -13c-36.667 0 -72.667 7.33301 -108 22s-66.666 36.5 -93.999 65.5
s-49.5 65.333 -66.5 109s-25.5 94.5 -25.5 152.5s8.5 109.667 25.5 155s40.167 83.833 69.5 115.5s63.666 55.834 102.999 72.501s81.666 25 126.999 25z" />
    <glyph glyph-name="H" unicode="H" horiz-adv-x="610" 
d="M455 62c-1.33301 36 -2.50195 73.8379 -3.50195 113.505s-1.5 85.5 -1.5 137.5c-21.333 -0.666992 -44 -1.16699 -68 -1.5s-48.667 -0.5 -74 -0.5h-82c-24.667 0 -46.667 0.333008 -66 1l-2 -121.5c-0.666992 -39 -2 -81.5 -4 -127.5
c-0.666992 -16 -2.16699 -28.333 -4.5 -37s-5.5 -15.334 -9.5 -20.001s-8.5 -7.5 -13.5 -8.5s-10.833 -1.5 -17.5 -1.5c-12 0 -22 4.16699 -30 12.5s-12.667 26.166 -14 53.499c-1.33301 24 -2.16602 49 -2.49902 75s-0.833008 54 -1.5 84s-1 62.5 -1 97.5v117.5
c0 47.333 0.333008 87.833 1 121.5s2.5 61.167 5.5 82.5s7.83301 37 14.5 47s16 15 28 15c11.333 0 21.333 -3.66699 30 -11s13.667 -24.333 15 -51c1.33301 -22.667 2.33301 -43.167 3 -61.5l2 -54c0.666992 -17.667 1 -35.834 1 -54.501v-62c50 2 99 3 147 3
c23.333 0 46.833 -0.333008 70.5 -1s47.834 -1.66699 72.501 -3v29c0 47.333 0.333008 87.833 1 121.5s2.5 61.167 5.5 82.5s7.83301 37 14.5 47s16 15 28 15c11.333 0 21.333 -3.66699 30 -11s13.667 -24.333 15 -51c1.33301 -24 2.33301 -45.333 3 -64l2 -55.5
c0.666992 -18.333 1 -37.333 1 -57v-66.5v-86c0 -27.333 -0.333008 -54.333 -1 -81l-2 -81c-0.666992 -27.333 -1.66699 -56 -3 -86c-0.666992 -16 -2.16699 -28.333 -4.5 -37s-5.5 -15.334 -9.5 -20.001s-8.5 -7.5 -13.5 -8.5s-10.833 -1.5 -17.5 -1.5
c-12 0 -22 4.16699 -30 12.5s-12.667 26.166 -14 53.499z" />
    <glyph glyph-name="I" unicode="I" horiz-adv-x="244" 
d="M75 62c-1.33301 24 -2.16602 48.999 -2.49902 74.999s-0.833008 54 -1.5 84s-1 62.5 -1 97.5v117.5c0 47.333 0.333008 87.833 1 121.5s2.66699 61.167 6 82.5s8.5 37 15.5 47s16.5 15 28.5 15c6 0 11.667 -0.666992 17 -2s10 -4.16602 14 -8.49902
s7.5 -10.666 10.5 -18.999s4.83301 -19.166 5.5 -32.499c1.33301 -24 2.33301 -45.333 3 -64l2 -55.5c0.666992 -18.333 1 -37.333 1 -57v-66.5v-86c0 -27.333 -0.333008 -54.333 -1 -81l-2 -81c-0.666992 -27.333 -1.66699 -56 -3 -86
c-0.666992 -16 -2.33398 -28.333 -5.00098 -37s-6 -15.334 -10 -20.001s-8.66699 -7.5 -14 -8.5s-11.333 -1.5 -18 -1.5c-12 0 -22.333 4.16699 -31 12.5s-13.667 26.166 -15 53.499z" />
    <glyph glyph-name="J" unicode="J" horiz-adv-x="426" 
d="M266 648c0 16 1.33105 28.333 3.99805 37s6.33398 15.334 11.001 20.001s10 7.5 16 8.5s12.333 1.5 19 1.5s13 -0.833008 19 -2.5s11.333 -5 16 -10s8.33398 -11.833 11.001 -20.5s4 -19.667 4 -33v-420c0 -40 -3.16699 -74.667 -9.5 -104s-16.833 -53.5 -31.5 -72.5
s-34 -33.167 -58 -42.5s-54 -14 -90 -14c-12.667 0 -28 2 -46 6s-35.167 10.167 -51.5 18.5s-30.333 19.333 -42 33s-17.5 30.167 -17.5 49.5c0 15.333 5.16699 26 15.5 32s21.833 9 34.5 9c9.33301 0 18 -2.5 26 -7.5s16.167 -10.5 24.5 -16.5s17.166 -11.5 26.499 -16.5
s20 -7.5 32 -7.5c14.667 0 27.334 2 38.001 6s19.5 11.667 26.5 23s12.333 27.166 16 47.499s5.5 46.5 5.5 78.5z" />
    <glyph glyph-name="K" unicode="K" horiz-adv-x="570" 
d="M65 62c-1.33301 24 -2.16504 49.001 -2.49805 75.001s-0.833008 54 -1.5 84s-1 62.5 -1 97.5v117.5c0 47.333 0.333008 87.833 1 121.5s2.5 61.167 5.5 82.5s7.83301 37 14.5 47s16 15 28 15c11.333 0 21.333 -3.66699 30 -11s13.667 -24.333 15 -51
c1.33301 -24 2.33301 -45.333 3 -64l2 -55.5c0.666992 -18.333 1 -37.333 1 -57v-66.5v-52l214 245c28 32 49.667 53.167 65 63.5s28.666 15.5 39.999 15.5c13.333 0 23.166 -3.33301 29.499 -10s9.5 -15 9.5 -25c0 -4 -0.666992 -8 -2 -12s-4.16602 -9.5 -8.49902 -16.5
s-10.833 -15.667 -19.5 -26s-20.334 -23.5 -35.001 -39.5l-139 -151l219 -312c5.33301 -7.33301 9.5 -15 12.5 -23s4.5 -15.667 4.5 -23c0 -12.667 -3.5 -23.167 -10.5 -31.5s-19.167 -12.5 -36.5 -12.5c-14 0 -26.5 3.83301 -37.5 11.5s-21.167 18.834 -30.5 33.501
l-190 281l-86 -94l-2 -76c-0.666992 -25.333 -1.66699 -52 -3 -80c-0.666992 -16 -2.16699 -28.333 -4.5 -37s-5.5 -15.334 -9.5 -20.001s-8.5 -7.5 -13.5 -8.5s-10.833 -1.5 -17.5 -1.5c-12 0 -22 4.16699 -30 12.5s-12.667 26.166 -14 53.499z" />
    <glyph glyph-name="L" unicode="L" horiz-adv-x="454" 
d="M160 279l0.00390625 -56.4932c0 -16.333 -0.166992 -31.833 -0.5 -46.5s-0.833008 -29.334 -1.5 -44.001s-1.33398 -31 -2.00098 -49c46 5.33301 82 9.66602 108 12.999l61.5 8c15 2 26.667 3.33301 35 4s18.166 1 29.499 1c29.333 0 44 -14.333 44 -43
c0 -11.333 -5.83301 -21 -17.5 -29s-26.334 -14.833 -44.001 -20.5s-37.334 -10.334 -59.001 -14.001s-42.667 -6.33398 -63 -8.00098s-38.666 -2.83398 -54.999 -3.50098s-27.833 -1 -34.5 -1c-24 0 -42.667 1.5 -56 4.5s-23.333 12 -30 27s-10.834 37.833 -12.501 68.5
s-2.5 74 -2.5 130v144c0 42 0.333008 79.667 1 113s1.16699 63 1.5 89s1.16602 49.667 2.49902 71c1.33301 27.333 6 45.166 14 53.499s18 12.5 30 12.5c6.66699 0 12.5 -0.5 17.5 -1.5s9.5 -3.83301 13.5 -8.5s7.16699 -11.334 9.5 -20.001s3.83301 -21 4.5 -37
c2.66699 -58.667 4.33398 -116.667 5.00098 -174s1 -118.333 1 -183z" />
    <glyph glyph-name="M" unicode="M" horiz-adv-x="737" 
d="M328 170c-30.667 67.333 -57.834 132.499 -81.501 195.499s-43.834 119.167 -60.501 168.5c-15.333 -82.667 -28.166 -166 -38.499 -250s-23.5 -164.333 -39.5 -241c-4 -17.333 -11.333 -28.833 -22 -34.5s-19.667 -8.5 -27 -8.5c-12 0 -21.5 3.66699 -28.5 11
s-10.5 16.666 -10.5 27.999c0 15.333 1.83301 38.833 5.5 70.5s8.33398 67.5 14.001 107.5s12.167 82 19.5 126s14.833 86.5 22.5 127.5s15 78.167 22 111.5s13.167 59 18.5 77c8.66699 30.667 26.334 46 53.001 46c16 0 29.667 -7.83301 41 -23.5s23.5 -39.667 36.5 -72
l47 -122.5c18.333 -49.333 42.166 -107.333 71.499 -174c28.667 66.667 51.834 124.5 69.501 173.5l45 122c12.333 32.333 24.166 56.333 35.499 72s25.333 23.5 42 23.5c15.333 0 27 -3.83301 35 -11.5s14 -19.167 18 -34.5c4.66699 -18.667 10.334 -44.5 17.001 -77.5
l21.5 -110c7.66699 -40.333 15.167 -82.5 22.5 -126.5s14 -86 20 -126s10.833 -76.167 14.5 -108.5s5.5 -57.166 5.5 -74.499c0 -10.667 -3.66699 -19.167 -11 -25.5s-16.666 -9.5 -27.999 -9.5c-7.33301 0 -16.333 2.83301 -27 8.5s-18 17.167 -22 34.5
c-8 38 -15.167 77.333 -21.5 118s-12.333 81.834 -18 123.501l-16.5 125c-5.33301 41.667 -11 83.167 -17 124.5l-30 -88c-11.333 -32 -23.333 -64.167 -36 -96.5l-39 -95.5c-13.333 -31.333 -26.333 -59.666 -39 -84.999c-4.66699 -8.66699 -10.834 -15.167 -18.501 -19.5
s-15.5 -6.5 -23.5 -6.5c-8.66699 0 -16.834 2.16699 -24.501 6.5s-13.5 11.166 -17.5 20.499z" />
    <glyph glyph-name="N" unicode="N" horiz-adv-x="631" 
d="M456 47c-21.333 29.333 -41.501 58.502 -60.501 87.502l-61 95.5l-74 115.5l-99.5 148.5v-134.5c0 -39.667 -0.333008 -76.5 -1 -110.5s-1.33398 -66 -2.00098 -96s-1.66699 -60 -3 -90c-0.666992 -16 -2.16699 -28.333 -4.5 -37s-5.5 -15.334 -9.5 -20.001
s-8.5 -7.5 -13.5 -8.5s-10.833 -1.5 -17.5 -1.5c-12 0 -22 4.16699 -30 12.5s-12.667 26.166 -14 53.499c-3.33301 73.333 -5.16602 146.833 -5.49902 220.5s-0.5 149.834 -0.5 228.501c0 44.667 0.5 79.667 1.5 105s3.33301 44.333 7 57s8.66699 20.667 15 24
s14.833 5 25.5 5s24.667 -8.16699 42 -24.5s36.333 -37.833 57 -64.5s42.834 -57.334 66.501 -92.001l70.5 -107l67.5 -109l59.5 -98c-0.666992 31.333 -1 65.833 -1 103.5v125.5c0 52.667 0.333008 96.167 1 130.5s2.5 61.5 5.5 81.5s7.83301 34 14.5 42s16 12 28 12
c11.333 0 21.333 -3.66699 30 -11s13.667 -24.333 15 -51c1.33301 -24 2.33301 -45.333 3 -64l2 -55.5c0.666992 -18.333 1 -37.333 1 -57v-66.5v-86c0 -27.333 -0.333008 -54.333 -1 -81l-2 -81c-0.666992 -27.333 -1.66699 -56 -3 -86
c-0.666992 -16 -2.16699 -28.333 -4.5 -37s-5.5 -15.334 -9.5 -20.001s-8.5 -7.5 -13.5 -8.5s-10.833 -1.5 -17.5 -1.5c-11.333 0 -21 3.33301 -29 10s-19.667 20.334 -35 41.001z" />
    <glyph glyph-name="O" unicode="O" 
d="M328 -10c-40 0 -77.502 8 -112.502 24s-65.5 39.167 -91.5 69.5s-46.5 67.5 -61.5 111.5s-22.5 94 -22.5 150c0 52.667 6.5 101 19.5 145s32.333 82 58 114s57.5 56.833 95.5 74.5s82 26.5 132 26.5c40.667 0 79.334 -7.33301 116.001 -22s68.834 -36.667 96.501 -66
s49.5 -66 65.5 -110s24 -95.333 24 -154c0 -48.667 -6.5 -95 -19.5 -139s-32.667 -82.5 -59 -115.5s-59.5 -59.333 -99.5 -79s-87 -29.5 -141 -29.5zM329.998 84c36.667 0 68.668 7.5 96.001 22.5s50 34.833 68 59.5s31.333 53.167 40 85.5s13 65.5 13 99.5
c0 41.333 -5.5 78.166 -16.5 110.499s-25.833 59.5 -44.5 81.5s-40.334 38.833 -65.001 50.5s-51 17.5 -79 17.5c-33.333 0 -62.5 -7 -87.5 -21s-46 -33 -63 -57s-29.833 -52.167 -38.5 -84.5s-13 -66.833 -13 -103.5c0 -39.333 5 -75.166 15 -107.499
s23.5 -59.833 40.5 -82.5s37.167 -40.167 60.5 -52.5s48 -18.5 74 -18.5z" />
    <glyph glyph-name="P" unicode="P" horiz-adv-x="568" 
d="M160 63c0 -16 -1.50098 -28.333 -4.50098 -37s-6.66699 -15.334 -11 -20.001s-9.33301 -7.5 -15 -8.5s-11.167 -1.5 -16.5 -1.5c-18 0 -29.833 4 -35.5 12s-9.5 26 -11.5 54c-1.33301 14.667 -2.33301 36 -3 64s-1.16699 61.333 -1.5 100
s-0.666016 81.334 -0.999023 128.001s-0.5 96 -0.5 148c0 24.667 3 49.667 9 75s17.5 48.333 34.5 69s40.667 37.334 71 50.001s69.833 19 118.5 19c34 0 66.333 -3.66699 97 -11s57.667 -20 81 -38s42 -42 56 -72s21 -67.333 21 -112
c0 -46.667 -7.66699 -85.334 -23 -116.001s-37 -55 -65 -73s-61.333 -30.667 -100 -38s-81 -11 -127 -11h-34c-11.333 0 -24 0.666992 -38 2zM447.999 484c0 44.667 -12.499 78.3311 -37.499 100.998s-66.5 34 -124.5 34c-22 0 -40.833 -1.83301 -56.5 -5.5
s-28.5 -10 -38.5 -19s-17.5 -21.167 -22.5 -36.5s-7.5 -34.666 -7.5 -57.999v-77.5c0 -29 0.333008 -56.167 1 -81.5c15.333 -0.666992 32.5 -1 51.5 -1h53.5c20 0 40.833 1.33301 62.5 4s41.167 8.83398 58.5 18.501s31.666 24 42.999 43s17 45.167 17 78.5z" />
    <glyph glyph-name="Q" unicode="Q" 
d="M328 -10c-40 0 -77.501 7.99902 -112.501 23.999s-65.5 39.167 -91.5 69.5s-46.5 67.5 -61.5 111.5s-22.5 94 -22.5 150c0 52.667 6.5 101 19.5 145s32.333 82 58 114s57.5 56.833 95.5 74.5s82 26.5 132 26.5c40.667 0 79.334 -7.33301 116.001 -22
s68.834 -36.667 96.501 -66s49.5 -66 65.5 -110s24 -95.333 24 -154c0 -48 -6.16699 -93.333 -18.5 -136s-31.166 -80.667 -56.499 -114l57 -47c7.33301 -6 14.166 -13.5 20.499 -22.5s9.5 -19.167 9.5 -30.5c0 -13.333 -5.33301 -24 -16 -32s-23.334 -12 -38.001 -12
c-18.667 0 -38.334 9.33301 -59.001 28l-52 45c-22.667 -13.333 -47.667 -23.666 -75 -30.999s-57.666 -11 -90.999 -11zM329.999 83.999c36.667 0 68.668 7.5 96.001 22.5s50 34.833 68 59.5s31.333 53.167 40 85.5s13 65.5 13 99.5c0 41.333 -5.5 78.166 -16.5 110.499
s-25.833 59.5 -44.5 81.5s-40.334 38.833 -65.001 50.5s-51 17.5 -79 17.5c-33.333 0 -62.5 -7 -87.5 -21s-46 -33 -63 -57s-29.833 -52.167 -38.5 -84.5s-13 -66.833 -13 -103.5c0 -39.333 5 -75.166 15 -107.499s23.5 -59.833 40.5 -82.5s37.167 -40.167 60.5 -52.5
s48 -18.5 74 -18.5z" />
    <glyph glyph-name="R" unicode="R" horiz-adv-x="577" 
d="M291 246c-9.33301 -0.666992 -18.833 -1.16699 -28.5 -1.5s-19.5 -0.5 -29.5 -0.5h-34c-11.333 0 -24 0.666992 -38 2v-203c0 -21.333 -5.16699 -34.5 -15.5 -39.5s-23.166 -7.5 -38.499 -7.5c-8 0 -14.333 0.5 -19 1.5s-8.5 3 -11.5 6s-5.33301 7.5 -7 13.5
s-2.83398 14.333 -3.50098 25c-1.33301 12 -2.33301 29.5 -3 52.5s-1.16699 52.833 -1.5 89.5s-0.666016 81.167 -0.999023 133.5s-0.5 113.833 -0.5 184.5c0 27.333 3.33301 53.833 10 79.5s18.667 48.334 36 68.001s40.833 35.5 70.5 47.5s67.5 18 113.5 18
c32.667 0 64.5 -3.66699 95.5 -11s58.5 -20 82.5 -38s43.333 -42.333 58 -73s22 -69 22 -115c0 -61.333 -13.167 -108.833 -39.5 -142.5s-62.5 -57.5 -108.5 -71.5l134 -184c12 -16 18 -32.333 18 -49c0 -13.333 -4.5 -23.833 -13.5 -31.5s-20.167 -11.5 -33.5 -11.5
c-14.667 0 -27.334 4.16699 -38.001 12.5s-20.667 19.166 -30 32.499zM448 479c0 46 -13.8311 80.167 -41.498 102.5s-71.5 33.5 -131.5 33.5c-22 0 -40.333 -1.83301 -55 -5.5s-26.334 -10.5 -35.001 -20.5s-14.834 -23.833 -18.501 -41.5s-5.5 -40.167 -5.5 -67.5v-68
c0 -26 0.333008 -49.667 1 -71c15.333 -0.666992 32.5 -1 51.5 -1h53.5c18.667 0 38.5 1.16699 59.5 3.5s40.5 8.33301 58.5 18s33 23.667 45 42s18 43.5 18 75.5z" />
    <glyph glyph-name="S" unicode="S" horiz-adv-x="582" 
d="M304 706c18.667 0 40.1689 -1.50195 64.502 -4.50195s47.166 -8.33301 68.499 -16s39.333 -17.667 54 -30s22 -27.5 22 -45.5c0 -10.667 -3 -19.667 -9 -27s-15.667 -11 -29 -11c-10 0 -20.167 2 -30.5 6s-22 8.16699 -35 12.5s-28 8.5 -45 12.5s-36.833 6 -59.5 6
c-44 0 -76.5 -7.83301 -97.5 -23.5s-31.5 -37.167 -31.5 -64.5c0 -18.667 4.66699 -34.334 14 -47.001s21.833 -23.5 37.5 -32.5s33.334 -16.5 53.001 -22.5s39.834 -11.667 60.501 -17c23.333 -6 46.5 -13.333 69.5 -22s43.5 -20 61.5 -34s32.5 -31.667 43.5 -53
s16.5 -48.333 16.5 -81c0 -34 -6.33301 -64.5 -19 -91.5s-30 -50 -52 -69s-48.333 -33.667 -79 -44s-64 -15.5 -100 -15.5c-20 0 -43.333 1.83301 -70 5.5s-52 10 -76 19s-44.333 21 -61 36s-25 33.5 -25 55.5c0 13.333 3.5 24 10.5 32s17.5 12 31.5 12
c11.333 0 20.666 -2.16699 27.999 -6.5s13.666 -9.16602 18.999 -14.499c20 -17.333 42.667 -29 68 -35s51.333 -9 78 -9c15.333 0 31.5 1.16699 48.5 3.5s32.5 7.16602 46.5 14.499s25.667 17.833 35 31.5s14 32.167 14 55.5c0 21.333 -4.16699 38.833 -12.5 52.5
s-19.5 25.167 -33.5 34.5s-30.5 17 -49.5 23s-39.5 12 -61.5 18c-24.667 6.66699 -49 14 -73 22s-45.333 18.833 -64 32.5s-33.834 31 -45.501 52s-17.5 47.833 -17.5 80.5s6 61.334 18 86.001s28.333 45.334 49 62.001s45.167 29.334 73.5 38.001s58.833 13 91.5 13z" />
    <glyph glyph-name="T" unicode="T" horiz-adv-x="545" 
d="M449 608c-18.667 -1.33301 -38.501 -2.33398 -59.501 -3.00098s-44.167 -1.33398 -69.5 -2.00098c0.666992 -18 1.33398 -34.833 2.00098 -50.5l2 -47.5c0.666992 -16 1.16699 -32.667 1.5 -50s0.5 -36.666 0.5 -57.999v-86.5c0 -27.667 -0.333008 -55.334 -1 -83.001
l-2 -83.5c-0.666992 -28 -1.66699 -57 -3 -87c-0.666992 -16 -2.16699 -28.333 -4.5 -37s-5.5 -15.334 -9.5 -20.001s-8.66699 -7.5 -14 -8.5s-11.333 -1.5 -18 -1.5c-12 0 -22.167 4.16699 -30.5 12.5s-13.166 26.166 -14.499 53.499
c-1.33301 24 -2.16602 49.333 -2.49902 76s-0.833008 55.334 -1.5 86.001s-1 63.834 -1 99.501v118.5c0 36.667 0.166992 68.667 0.5 96s1.16602 51 2.49902 71h-41c-28 0 -51.833 0.333008 -71.5 1s-35.834 2.5 -48.501 5.5s-21.834 7.83301 -27.501 14.5s-8.5 16 -8.5 28
c0 6 0.666992 11.5 2 16.5s4.33301 9.66699 9 14s11.167 7.83301 19.5 10.5s19.166 4.66699 32.499 6c12.667 0.666992 24 1.33398 34 2.00098l30 2c10 0.666992 20.333 1 31 1h37c39.333 0 76.5 -0.333008 111.5 -1s72.167 -2 111.5 -4
c16 -1.33301 28.333 -3.16602 37 -5.49902s15.334 -5.5 20.001 -9.5s7.5 -8.66699 8.5 -14s1.5 -11.333 1.5 -18c0 -12 -4.16699 -22 -12.5 -30s-26.166 -12.667 -53.499 -14z" />
    <glyph glyph-name="U" unicode="U" horiz-adv-x="612" 
d="M301 -17c-76 0 -131.667 20.666 -167 61.999c-14 16 -25.833 36.5 -35.5 61.5s-17.334 57.5 -23.001 97.5s-9.66699 89.5 -12 148.5s-3.5 130.833 -3.5 215.5c0 27.333 0.666992 49.833 2 67.5s4 31.667 8 42s9.16699 17.5 15.5 21.5s14.5 6 24.5 6
c19.333 0 33 -8.66699 41 -26s12 -47.333 12 -90c0 -14.667 -0.166992 -27.667 -0.5 -39s-0.5 -22.833 -0.5 -34.5s-0.166992 -24.5 -0.5 -38.5s-0.5 -31 -0.5 -51c0 -66.667 2.16699 -122 6.5 -166s11.833 -79.167 22.5 -105.5s25.167 -44.833 43.5 -55.5
s41.166 -16 68.499 -16c28.667 0 52.5 5.83301 71.5 17.5s34.167 31.334 45.5 59.001s19.5 64.5 24.5 110.5s7.5 103.333 7.5 172c0 30 -0.166992 55.667 -0.5 77s-0.5 40.666 -0.5 57.999c0 24.667 0.833008 45.334 2.5 62.001s4.33398 29.834 8.00098 39.501
s8.83398 16.5 15.501 20.5s15 6 25 6s18.333 -2 25 -6s12 -11 16 -21s6.66699 -23.833 8 -41.5s2 -40.5 2 -68.5c0 -117.333 -3.66699 -213.833 -11 -289.5s-20.333 -135.334 -39 -179.001s-44.167 -74 -76.5 -91s-73.833 -25.5 -124.5 -25.5z" />
    <glyph glyph-name="V" unicode="V" horiz-adv-x="564" 
d="M333 40c-8.66699 -16 -16.498 -27.667 -23.498 -35s-15.833 -11 -26.5 -11s-20 3.66699 -28 11s-16.667 18.666 -26 33.999c-12 20 -25.5 47.667 -40.5 83s-30.167 73.833 -45.5 115.5s-30.333 84.834 -45 129.501s-27.834 86.667 -39.501 126s-21 73.833 -28 103.5
s-10.5 50.834 -10.5 63.501c0 13.333 2.66699 23.333 8 30s15.666 10 30.999 10c8.66699 0 16.167 -2.16699 22.5 -6.5s14.5 -16.5 24.5 -36.5c8 -15.333 16.667 -35.333 26 -60l29.5 -82l31.5 -94.5l32 -98.5l30 -94l26 -81l27 82.5l31 94l32 98
c10.667 33 21.334 64.167 32.001 93.5l30 81c9.33301 24.667 17.666 45 24.999 61c9.33301 19.333 17.5 31.333 24.5 36s14.167 7 21.5 7c15.333 0 25.833 -3.83301 31.5 -11.5s8.5 -18.834 8.5 -33.501c0 -13.333 -2 -29.333 -6 -48s-10.833 -43.5 -20.5 -74.5
s-22.5 -69.5 -38.5 -115.5l-59 -169c-6 -18 -12.833 -36.667 -20.5 -56l-23 -56.5l-22.5 -52.5c-7.33301 -16.667 -14.333 -31 -21 -43z" />
    <glyph glyph-name="W" unicode="W" horiz-adv-x="760" 
d="M334 510c4 9.33301 10.167 16.9951 18.5 22.9951s17.166 9 26.499 9c8.66699 0 17 -2.83301 25 -8.5s14.333 -13.167 19 -22.5c25.333 -52 50.333 -108.167 75 -168.5s47 -117.5 67 -171.5c11.333 82.667 23.666 166 36.999 250s28.333 164.333 45 241
c2 8.66699 5 15.834 9 21.501s8.33301 10 13 13s9.5 5.16699 14.5 6.5s9.16699 2 12.5 2c11.333 0 20.666 -3.16699 27.999 -9.5s11 -14.833 11 -25.5c0 -12 -2 -33.167 -6 -63.5s-9.33301 -65.666 -16 -105.999s-14.167 -83.166 -22.5 -128.499l-24.5 -131
c-8 -42 -15.667 -80.333 -23 -115s-13.333 -61 -18 -79c-4 -15.333 -10 -26.833 -18 -34.5s-19.667 -11.5 -35 -11.5c-16 0 -29.5 7.16699 -40.5 21.5s-23 36.833 -36 67.5s-28.5 69.834 -46.5 117.501s-41.333 104.834 -70 171.501
c-29.333 -66.667 -53.166 -124 -71.499 -172s-34 -87.333 -47 -118s-25.167 -53.167 -36.5 -67.5s-24.666 -21.5 -39.999 -21.5c-26.667 -0 -44.334 15.333 -53.001 46c-5.33301 18 -11.666 44.167 -18.999 78.5s-14.833 72.5 -22.5 114.5l-23.5 130.5
c-8 45 -15 87.5 -21 127.5s-10.833 75.167 -14.5 105.5s-5.5 51.5 -5.5 63.5c0 11.333 3.66699 20.666 11 27.999s17.666 11 30.999 11c9.33301 0 18.333 -2.83301 27 -8.5s15 -17.167 19 -34.5c16 -76.667 30.167 -157 42.5 -241s25.5 -167.333 39.5 -250
c20.667 48.667 41.334 100.334 62.001 155.001s46.334 116 77.001 184z" />
    <glyph glyph-name="X" unicode="X" horiz-adv-x="588" 
d="M294 263l-149 -231c-9.33301 -14.667 -19.5 -25.834 -30.5 -33.501s-23.5 -11.5 -37.5 -11.5c-17.333 0 -29.5 4.16699 -36.5 12.5s-10.5 18.833 -10.5 31.5c0 7.33301 1.5 15 4.5 23s7.16699 15.667 12.5 23l186 266l-186 266c-5.33301 7.33301 -9.5 15 -12.5 23
s-4.5 15.667 -4.5 23c0 12.667 3.5 23.167 10.5 31.5s19.167 12.5 36.5 12.5c14 0 26.5 -3.83301 37.5 -11.5s21.167 -18.834 30.5 -33.501l149 -231l149 231c9.33301 14.667 19.5 25.834 30.5 33.501s23.5 11.5 37.5 11.5c17.333 0 29.5 -4.16699 36.5 -12.5
s10.5 -18.833 10.5 -31.5c0 -7.33301 -1.5 -15 -4.5 -23s-7.16699 -15.667 -12.5 -23l-186 -266l186 -266c5.33301 -7.33301 9.5 -15 12.5 -23s4.5 -15.667 4.5 -23c0 -12.667 -3.5 -23.167 -10.5 -31.5s-19.167 -12.5 -36.5 -12.5c-14 0 -26.5 3.83301 -37.5 11.5
s-21.167 18.834 -30.5 33.501z" />
    <glyph glyph-name="Y" unicode="Y" horiz-adv-x="568" 
d="M241 62c-1.33301 36.667 -2.5 75.834 -3.5 117.501s-1.5 89.834 -1.5 144.501l-199 285c-5.33301 7.33301 -9.5 15 -12.5 23s-4.5 15.667 -4.5 23c0 12.667 3.5 23.167 10.5 31.5s19.167 12.5 36.5 12.5c14 0 26.5 -3.83301 37.5 -11.5s21.167 -18.834 30.5 -33.501
l149 -237l149 237c9.33301 14.667 19.5 25.834 30.5 33.501s23.5 11.5 37.5 11.5c17.333 0 29.5 -4.16699 36.5 -12.5s10.5 -18.833 10.5 -31.5c0 -7.33301 -1.5 -15 -4.5 -23s-7.16699 -15.667 -12.5 -23l-195 -279c0 -45.333 -0.5 -88.833 -1.5 -130.5
s-2.5 -87.167 -4.5 -136.5c-0.666992 -16 -2.16699 -28.333 -4.5 -37s-5.5 -15.334 -9.5 -20.001s-8.5 -7.5 -13.5 -8.5s-10.833 -1.5 -17.5 -1.5c-12 0 -22 4.16699 -30 12.5s-12.667 26.166 -14 53.499z" />
    <glyph glyph-name="Z" unicode="Z" horiz-adv-x="527" 
d="M431 2c-12 -1.33301 -26.8359 -2.50098 -44.5029 -3.50098s-36.667 -1.83301 -57 -2.5l-64 -2c-22.333 -0.666992 -43.833 -1 -64.5 -1c-36 0 -65.167 0.333008 -87.5 1s-39.666 2.16699 -51.999 4.5s-20.666 5.83301 -24.999 10.5s-6.5 11 -6.5 19
c0 14.667 4 31.834 12 51.501s17.5 39.5 28.5 59.5s22.167 38.833 33.5 56.5l26 41.5l222 361c-12.667 0 -21.167 -0.166992 -25.5 -0.5s-9.66602 -0.666016 -15.999 -0.999023s-16 -0.5 -29 -0.5h-62.5c-41.333 0 -74.166 0.5 -98.499 1.5s-42.666 3.16699 -54.999 6.5
s-20.333 8 -24 14s-5.5 14.333 -5.5 25c0 16.667 4 28.5 12 35.5s25 11.833 51 14.5c10.667 0.666992 22.667 1.5 36 2.5s27.166 1.66699 41.499 2l42.5 1c14 0.333008 27 0.5 39 0.5s23.5 -0.166992 34.5 -0.5l34 -1c11.667 -0.333008 24.167 -0.833008 37.5 -1.5
s28.666 -1.33398 45.999 -2.00098c5.33301 0 12.166 -0.5 20.499 -1.5s16.333 -2.5 24 -4.5s14.167 -5.16699 19.5 -9.5s8 -10.166 8 -17.499c0 -12 -5.5 -30.167 -16.5 -54.5s-25.667 -52.333 -44 -84s-39.333 -66 -63 -103l-72.5 -113l-73 -113.5l-65 -104
c12 0.666992 29.5 1.16699 52.5 1.5s44.5 0.5 64.5 0.5c19.333 0 43.833 -0.333008 73.5 -1s60.167 -2.33398 91.5 -5.00098c16 -1.33301 28.333 -3 37 -5s15.334 -4.83301 20.001 -8.5s7.5 -8.16699 8.5 -13.5s1.5 -12 1.5 -20c0 -5.33301 -0.333008 -10 -1 -14
s-3 -7.5 -7 -10.5s-10.5 -5.33301 -19.5 -7s-21.833 -3.16699 -38.5 -4.5z" />
    <glyph glyph-name="bracketleft" unicode="[" horiz-adv-x="409" 
d="M145 771c0.666992 -34 1.5 -69.832 2.5 -107.499s1.83301 -75.5 2.5 -113.5s1.16699 -75.833 1.5 -113.5s0.5 -73.834 0.5 -108.501c0 -62.667 -0.5 -125 -1.5 -187s-2.83301 -125 -5.5 -189c24.667 0 46.5 -0.166992 65.5 -0.5s35.833 -0.666016 50.5 -0.999023
s27.834 -0.833008 39.501 -1.5s22.5 -1.33398 32.5 -2.00098c27.333 -1.33301 45.166 -6 53.499 -14s12.5 -18 12.5 -30c0 -6.66699 -0.5 -12.5 -1.5 -17.5s-3.83301 -9.5 -8.5 -13.5s-11.334 -7.33301 -20.001 -10s-21 -4.66699 -37 -6
c-19.333 -1.33301 -37.333 -2.33301 -54 -3s-34.667 -1 -54 -1c-43.333 0 -76.833 4.33301 -100.5 13s-41 23.5 -52 44.5s-17.333 49 -19 84s-2.5 78.833 -2.5 131.5v473c0 52.667 0.833008 96.5 2.5 131.5s8 63 19 84s28.333 35.833 52 44.5s57.167 13 100.5 13
c19.333 0 37.333 -0.333008 54 -1s34.667 -1.66699 54 -3c16 -1.33301 28.333 -3.33301 37 -6s15.334 -6 20.001 -10s7.5 -8.5 8.5 -13.5s1.5 -10.833 1.5 -17.5c0 -12 -4.16699 -22 -12.5 -30s-26.166 -12.667 -53.499 -14c-10 -0.666992 -20.833 -1.33398 -32.5 -2.00098
s-24.834 -1.16699 -39.501 -1.5s-31.5 -0.666016 -50.5 -0.999023s-40.833 -0.5 -65.5 -0.5z" />
    <glyph glyph-name="backslash" unicode="\" horiz-adv-x="441" 
d="M372 61c4 -16 5.99902 -28.666 5.99902 -37.999c0 -15.333 -4.66699 -26.333 -14 -33s-20 -10 -32 -10c-7.33301 0 -14.666 3.66699 -21.999 11s-15 21.666 -23 42.999c-41.333 112 -80.333 224.5 -117 337.5s-70.667 224.833 -102 335.5
c-2 7.33301 -3.33301 13.666 -4 18.999s-1 10.333 -1 15c0 14 4.16699 24.333 12.5 31s17.5 10 27.5 10s19.167 -4.83301 27.5 -14.5s17 -24.167 26 -43.5s18.667 -44.166 29 -74.499l35.5 -106.5l45.5 -141l42 -131.5l35.5 -116z" />
    <glyph glyph-name="bracketright" unicode="]" horiz-adv-x="409" 
d="M264 771c-24.667 0 -46.5 0.166016 -65.5 0.499023s-35.833 0.666016 -50.5 0.999023s-27.834 0.833008 -39.501 1.5s-22.5 1.33398 -32.5 2.00098c-27.333 1.33301 -45.166 6 -53.499 14s-12.5 18 -12.5 30c0 6.66699 0.5 12.5 1.5 17.5s3.83301 9.5 8.5 13.5
s11.334 7.33301 20.001 10s21 4.66699 37 6c19.333 1.33301 37.333 2.33301 54 3s34.667 1 54 1c43.333 0 76.833 -4.33301 100.5 -13s41 -23.5 52 -44.5s17.333 -49 19 -84s2.5 -78.833 2.5 -131.5v-473c0 -52.667 -0.833008 -96.5 -2.5 -131.5s-8 -63 -19 -84
s-28.333 -35.833 -52 -44.5s-57.167 -13 -100.5 -13c-19.333 0 -37.333 0.333008 -54 1s-34.667 1.66699 -54 3c-16 1.33301 -28.333 3.33301 -37 6s-15.334 6 -20.001 10s-7.5 8.5 -8.5 13.5s-1.5 10.833 -1.5 17.5c0 12 4.16699 22 12.5 30s26.166 12.667 53.499 14
c10 0.666992 20.833 1.33398 32.5 2.00098s24.834 1.16699 39.501 1.5s31.5 0.666016 50.5 0.999023s40.833 0.5 65.5 0.5c-2.66699 64 -4.5 127 -5.5 189s-1.5 124.333 -1.5 187c0 34.667 0.166992 70.834 0.5 108.501s0.833008 75.5 1.5 113.5l2 113.5
c0.666992 37.667 1.66699 73.5 3 107.5z" />
    <glyph glyph-name="asciicircum" unicode="^" horiz-adv-x="626" 
d="M315 751c4.66699 0 13.333 -4.99902 26 -14.999s27.334 -22.667 44.001 -38l53.5 -51l54 -54l45.5 -47l29 -30c7.33301 -8 13.166 -15.833 17.499 -23.5s6.5 -15.834 6.5 -24.501c0 -11.333 -3.5 -21.333 -10.5 -30s-17.167 -13 -30.5 -13
c-3.33301 0 -10 4.16699 -20 12.5s-21.667 19.166 -35 32.499l-43.5 44.5l-45.5 48l-41 43l-30 30.5l-20 19l-20 -19c-8 -7.33301 -18.167 -17.5 -30.5 -30.5l-40 -43l-44.5 -48l-43 -44.5c-13.333 -13.333 -24.833 -24.166 -34.5 -32.499s-16.5 -12.5 -20.5 -12.5
c-12 0 -21.833 3.83301 -29.5 11.5s-11.5 17.167 -11.5 28.5s3.66699 22 11 32s15.333 19.333 24 28l33 35l45.5 47l50 50.5l48 46.5c15 14 28 25.333 39 34s18.833 13 23.5 13z" />
    <glyph glyph-name="underscore" unicode="_" horiz-adv-x="610" 
d="M534 -20c-46 -1.33301 -102.501 -2.49902 -169.501 -3.49902s-143.167 -1.5 -228.5 -1.5c-45.333 0 -77.666 2.66699 -96.999 8s-29 19 -29 41c0 6 0.666992 11.5 2 16.5s4.33301 9.66699 9 14s11.167 7.83301 19.5 10.5s19.166 4.66699 32.499 6l43.5 2
c15 0.666992 32 1.16699 51 1.5s40.833 0.5 65.5 0.5h87c36 0 71.667 -0.166992 107 -0.5s70.666 -1.5 105.999 -3.5c16 -0.666992 28.333 -2.33398 37 -5.00098s15.334 -6 20.001 -10s7.5 -8.66699 8.5 -14s1.5 -11.333 1.5 -18c0 -12 -4.16699 -22 -12.5 -30
s-26.166 -12.667 -53.499 -14z" />
    <glyph glyph-name="grave" unicode="`" horiz-adv-x="378" 
d="M296 584c-10 0 -22.6641 2.33398 -37.9971 7.00098s-31.5 10.667 -48.5 18s-34.167 15.833 -51.5 25.5s-33 19.5 -47 29.5s-25.333 19.833 -34 29.5s-13 18.5 -13 26.5c0 12.667 4 22 12 28s17.667 9 29 9c12.667 0 31.167 -5.33301 55.5 -16s48.666 -23.667 72.999 -39
s45.666 -31.333 63.999 -48s28.166 -31.334 29.499 -44.001c0 -10 -3.33301 -16.5 -10 -19.5s-13.667 -5.16699 -21 -6.5z" />
    <glyph glyph-name="a" unicode="a" horiz-adv-x="573" 
d="M471 -4c-10.667 0 -19.1699 1.83496 -25.5029 5.50195s-11.166 8.5 -14.499 14.5s-5.66602 13.167 -6.99902 21.5s-2.33301 17.166 -3 26.499c-16.667 -20.667 -38.167 -38 -64.5 -52s-59.833 -21 -100.5 -21c-26 0 -52.5 3.83301 -79.5 11.5s-51.5 21 -73.5 40
s-40 44.5 -54 76.5s-21 72.333 -21 121c0 38 4.66699 73.667 14 107s23.5 62.5 42.5 87.5s42.833 44.833 71.5 59.5s62.334 22 101.001 22c34 0 64.333 -6.16699 91 -18.5s50.667 -32.5 72 -60.5c0 8 0.333008 16.167 1 24.5s2.5 16 5.5 23s7.83301 12.667 14.5 17
s15.667 6.5 27 6.5c10 0 19.333 -4 28 -12s13.667 -25.333 15 -52c2 -35.333 3.5 -67 4.5 -95s1.5 -57 1.5 -87c0 -36.667 -0.333008 -70.334 -1 -101.001s-2.33398 -63.334 -5.00098 -98.001c-1.33301 -15.333 -3.16602 -27.5 -5.49902 -36.5
s-5.16602 -15.667 -8.49902 -20s-7.33301 -7.16602 -12 -8.49902s-9.33398 -2 -14.001 -2zM416.997 250.002c0 34.667 -5.16797 63 -15.501 85s-23.333 39.167 -39 51.5s-32.5 20.833 -50.5 25.5s-34.667 7 -50 7c-24 0 -44.5 -4.33301 -61.5 -13s-30.833 -20.5 -41.5 -35.5
s-18.5 -32.667 -23.5 -53s-7.5 -42.5 -7.5 -66.5c0 -58.667 12.833 -102 38.5 -130s60.5 -42 104.5 -42c26 0 48.167 4.5 66.5 13.5s33.333 21.167 45 36.5s20.334 33.5 26.001 54.5s8.5 43.167 8.5 66.5z" />
    <glyph glyph-name="b" unicode="b" horiz-adv-x="591" 
d="M171 654c0 -40 -1.16797 -81.833 -3.50098 -125.5s-5.16602 -86.167 -8.49902 -127.5c8.66699 18 20 33.5 34 46.5s29.5 23.5 46.5 31.5s34.833 14 53.5 18s36.667 6 54 6c30 0 58.167 -5.5 84.5 -16.5s49.333 -27 69 -48s35 -47 46 -78s16.5 -66.5 16.5 -106.5
c0 -38.667 -5.66699 -74 -17 -106s-28.166 -59.5 -50.499 -82.5s-50 -40.833 -83 -53.5s-70.833 -19 -113.5 -19c-58 0 -103.5 11.667 -136.5 35s-57.5 54.5 -73.5 93.5s-25.833 83.833 -29.5 134.5s-5.5 103.667 -5.5 159c0 56 1 106.667 3 152s5 82 9 110
c4 25.333 10.667 43.333 20 54s21.666 16 36.999 16c11.333 0 20.333 -2.5 27 -7.5s11.5 -11.833 14.5 -20.5s4.83301 -18.5 5.5 -29.5s1 -22.833 1 -35.5zM318.999 404c-19.333 0 -37.833 -3.16992 -55.5 -9.50293s-33.334 -16.166 -47.001 -29.499
s-24.5 -30.166 -32.5 -50.499s-12 -44.833 -12 -73.5c0 -50.667 12.5 -89.167 37.5 -115.5s58.5 -39.5 100.5 -39.5c17.333 0 35 2.5 53 7.5s34.333 13.667 49 26s26.667 28.833 36 49.5s14 46.334 14 77.001c0 27.333 -3.83301 51 -11.5 71s-18.167 36.5 -31.5 49.5
s-28.666 22.5 -45.999 28.5s-35.333 9 -54 9z" />
    <glyph glyph-name="c" unicode="c" horiz-adv-x="497" 
d="M289 510c19.333 0 38.834 -1.66504 58.501 -4.99805s37.5 -8 53.5 -14s29 -13.333 39 -22s15 -18.667 15 -30c0 -29.333 -16.667 -44 -50 -44c-8 0 -15.5 1.16699 -22.5 3.5s-15.167 4.66602 -24.5 6.99902s-21 4.66602 -35 6.99902s-31.333 3.5 -52 3.5
c-44 0 -78 -15 -102 -45s-36 -69 -36 -117c0 -52.667 12.167 -95 36.5 -127s58.833 -48 103.5 -48c28 0 50.667 2.33301 68 7s31.5 10 42.5 16s20 11.333 27 16s14.833 7 23.5 7c12 0 21.5 -2.5 28.5 -7.5s10.5 -15.167 10.5 -30.5c0 -16 -6.16699 -30 -18.5 -42
s-27.833 -22 -46.5 -30s-38.834 -14 -60.501 -18s-41.5 -6 -59.5 -6c-80.667 0 -144 22.333 -190 67s-69 108 -69 190c0 35.333 5.5 68.833 16.5 100.5s27.5 59.5 49.5 83.5s49.167 43 81.5 57s69.833 21 112.5 21z" />
    <glyph glyph-name="d" unicode="d" horiz-adv-x="564" 
d="M478 2c-13.333 0 -24.499 5.33301 -33.499 16s-15.167 23 -18.5 37c-8 -7.33301 -17.167 -14.666 -27.5 -21.999s-22.166 -14.166 -35.499 -20.499s-28 -11.5 -44 -15.5s-33.333 -6 -52 -6c-22.667 0 -47.834 3.83301 -75.501 11.5s-53.667 21 -78 40
s-44.666 44.833 -60.999 77.5s-24.5 73.667 -24.5 123c0 42 6.33301 79.333 19 112s30.5 60.167 53.5 82.5s50.333 39.333 82 51s66.167 17.5 103.5 17.5c32 0 57.333 -3.66699 76 -11s33.334 -16 44.001 -26v61.5c0 23 0.166992 45.333 0.5 67s0.666016 41.5 0.999023 59.5
s0.833008 31.667 1.5 41c1.33301 22.667 5.33301 38.167 12 46.5s18.334 12.5 35.001 12.5c17.333 0 29.166 -4.16699 35.499 -12.5s10.166 -22.833 11.499 -43.5c0.666992 -8.66699 1.16699 -20.334 1.5 -35.001s0.5 -30.667 0.5 -48s0.166992 -34.833 0.5 -52.5
s0.5 -33.667 0.5 -48v-35.5v-14c0 -68 -0.5 -130.667 -1.5 -188s-1.5 -103 -1.5 -137c1.33301 -7.33301 4.16602 -14.333 8.49902 -21s9 -13.334 14 -20.001s9.5 -13.667 13.5 -21s6 -15 6 -23c0 -9.33301 -2.33301 -17.5 -7 -24.5s-10.5 -12.833 -17.5 -17.5
s-14.333 -8.16699 -22 -10.5s-14.5 -3.5 -20.5 -3.5zM285.001 90c41.333 0 72.999 12.332 94.999 36.999s33 65.334 33 122.001c0 108.667 -43 163 -129 163c-20 0 -39.333 -3 -58 -9s-35.167 -15.333 -49.5 -28s-26 -28.667 -35 -48s-13.5 -42.333 -13.5 -69
c0 -22 3.16699 -43 9.5 -63s16 -37.833 29 -53.5s29.333 -28.167 49 -37.5s42.834 -14 69.501 -14z" />
    <glyph glyph-name="e" unicode="e" horiz-adv-x="535" 
d="M292 184c-23.333 0 -47.8301 1.83301 -73.4971 5.5s-53.5 11.5 -83.5 23.5c6 -40.667 22.833 -71.334 50.5 -92.001s67.5 -31 119.5 -31c18.667 0 35.5 1.16699 50.5 3.5s28.167 5 39.5 8l30 8c8.66699 2.33301 16.667 3.5 24 3.5c9.33301 0 18.333 -2.83301 27 -8.5
s13 -15.167 13 -28.5c0 -16.667 -6.83301 -30.334 -20.5 -41.001s-30.334 -19.167 -50.001 -25.5s-40.5 -10.666 -62.5 -12.999s-41.333 -3.5 -58 -3.5c-39.333 0 -75.5 5.33301 -108.5 16s-61.5 26.834 -85.5 48.501s-42.667 48.5 -56 80.5s-20 69.333 -20 112
c0 41.333 6.5 78 19.5 110s30.833 59 53.5 81s49.5 38.667 80.5 50s64.5 17 100.5 17c28 0 55.167 -3.66699 81.5 -11s49.666 -18.333 69.999 -33s36.666 -33.167 48.999 -55.5s18.5 -48.5 18.5 -78.5c0 -26.667 -5 -49.334 -15 -68.001s-24.167 -33.667 -42.5 -45
s-40.333 -19.666 -66 -24.999s-54.167 -8 -85.5 -8zM285.003 416c-18 0 -35.333 -2.16602 -52 -6.49902s-31.834 -11.333 -45.501 -21s-25.167 -22.334 -34.5 -38.001s-15.666 -35.167 -18.999 -58.5c25.333 -11.333 50 -19.166 74 -23.499s49.333 -6.5 76 -6.5
c39.333 0 68.5 4.83301 87.5 14.5s28.5 27.167 28.5 52.5c0 23.333 -8.83301 43.666 -26.5 60.999s-47.167 26 -88.5 26z" />
    <glyph glyph-name="f" unicode="f" horiz-adv-x="295" 
d="M85 406c-7.33301 -0.666992 -14.498 -1.16602 -21.498 -1.49902s-13.833 -0.5 -20.5 -0.5c-22 0 -38.5 3.5 -49.5 10.5s-16.5 20.5 -16.5 40.5c0 15.333 4.16699 27.5 12.5 36.5s24.833 13.5 49.5 13.5c15.333 0 31 -1 47 -3v58c0 26.667 3 52 9 76
s15.333 45.167 28 63.5s29.167 33 49.5 44s45.166 16.5 74.499 16.5c26.667 0 45.334 -3.83301 56.001 -11.5s16 -20.167 16 -37.5s-7 -28 -21 -32s-30 -6 -48 -6c-22 0 -38.5 -9.66699 -49.5 -29s-16.5 -43 -16.5 -71v-70c8.66699 2 17.167 3.16699 25.5 3.5
s17.166 0.5 26.499 0.5c24.667 0 42.167 -4 52.5 -12s15.5 -20.667 15.5 -38c0 -22 -7 -36.167 -21 -42.5s-32.667 -9.5 -56 -9.5h-20.5c-7.66699 0 -15.167 0.666992 -22.5 2v-344c0 -16 -1.33301 -28.333 -4 -37s-6.33398 -15.334 -11.001 -20.001s-10 -7.5 -16 -8.5
s-12.333 -1.5 -19 -1.5c-6 0 -12 0.833008 -18 2.5s-11.167 5 -15.5 10s-8 11.833 -11 20.5s-4.5 19.667 -4.5 33v344z" />
    <glyph glyph-name="g" unicode="g" horiz-adv-x="558" 
d="M258 -137c31.333 0 57.835 6.16309 79.502 18.4961s39.167 30 52.5 53s22.833 50.667 28.5 83s8.5 68.833 8.5 109.5c-6 -21.333 -14.667 -39.333 -26 -54s-24.5 -26.5 -39.5 -35.5s-31.833 -15.5 -50.5 -19.5s-38 -6 -58 -6c-30.667 0 -59.667 4.33301 -87 13
s-51.166 22.334 -71.499 41.001s-36.5 42.5 -48.5 71.5s-18 63.833 -18 104.5c0 39.333 5.83301 75.5 17.5 108.5s28.667 61.5 51 85.5s49.5 42.667 81.5 56s68.667 20 110 20c22 0 41.5 -2 58.5 -6s32.167 -9.33301 45.5 -16s25.166 -14.667 35.499 -24
s19.833 -19.333 28.5 -30c25.333 -32 43.666 -69.833 54.999 -113.5s17 -96.167 17 -157.5c0 -45.333 -3.83301 -91.666 -11.5 -138.999s-21.5 -90.166 -41.5 -128.499s-47.667 -69.666 -83 -93.999s-80.666 -36.5 -135.999 -36.5c-10 0 -21.167 0.5 -33.5 1.5
s-25 2.5 -38 4.5s-25.833 4.83301 -38.5 8.5s-24.334 8.5 -35.001 14.5c-13.333 7.33301 -24 14.333 -32 21s-12 17.667 -12 33c0 12.667 2.83301 24.167 8.5 34.5s15.5 15.5 29.5 15.5c6.66699 0 14 -2 22 -6s17.833 -8.16699 29.5 -12.5s25.667 -8.5 42 -12.5
s36.166 -6 59.499 -6zM263.002 102.996c26 0 48.166 4.83398 66.499 14.501s33.333 22.5 45 38.5s20.334 34 26.001 54s8.5 40 8.5 60c0 16.667 -2.16699 33.5 -6.5 50.5s-11.5 32.5 -21.5 46.5s-23.667 25.333 -41 34s-39 13 -65 13c-44 0 -79.5 -13.333 -106.5 -40
s-40.5 -66 -40.5 -118c0 -48.667 12 -86.334 36 -113.001s57 -40 99 -40z" />
    <glyph glyph-name="h" unicode="h" horiz-adv-x="555" 
d="M295 411c-24.667 0 -46.8311 -3.66406 -66.498 -10.9971s-41.834 -17.333 -66.501 -30v-19c0 -12 -0.166992 -27.333 -0.5 -46s-0.666016 -39.5 -0.999023 -62.5l-1 -69c-0.333008 -23 -1 -44.833 -2 -65.5l-2.5 -52c-1.33301 -14 -2.83301 -25 -4.5 -33
s-3.66699 -13.833 -6 -17.5s-5.5 -5.83398 -9.5 -6.50098s-8.33301 -1 -13 -1c-11.333 0 -20.166 0.5 -26.499 1.5s-11.5 3.33301 -15.5 7s-6.83301 9.16699 -8.5 16.5s-3.16699 17.333 -4.5 30s-2.5 30.167 -3.5 52.5s-1.83301 47.333 -2.5 75s-1.16699 57.167 -1.5 88.5
s-0.5 62.333 -0.5 93s0.166992 63.167 0.5 97.5s0.833008 67.333 1.5 99s1.33398 60 2.00098 85s1.66699 43.5 3 55.5c1.33301 17.333 4.5 32.333 9.5 45s16.167 19 33.5 19c13.333 0 24.166 -4.66699 32.499 -14s13.166 -27 14.499 -53
c1.33301 -23.333 2.5 -55.833 3.5 -97.5s1.83301 -88.5 2.5 -140.5c9.33301 7.33301 20.666 14.166 33.999 20.499s27.333 11.666 42 15.999s29.667 7.83301 45 10.5s29.666 4 42.999 4c32 0 59.833 -7.5 83.5 -22.5s42.5 -36.5 56.5 -64.5
c9.33301 -18 16.333 -37.833 21 -59.5s8 -44.5 10 -68.5l2 -31.5c0.666992 -10.333 1.16699 -21.333 1.5 -33s0.5 -24.834 0.5 -39.501v-52c0 -20 -0.333008 -38.5 -1 -55.5s-2.5 -31.667 -5.5 -44s-7.83301 -22 -14.5 -29s-16 -10.5 -28 -10.5
c-17.333 0 -30.166 5.5 -38.499 16.5s-12.5 24.167 -12.5 39.5v21c0 13.333 -0.166992 28.833 -0.5 46.5l-1 53.5c-0.333008 18 -0.833008 32.667 -1.5 44c-0.666992 10.667 -1.5 22.167 -2.5 34.5s-2.33301 24.833 -4 37.5s-3.83398 24.834 -6.50098 36.501
s-6 22.167 -10 31.5c-9.33301 22 -21 36 -35 42s-29 9 -45 9z" />
    <glyph glyph-name="i" unicode="i" horiz-adv-x="226" 
d="M68 62c-1.33301 24.667 -2.50098 52.834 -3.50098 84.501s-1.5 66.5 -1.5 104.5c0 47.333 0.333008 87.833 1 121.5s2.5 61.334 5.5 83.001s7.83301 37.667 14.5 48s16 15.5 28 15.5c11.333 0 21.333 -4 30 -12s13.667 -25.333 15 -52c4 -70 6 -137.667 6 -203
c0 -33.333 -0.666992 -64.5 -2 -93.5s-2.66602 -60.833 -3.99902 -95.5c-0.666992 -16 -2.16699 -28.333 -4.5 -37s-5.5 -15.334 -9.5 -20.001s-8.5 -7.5 -13.5 -8.5s-10.833 -1.5 -17.5 -1.5c-12 0 -22 4.16699 -30 12.5s-12.667 26.166 -14 53.499zM112.999 700
c15.333 0 29.5 -6 42.5 -18s19.5 -26.333 19.5 -43c0 -16 -6.66699 -29.833 -20 -41.5s-28.333 -17.5 -45 -17.5c-14 0 -27.167 5.83301 -39.5 17.5s-18.5 26.167 -18.5 43.5c0 16 6.16699 29.833 18.5 41.5s26.5 17.5 42.5 17.5z" />
    <glyph glyph-name="j" unicode="j" horiz-adv-x="225" 
d="M161 -60c0 -26.667 -2.99805 -52 -8.99805 -76s-15.333 -45.167 -28 -63.5s-29.334 -33 -50.001 -44s-45.334 -16.5 -74.001 -16.5c-26.667 0 -45.334 3.83301 -56.001 11.5s-16 20.167 -16 37.5s7 28 21 32s30 6 48 6c22 0 38.5 9.66699 49.5 29s16.5 43 16.5 71v515
c0 16 1.33301 28.333 4 37s6.33398 15.334 11.001 20.001s10 7.5 16 8.5s12.333 1.5 19 1.5c12 0 23.167 -4.33301 33.5 -13s15.5 -26.334 15.5 -53.001zM112.002 712c15.333 0 29.5 -6 42.5 -18s19.5 -26.333 19.5 -43c0 -16 -6.66699 -29.833 -20 -41.5
s-28.333 -17.5 -45 -17.5c-14 0 -27.167 5.83301 -39.5 17.5s-18.5 26.167 -18.5 43.5c0 16 6.16699 29.833 18.5 41.5s26.5 17.5 42.5 17.5z" />
    <glyph glyph-name="k" unicode="k" horiz-adv-x="528" 
d="M65 53c-1.33301 14.667 -2.3291 36.8271 -2.99609 66.4941s-1.33398 64 -2.00098 103s-1 81.5 -1 127.5v141c0 56.667 0.333008 103 1 139s2.66699 64.333 6 85s8.66602 34.834 15.999 42.501s18 11.5 32 11.5c12 0 20.667 -3.83301 26 -11.5s9.33301 -24.5 12 -50.5
c1.33301 -16 2.5 -37.5 3.5 -64.5s1.66699 -56.5 2 -88.5l1 -100c0.333008 -34.667 0.5 -67.667 0.5 -99v-81l222 201c7.33301 6.66699 16.166 13.167 26.499 19.5s21.166 9.5 32.499 9.5c13.333 0 23.333 -5.16699 30 -15.5s10 -22.166 10 -35.499
c0 -7.33301 -1.16699 -14.166 -3.5 -20.499s-7.16602 -12.166 -14.499 -17.499l-135 -111l164 -238c6 -8 9 -17 9 -27c0 -14.667 -4.66699 -25.667 -14 -33s-21.333 -11 -36 -11c-10.667 0 -20 2 -28 6s-15.667 11.667 -23 23l-150 217l-91 -75
c-0.666992 -24.667 -1.33398 -46.667 -2.00098 -66s-1.66699 -34.666 -3 -45.999c-2.66699 -23.333 -7 -38.666 -13 -45.999s-16.667 -11 -32 -11s-25.833 3.66699 -31.5 11s-9.5 22.333 -11.5 45z" />
    <glyph glyph-name="l" unicode="l" horiz-adv-x="224" 
d="M67 58c-0.666992 24 -1.33496 52.0039 -2.00195 84.0039s-1.16699 66.667 -1.5 104s-0.666016 76.666 -0.999023 117.999s-0.5 83.666 -0.5 126.999c0 47.333 0.333008 88 1 122s2.5 62 5.5 84s7.83301 38.167 14.5 48.5s16 15.5 28 15.5
c11.333 0 21.333 -3.66699 30 -11s13.667 -24.333 15 -51c2.66699 -48 4.33398 -97.833 5.00098 -149.5s1 -102.5 1 -152.5v-86.5c0 -27.667 -0.333008 -55 -1 -82l-2 -82.5c-0.666992 -28 -1.66699 -57 -3 -87c-0.666992 -16 -2.16699 -28.333 -4.5 -37
s-5.5 -15.334 -9.5 -20.001s-8.5 -7.5 -13.5 -8.5s-10.833 -1.5 -17.5 -1.5c-12 0 -22 4.16699 -30 12.5s-12.667 26.166 -14 53.499z" />
    <glyph glyph-name="m" unicode="m" horiz-adv-x="883" 
d="M735 30c-4 11.333 -6.50098 24.0078 -7.50098 38.0078s-1.5 31.333 -1.5 52c0 14.667 0.166992 26.167 0.5 34.5s0.5 15.666 0.5 21.999s0.166992 12.666 0.5 18.999s0.5 15.166 0.5 26.499c0 23.333 -0.5 46.833 -1.5 70.5s-4.5 45 -10.5 64s-15.333 34.5 -28 46.5
s-31 18 -55 18c-40.667 0 -72.334 -19.333 -95.001 -58s-36.334 -100.334 -41.001 -185.001c-1.33301 -26.667 -2 -51 -2 -73s-1.33301 -40.833 -4 -56.5s-7.5 -27.834 -14.5 -36.501s-18.5 -13 -34.5 -13c-14.667 0 -25.334 3.83301 -32.001 11.5s-11.5 19.167 -14.5 34.5
s-4.66699 34 -5 56s-1.5 47.667 -3.5 77c-2 32 -5.16699 62.667 -9.5 92s-11.333 55.166 -21 77.499s-22.667 40.166 -39 53.499s-37.166 20 -62.499 20c-24 0 -42.5 -5.83301 -55.5 -17.5s-22.5 -27 -28.5 -46s-9.5 -40.333 -10.5 -64s-1.5 -47.5 -1.5 -71.5
c0 -12 0.166992 -20.833 0.5 -26.5s0.5 -10.834 0.5 -15.501s0.166992 -10.667 0.5 -18s0.5 -18.666 0.5 -33.999c0 -22 -0.5 -41 -1.5 -57s-3.5 -29.667 -7.5 -41c-4.66699 -13.333 -11 -21.5 -19 -24.5s-15.333 -4.5 -22 -4.5c-20.667 0 -34 7.33301 -40 22
s-9.33301 36 -10 64c0 15.333 -0.166992 32.5 -0.5 51.5s-0.5 42.167 -0.5 69.5v35c0 10 0.166992 19.667 0.5 29l1 28.5c0.333008 9.66699 0.833008 20.834 1.5 33.501c2 40.667 9.33301 73.167 22 97.5s27.667 42.833 45 55.5s36 20.834 56 24.501s38.333 5.5 55 5.5
c36 0 66.333 -5.33301 91 -16s44.834 -24.667 60.501 -42s27.334 -37 35.001 -59s12.834 -44.333 15.501 -67c2.66699 22 8.16699 43.833 16.5 65.5s20.666 41 36.999 58s37.5 30.833 63.5 41.5s58 16 96 16c18 0 36.5 -1.83301 55.5 -5.5s36.5 -11.834 52.5 -24.501
s29.5 -30.834 40.5 -54.501s17.5 -55.5 19.5 -95.5c0.666992 -12.667 1.16699 -23.834 1.5 -33.501l1 -28.5c0.333008 -9.33301 0.5 -19 0.5 -29v-35c0 -27.333 -0.166992 -50.5 -0.5 -69.5s-0.5 -36.167 -0.5 -51.5c0 -12.667 -0.5 -24.334 -1.5 -35.001
s-3.16699 -19.667 -6.5 -27s-8.16602 -13.166 -14.499 -17.499s-15.5 -6.5 -27.5 -6.5c-11.333 0 -20 2.16699 -26 6.5s-11 11.833 -15 22.5z" />
    <glyph glyph-name="n" unicode="n" horiz-adv-x="557" 
d="M296 426c-24.667 0 -46.832 -3.99805 -66.499 -11.998s-41.834 -20 -66.501 -36v-61.5c0 -27 -0.333008 -56.333 -1 -88l-2 -93.5c-0.666992 -30.667 -2 -56.334 -4 -77.001c-1.33301 -13.333 -2.83301 -23.833 -4.5 -31.5s-4 -13.5 -7 -17.5s-7 -6.5 -12 -7.5
s-11.5 -1.5 -19.5 -1.5s-14.5 0.5 -19.5 1.5s-9.16699 3.33301 -12.5 7s-6 9.16699 -8 16.5s-3.66699 17.333 -5 30c-1.33301 12 -2.5 28 -3.5 48s-1.83301 41.833 -2.5 65.5s-1.16699 47.667 -1.5 72s-0.5 46.833 -0.5 67.5c0 34 0.5 61.667 1.5 83s2.83301 40.333 5.5 57
c4 28 9.33301 45.667 16 53s15.667 11 27 11c16.667 0 29.167 -4.66699 37.5 -14s13.5 -24.666 15.5 -45.999c24.667 21.333 51.167 38.333 79.5 51s57.5 19 87.5 19c28.667 0 54.834 -6.66699 78.501 -20s43.167 -35 58.5 -65c9.33301 -18 16.333 -37.833 21 -59.5
s8 -44.5 10 -68.5l2 -31.5c0.666992 -10.333 1.16699 -21.333 1.5 -33s0.5 -24.834 0.5 -39.501v-52c0 -21.333 -0.333008 -41.333 -1 -60s-2.5 -34.834 -5.5 -48.501s-8.16699 -24.334 -15.5 -32.001s-17.333 -11.5 -30 -11.5c-30.667 0 -46.667 14.667 -48 44v25.5
c0 15 -0.166992 32.5 -0.5 52.5l-1 61c-0.333008 20.667 -0.833008 37.667 -1.5 51c-0.666992 10.667 -1.5 22.167 -2.5 34.5s-2.33301 24.833 -4 37.5s-3.83398 24.834 -6.50098 36.501s-6 22.167 -10 31.5c-9.33301 22 -21 36 -35 42s-29 9 -45 9z" />
    <glyph glyph-name="o" unicode="o" horiz-adv-x="564" 
d="M292 507c38 0 72 -5.83398 102 -17.501s55.5 -28.167 76.5 -49.5s37.167 -47.333 48.5 -78s17 -65 17 -103c0 -42 -6.5 -79.667 -19.5 -113s-31 -61.666 -54 -84.999s-50.333 -41.333 -82 -54s-66.167 -19 -103.5 -19c-40.667 0 -76.5 7 -107.5 21s-57 33 -78 57
s-36.833 51.667 -47.5 83s-16 64.333 -16 99c0 38 6.16699 72.833 18.5 104.5s30 59 53 82s50.833 40.833 83.5 53.5s69 19 109 19zM281 79.999c27.333 0 50.668 4.83105 70.001 14.498s35.166 22.5 47.499 38.5s21.333 34.167 27 54.5s8.5 41.5 8.5 63.5
c0 22.667 -2.83301 43.834 -8.5 63.501s-14.334 36.834 -26.001 51.501s-26.667 26.167 -45 34.5s-40.166 12.5 -65.499 12.5c-26 0 -48.667 -4.33301 -68 -13s-35.5 -20.5 -48.5 -35.5s-22.833 -32.833 -29.5 -53.5s-10 -43 -10 -67c0 -48.667 12.5 -88.167 37.5 -118.5
s61.833 -45.5 110.5 -45.5z" />
    <glyph glyph-name="p" unicode="p" horiz-adv-x="589" 
d="M170 -144c0 -12.667 -0.329102 -24.834 -0.996094 -36.501s-2.83398 -22.167 -6.50098 -31.5s-9 -16.833 -16 -22.5s-16.833 -8.5 -29.5 -8.5c-14.667 0 -26.834 5.16699 -36.501 15.5s-15.167 28.5 -16.5 54.5c-0.666992 16.667 -1.66699 37 -3 61s-2.5 49.333 -3.5 76
l-3 80c-1 26.667 -1.5 51.334 -1.5 74.001c0 78 5.5 142.333 16.5 193s27.5 91 49.5 121s49.167 51 81.5 63s69.833 18 112.5 18c34 0 66 -5.16699 96 -15.5s56.167 -26.333 78.5 -48s40.166 -49.667 53.499 -84s20 -75.5 20 -123.5c0 -40 -6.83301 -75.333 -20.5 -106
s-32.5 -56.5 -56.5 -77.5s-52.167 -37 -84.5 -48s-66.833 -16.5 -103.5 -16.5c-31.333 0 -59.5 6.5 -84.5 19.5s-42.833 27.167 -53.5 42.5c3.33301 -37.333 6.16602 -72 8.49902 -104s3.5 -64 3.5 -96zM308.004 413c-23.333 0 -43.5 -3.99805 -60.5 -11.998
s-30.833 -19 -41.5 -33s-18.5 -30.667 -23.5 -50s-7.5 -40.333 -7.5 -63c0 -22 2.16699 -42.833 6.5 -62.5s11.5 -36.834 21.5 -51.501s23.333 -26.334 40 -35.001s37 -13 61 -13c18.667 0 36.667 2.5 54 7.5s32.833 13.5 46.5 25.5s24.667 28 33 48s12.5 45 12.5 75
c0 30.667 -4.16699 56.5 -12.5 77.5s-19.333 38 -33 51s-29 22.167 -46 27.5s-33.833 8 -50.5 8z" />
    <glyph glyph-name="q" unicode="q" horiz-adv-x="588" 
d="M417 -149c0 32 1.16992 66.501 3.50293 103.501s5.16602 74.167 8.49902 111.5c-10.667 -20 -29 -35.833 -55 -47.5s-54.667 -17.5 -86 -17.5c-36.667 0 -70.834 5.33301 -102.501 16s-59.167 26.167 -82.5 46.5s-41.666 45.666 -54.999 75.999s-20 65.5 -20 105.5
c0 48 6.5 89.167 19.5 123.5s30.667 62.333 53 84s48.333 37.667 78 48s61.5 15.5 95.5 15.5c42.667 0 80.167 -6 112.5 -18s59.5 -33 81.5 -63s38.5 -70.333 49.5 -121s16.5 -115 16.5 -193c0 -22.667 -0.5 -47.834 -1.5 -75.501l-3 -82.5
c-1 -27.333 -2.16699 -53.5 -3.5 -78.5s-2.33301 -45.833 -3 -62.5c-1.33301 -26 -6.83301 -44.167 -16.5 -54.5s-21.834 -15.5 -36.501 -15.5c-12.667 0 -22.5 2.83301 -29.5 8.5s-12.333 13.167 -16 22.5s-5.83398 19.833 -6.50098 31.5s-1 23.834 -1 36.501z
M279.003 416.001c-17.333 0 -34.333 -2.66895 -51 -8.00195s-31.5 -14.5 -44.5 -27.5s-23.667 -30 -32 -51s-12.5 -46.833 -12.5 -77.5c0 -30 3.83301 -55 11.5 -75s18 -36 31 -48s28 -20.5 45 -25.5s34.833 -7.5 53.5 -7.5c24 0 44.5 4.33301 61.5 13
s30.667 20.334 41 35.001s17.833 31.834 22.5 51.501s7 40.5 7 62.5c0 46 -10.5 83.833 -31.5 113.5s-54.833 44.5 -101.5 44.5z" />
    <glyph glyph-name="r" unicode="r" horiz-adv-x="377" 
d="M66 61c-2.66699 23.333 -4.33301 51.6709 -5 85.0039s-1 73.666 -1 120.999c0 46.667 0.166992 84.334 0.5 113.001s2.16602 54 5.49902 76c3.33301 27.333 8.5 45 15.5 53s16.167 12 27.5 12c8 0 15.167 -0.666992 21.5 -2s12 -4.16602 17 -8.49902
s8.83301 -10.5 11.5 -18.5s4 -19 4 -33c0 -2.66699 0.333008 -5.33398 1 -8.00098c0 -2.66699 0.166992 -5.5 0.5 -8.5s0.5 -6.5 0.5 -10.5c18 22.667 38.5 42 61.5 58s49.167 24 78.5 24c39.333 0 59 -16.333 59 -49c0 -12 -2.5 -22 -7.5 -30s-12 -14.5 -21 -19.5
s-19.333 -8.83301 -31 -11.5s-24.5 -5.33398 -38.5 -8.00098c-21.333 -4 -41.333 -11.5 -60 -22.5s-31.334 -24.833 -38.001 -41.5c0 -12.667 0.166992 -22 0.5 -28s0.666016 -11 0.999023 -15s0.5 -8.33301 0.5 -13v-22c0 -34 -0.666992 -65.833 -2 -95.5
s-2.66602 -61.834 -3.99902 -96.501c-0.666992 -16 -2.5 -28.333 -5.5 -37s-6.66699 -15.334 -11 -20.001s-9.16602 -7.5 -14.499 -8.5s-10.666 -1.5 -15.999 -1.5c-18.667 0 -31.167 4.16699 -37.5 12.5s-10.833 26.166 -13.5 53.499z" />
    <glyph glyph-name="s" unicode="s" horiz-adv-x="460" 
d="M237 522c14 0 31.6699 -1.16992 53.0029 -3.50293s41.666 -6.66602 60.999 -12.999s36 -15.166 50 -26.499s21 -25.666 21 -42.999c0 -10 -2.83301 -18.667 -8.5 -26s-14.5 -11 -26.5 -11c-8.66699 0 -18.5 1.33301 -29.5 4s-23 5.83398 -36 9.50098
s-27 6.83398 -42 9.50098s-30.833 4 -47.5 4c-28 0 -50.833 -4.33301 -68.5 -13s-26.5 -22.334 -26.5 -41.001c0 -10.667 3.16699 -19.667 9.5 -27s15 -13.833 26 -19.5s24 -10.5 39 -14.5s30.833 -8 47.5 -12c20.667 -5.33301 41.167 -11.333 61.5 -18
s38.5 -15.834 54.5 -27.501s29 -26.334 39 -44.001s15 -39.5 15 -65.5c0 -49.333 -18.667 -88.5 -56 -117.5s-92.333 -43.5 -165 -43.5c-16 0 -35 1.16699 -57 3.5s-42.667 6.66602 -62 12.999s-35.833 15.333 -49.5 27s-20.5 27.167 -20.5 46.5
c0 13.333 3.16699 23.5 9.5 30.5s14.166 10.5 23.499 10.5c7.33301 0 15 -2.33301 23 -7s17.667 -9.66699 29 -15s25 -10.333 41 -15s35.667 -7 59 -7c8.66699 0 20 0.5 34 1.5s27.833 3.83301 41.5 8.5s25.334 11.167 35.001 19.5s14.5 20.166 14.5 35.499
c0 12 -3.33301 22.167 -10 30.5s-15.667 15.5 -27 21.5s-24.5 11.167 -39.5 15.5l-47.5 13.5c-19.333 5.33301 -38.833 11.333 -58.5 18s-37.5 15.334 -53.5 26.001s-29 24.167 -39 40.5s-15 36.5 -15 60.5c0 22.667 4.66699 43.834 14 63.501s22.666 36.834 39.999 51.501
s38.166 26 62.499 34s51.5 12 81.5 12z" />
    <glyph glyph-name="t" unicode="t" horiz-adv-x="397" 
d="M147 65c-2 42 -3.16895 91.835 -3.50195 149.502s-0.5 123.167 -0.5 196.5c-6.66699 -0.666992 -14.5 -1 -23.5 -1h-21.5c-12 0 -22.833 0.333008 -32.5 1s-18.167 2.66699 -25.5 6s-13 8.16602 -17 14.499s-6 15.166 -6 26.499c0 32 24 48 72 48h27
c10.667 0 19.667 -0.666992 27 -2c0 35.333 0.666992 63.666 2 84.999s3.83301 37.833 7.5 49.5s8.66699 19.334 15 23.001s14.5 5.5 24.5 5.5c10.667 0 19.334 -3.66699 26.001 -11s11.834 -16.666 15.501 -27.999s6 -24 7 -38s1.5 -27.667 1.5 -41
c0 -9.33301 -0.166992 -17.833 -0.5 -25.5s-0.5 -14.5 -0.5 -20.5c9.33301 2.66699 19 4.16699 29 4.5s19.667 0.5 29 0.5c24.667 0 43.667 -3.83301 57 -11.5s20 -20.167 20 -37.5c0 -10.667 -2.33301 -19.167 -7 -25.5s-10.834 -11.166 -18.501 -14.499
s-16.667 -5.5 -27 -6.5s-21.5 -1.5 -33.5 -1.5h-23c-8.66699 0 -16.667 0.666992 -24 2v-97c0 -29.333 -0.333008 -57.5 -1 -84.5l-2 -80.5c-0.666992 -26.667 -1.66699 -55 -3 -85c-0.666992 -16 -2.16699 -28.333 -4.5 -37s-5.5 -15.334 -9.5 -20.001
s-8.5 -7.5 -13.5 -8.5s-10.833 -1.5 -17.5 -1.5c-12 0 -22.167 4.16699 -30.5 12.5s-13.166 26.166 -14.499 53.499z" />
    <glyph glyph-name="u" unicode="u" horiz-adv-x="543" 
d="M149 453c1.33301 -17.333 1.83301 -38.333 1.5 -63s0 -50.5 1 -77.5s3.16699 -54 6.5 -81s9.16602 -51.167 17.499 -72.5s20 -38.666 35 -51.999s34.5 -20 58.5 -20s43.5 6.66699 58.5 20s26.667 30.666 35 51.999s14.166 45.5 17.499 72.5s5.5 54 6.5 81
s1.33301 52.833 1 77.5s0.166992 45.667 1.5 63c2.66699 41.333 19.667 62 51 62c12 0 21.333 -3.33301 28 -10s11.5 -16 14.5 -28s4.83301 -26.333 5.5 -43s1 -35.334 1 -56.001c0 -42.667 -2.16699 -86.834 -6.5 -132.501s-14 -87.5 -29 -125.5s-37.167 -69.333 -66.5 -94
s-68.666 -37 -117.999 -37s-88.666 12.333 -117.999 37s-51.5 56 -66.5 94s-24.667 79.833 -29 125.5s-6.5 89.834 -6.5 132.501c0 20.667 0.333008 39.334 1 56.001s2.5 31 5.5 43s7.83301 21.333 14.5 28s16 10 28 10c31.333 0 48.333 -20.667 51 -62z" />
    <glyph glyph-name="v" unicode="v" horiz-adv-x="484" 
d="M288 40c-14.667 -30.667 -32.3311 -46 -52.998 -46c-19.333 0 -36.333 15.333 -51 46c-5.33301 10.667 -11.333 24.167 -18 40.5l-21 53l-23 58.5c-8 20 -16 38.667 -24 56l-62 138c-14.667 33.333 -22 60 -22 80c0 11.333 3.5 20.666 10.5 27.999s16.5 11 28.5 11
c7.33301 0 15.166 -3 23.499 -9s16.833 -17.333 25.5 -34c25.333 -50.667 48.833 -102.167 70.5 -154.5l63.5 -159.5l63.5 159.5c21.667 52.333 45.167 103.833 70.5 154.5c8.66699 16.667 17.167 28 25.5 34s16.166 9 23.499 9c12 0 21.5 -3.66699 28.5 -11
s10.5 -16.666 10.5 -27.999c0 -20 -7.33301 -46.667 -22 -80l-62 -138c-8 -17.333 -16 -36 -24 -56l-23 -58.5l-21 -53c-6.66699 -16.333 -12.667 -29.833 -18 -40.5z" />
    <glyph glyph-name="w" unicode="w" horiz-adv-x="703" 
d="M304 378c4 8.66699 9.83008 15.1699 17.4971 19.5029s16.167 6.5 25.5 6.5c8 0 15.833 -2 23.5 -6s13.834 -10.333 18.501 -19c19.333 -36 36.833 -72.5 52.5 -109.5s32.5 -74.5 50.5 -112.5c16.667 54 31.334 106.167 44.001 156.5l39 148.5
c4.66699 17.333 11 28.833 19 34.5s18.333 8.5 31 8.5c11.333 0 20.666 -3.16699 27.999 -9.5s11 -14.833 11 -25.5c0 -8.66699 -2.16699 -23.834 -6.5 -45.501s-10 -46.667 -17 -75l-23 -90.5l-25 -92l-23.5 -80c-7.33301 -24 -13 -42 -17 -54
c-5.33301 -15.333 -11.666 -26.833 -18.999 -34.5s-18.666 -11.5 -33.999 -11.5c-14 0 -25.667 5.5 -35 16.5s-18 24.167 -26 39.5l-13 27l-21.5 45l-27 57l-29.5 63l-30.5 -63l-28.5 -57.5l-22.5 -45.5l-13.5 -27c-8 -15.333 -16.5 -28.5 -25.5 -39.5
s-20.833 -16.5 -35.5 -16.5c-23.333 0 -41 15.333 -53 46c-4.66699 12 -10.667 29.833 -18 53.5s-15 50.167 -23 79.5l-24 91.5c-8 31.667 -15.167 61.5 -21.5 89.5s-11.5 52.667 -15.5 74s-6 36.666 -6 45.999c0 11.333 3.16699 20.666 9.5 27.999s15.5 11 27.5 11
c13.333 0 24.166 -2.83301 32.499 -8.5s14.833 -17.167 19.5 -34.5l39 -148.5c12.667 -50.333 27.334 -102.5 44.001 -156.5l44 100c14.667 34.667 34 75 58 121z" />
    <glyph glyph-name="x" unicode="x" horiz-adv-x="506" 
d="M252 174l-76.498 -80.501l-53.5 -55c-14.667 -14.333 -26.834 -24.833 -36.501 -31.5s-18.5 -10 -26.5 -10c-9.33301 0 -18.5 4 -27.5 12s-13.5 16.667 -13.5 26c0 8 5.66699 20.167 17 36.5s25.333 34.5 42 54.5l54 62.5l53 61.5l-60.5 72c-19 23.333 -35.5 45 -49.5 65
s-25.167 37.667 -33.5 53s-12.5 27.333 -12.5 36s4.33301 16.167 13 22.5s16.667 9.5 24 9.5c6 0 16.333 -6.5 31 -19.5s31.167 -28.667 49.5 -47l56 -58.5l51.5 -55l49.5 54.5c18.333 20.333 36.5 39.5 54.5 57.5s34.667 33.333 50 46s27.333 19 36 19
c7.33301 0 14.666 -2.66699 21.999 -8s11 -12.333 11 -21s-4.16699 -20.667 -12.5 -36s-19.5 -33 -33.5 -53s-30.5 -41.667 -49.5 -65l-60.5 -72l54 -60.5l54 -63c16.667 -20.333 30.5 -38.666 41.5 -54.999s16.5 -28.5 16.5 -36.5c0 -9.33301 -4.5 -18 -13.5 -26
s-18.167 -12 -27.5 -12c-8.66699 0 -20.167 5.5 -34.5 16.5s-30.333 25 -48 42s-36 36 -55 57z" />
    <glyph glyph-name="y" unicode="y" horiz-adv-x="518" 
d="M178 -183c-8.66699 -15.333 -16.8369 -26.665 -24.5039 -33.998s-16.5 -11 -26.5 -11c-9.33301 0 -18.666 3 -27.999 9s-14 14.333 -14 25c0 10 3.5 24.333 10.5 43s15.667 39 26 61l32.5 68l31 64l7 15l-61.5 126l-57.5 127c-17.333 40 -31.5 74.833 -42.5 104.5
s-16.5 49.167 -16.5 58.5c0 8.66699 3.5 16.167 10.5 22.5s15.833 9.5 26.5 9.5c9.33301 0 18.333 -1.83301 27 -5.5s16.667 -11.834 24 -24.501c10.667 -20 21.834 -42.833 33.501 -68.5l35 -80.5l36 -85c12.333 -28.667 24.833 -56.334 37.5 -83.001l47 86l48.5 87
l43.5 77.5l34 59.5c9.33301 15.333 18.666 26.333 27.999 33s19 10 29 10c6.66699 0 13.334 -2.83301 20.001 -8.5s10 -13.167 10 -22.5c0 -14 -6.16699 -36.5 -18.5 -67.5s-28.166 -66.833 -47.499 -107.5s-41.166 -84.167 -65.499 -130.5l-72.5 -136l-68.5 -124.5z" />
    <glyph glyph-name="z" unicode="z" horiz-adv-x="464" 
d="M373 1c-22.667 -1.33301 -47.832 -2.49902 -75.499 -3.49902s-58.5 -1.5 -92.5 -1.5c-40.667 0 -73 0.333008 -97 1s-42.167 2.16699 -54.5 4.5s-20.333 5.83301 -24 10.5s-5.5 11.334 -5.5 20.001c0 16 5.16699 34.5 15.5 55.5s22.666 42 36.999 63
s28.666 40.5 42.999 58.5l33.5 43c22.667 30 45 56.667 67 80s46.333 47.666 73 72.999c-15.333 -1.33301 -32.833 -2 -52.5 -2h-56.5c-28 0 -51.5 0.333008 -70.5 1s-34.333 2.5 -46 5.5s-19.834 7.83301 -24.501 14.5s-7 16 -7 28c0 11.333 3.66699 21.166 11 29.499
s24.666 13.5 51.999 15.5c12 0.666992 21 1.5 27 2.5s11.333 1.66699 16 2s9.83398 0.666016 15.501 0.999023s14.167 0.5 25.5 0.5c27.333 0 54 -0.5 80 -1.5s53.333 -2.16699 82 -3.5c6.66699 0 14.167 -0.666992 22.5 -2s16.166 -3.66602 23.499 -6.99902
s13.5 -8 18.5 -14s7.5 -13.667 7.5 -23c0 -16 -8.66699 -37.333 -26 -64s-39.166 -56.167 -65.499 -88.5l-86 -102l-87.5 -103.5c7.33301 0.666992 16 1.16699 26 1.5s18.667 0.5 26 0.5c30 0 57.667 -0.5 83 -1.5l85 -3.5c16 -0.666992 28.333 -2.16699 37 -4.5
s15.334 -5.5 20.001 -9.5s7.5 -8.66699 8.5 -14s1.5 -11.333 1.5 -18c0 -12 -4.16699 -22 -12.5 -30s-26.166 -12.667 -53.499 -14z" />
    <glyph glyph-name="braceleft" unicode="{" horiz-adv-x="333" 
d="M249 458c0 -16 -1.83301 -34.5039 -5.5 -55.5039s-10.834 -40.167 -21.501 -57.5c10.667 -18 17.834 -37.833 21.501 -59.5s5.5 -40.167 5.5 -55.5s-1.33301 -29.833 -4 -43.5s-5.66699 -27.5 -9 -41.5s-6.33301 -28.667 -9 -44s-4 -32 -4 -50
c0 -8 1.16699 -15.167 3.5 -21.5s6.16602 -11.166 11.499 -14.499c4.66699 6 10.167 10.5 16.5 13.5s12.833 4.5 19.5 4.5c11.333 0 22.333 -4.66699 33 -14s16 -23.666 16 -42.999c0 -22.667 -8.5 -39.334 -25.5 -50.001s-35.833 -16 -56.5 -16
c-21.333 0 -39.333 4.5 -54 13.5s-26.5 20.333 -35.5 34s-15.5 28.667 -19.5 45s-6 31.833 -6 46.5c0 28 3.33301 56 10 84s12 54.667 16 80c0.666992 2.66699 1 6.66699 1 12c0 2.66699 -0.166992 6.83398 -0.5 12.501s-1 11.667 -2 18s-2 12.333 -3 18s-2.5 9.5 -4.5 11.5
c-11.333 -7.33301 -23 -11 -35 -11c-23.333 0 -40.5 7.5 -51.5 22.5s-16.5 31.167 -16.5 48.5s5.33301 33.333 16 48s26.667 22 48 22c11.333 0 24.333 -3.33301 39 -10c2 2 3.5 5.66699 4.5 11s2 11 3 17s1.66699 11.833 2 17.5s0.5 9.83398 0.5 12.501
c0 5.33301 -0.333008 9.33301 -1 12c-4 25.333 -9.33301 52 -16 80s-10 56 -10 84c0 14.667 2 30.167 6 46.5s10.5 31.333 19.5 45s20.833 25 35.5 34s32.667 13.5 54 13.5c20.667 0 39.5 -5.33301 56.5 -16s25.5 -27.334 25.5 -50.001
c0 -19.333 -5.33301 -33.666 -16 -42.999s-21.667 -14 -33 -14c-6.66699 0 -13.167 1.5 -19.5 4.5s-11.833 7.5 -16.5 13.5c-5.33301 -3.33301 -9.16602 -8.16602 -11.499 -14.499s-3.5 -13.5 -3.5 -21.5c0 -18 1.33301 -34.667 4 -50s5.66699 -30 9 -44
s6.33301 -27.833 9 -41.5s4 -28.167 4 -43.5z" />
    <glyph glyph-name="bar" unicode="|" horiz-adv-x="220" 
d="M65 3c-0.666992 28 -1.33398 60.668 -2.00098 98.001s-1.16699 77.833 -1.5 121.5s-0.666016 89.667 -0.999023 138s-0.5 97.5 -0.5 147.5c0 47.333 0.333008 87.833 1 121.5s2.5 61.167 5.5 82.5s7.83301 37 14.5 47s16 15 28 15c11.333 0 21.333 -3.66699 30 -11
s13.667 -24.333 15 -51c2.66699 -50.667 4.33398 -102.5 5.00098 -155.5s1 -106.167 1 -159.5c0 -67.333 -0.333008 -132.666 -1 -195.999s-2.33398 -129 -5.00098 -197c-0.666992 -16 -2.16699 -28.333 -4.5 -37s-5.5 -15.334 -9.5 -20.001s-8.5 -7.5 -13.5 -8.5
s-10.833 -1.5 -17.5 -1.5c-12 0 -22 4.16699 -30 12.5s-12.667 26.166 -14 53.499z" />
    <glyph glyph-name="braceright" unicode="}" horiz-adv-x="333" 
d="M84 458c0 15.333 1.33301 29.8369 4 43.5039s5.66699 27.5 9 41.5s6.33301 28.667 9 44s4 32 4 50c0 8 -1.16699 15.167 -3.5 21.5s-6.16602 11.166 -11.499 14.499c-9.33301 -12 -21.333 -18 -36 -18c-11.333 0 -22.333 4.66699 -33 14s-16 23.666 -16 42.999
c0 22.667 8.5 39.334 25.5 50.001s35.833 16 56.5 16c21.333 0 39.333 -4.5 54 -13.5s26.5 -20.333 35.5 -34s15.5 -28.667 19.5 -45s6 -31.833 6 -46.5c0 -28 -3.33301 -56 -10 -84s-12 -54.667 -16 -80c-0.666992 -2.66699 -1 -6.66699 -1 -12
c0 -2.66699 0.166992 -6.83398 0.5 -12.501s1 -11.5 2 -17.5s2 -11.667 3 -17s2.5 -9 4.5 -11c14.667 6.66699 27.667 10 39 10c21.333 0 37.333 -7.33301 48 -22s16 -30.667 16 -48s-5.5 -33.5 -16.5 -48.5s-28.167 -22.5 -51.5 -22.5c-12 0 -23.667 3.66699 -35 11
c-2 -2 -3.5 -5.83301 -4.5 -11.5s-2 -11.667 -3 -18s-1.66699 -12.333 -2 -18s-0.5 -9.83398 -0.5 -12.501c0 -5.33301 0.333008 -9.33301 1 -12c4 -25.333 9.33301 -52 16 -80s10 -56 10 -84c0 -14.667 -2 -30.167 -6 -46.5s-10.5 -31.333 -19.5 -45s-20.833 -25 -35.5 -34
s-32.667 -13.5 -54 -13.5c-20.667 0 -39.5 5.33301 -56.5 16s-25.5 27.334 -25.5 50.001c0 19.333 5.33301 33.666 16 42.999s21.667 14 33 14c14.667 0 26.667 -6 36 -18c5.33301 3.33301 9.16602 8.16602 11.499 14.499s3.5 13.5 3.5 21.5c0 18 -1.33301 34.667 -4 50
s-5.66699 30 -9 44s-6.33301 27.833 -9 41.5s-4 28.167 -4 43.5s1.83301 33.833 5.5 55.5s10.834 41.5 21.501 59.5c-10.667 17.333 -17.834 36.5 -21.501 57.5s-5.5 39.5 -5.5 55.5z" />
    <glyph glyph-name="asciitilde" unicode="~" horiz-adv-x="440" 
d="M158 223c-10.667 0 -19.999 -2.33496 -27.999 -7.00195s-15.5 -10 -22.5 -16s-14 -11.333 -21 -16s-14.5 -7 -22.5 -7c-8.66699 0 -15.834 3.5 -21.501 10.5s-8.5 16.167 -8.5 27.5c0 7.33301 2.83301 17 8.5 29s13.667 23.833 24 35.5s22.333 21.667 36 30
s28.5 12.5 44.5 12.5c19.333 0 35 -2.5 47 -7.5s22.667 -10.667 32 -17s18.5 -12 27.5 -17s20.167 -7.5 33.5 -7.5c20 0 35.333 2.66699 46 8s19.334 11.333 26.001 18s12.167 12.667 16.5 18s10.166 8 17.499 8c9.33301 0 18 -2.66699 26 -8s12 -13 12 -23
c0 -15.333 -3.5 -30.166 -10.5 -44.499s-16.833 -27.166 -29.5 -38.499s-28 -20.5 -46 -27.5s-38 -10.5 -60 -10.5c-14 0 -26.667 2.66699 -38 8s-22 11 -32 17l-28.5 17c-9 5.33301 -18.5 8 -28.5 8z" />
    <glyph glyph-name="uni00A0" unicode="&#xa0;" horiz-adv-x="209" 
 />
    <glyph glyph-name="exclamdown" unicode="&#xa1;" horiz-adv-x="223" 
d="M67 -184c-1.33301 24.667 -2.5 55.001 -3.5 91.001s-1.5 73 -1.5 111c0 47.333 0.333008 86.333 1 117s2.5 55 5.5 73s7.83301 30.5 14.5 37.5s16 10.5 28 10.5c11.333 0 21.333 -4 30 -12s13.667 -25.333 15 -52c0.666992 -17.333 1.5 -33 2.5 -47
s1.66699 -27.667 2 -41l1 -40c0.333008 -13.333 0.5 -28.333 0.5 -45c0 -33.333 -0.666992 -66.666 -2 -99.999l-4 -102c-0.666992 -16 -2.16699 -28.333 -4.5 -37s-5.5 -15.334 -9.5 -20.001s-8.5 -7.5 -13.5 -8.5s-10.833 -1.5 -17.5 -1.5c-12 0 -22 4.16699 -30 12.5
s-12.667 26.166 -14 53.499zM111 394.001c-16 0 -30.167 5.83301 -42.5 17.5s-18.5 25.5 -18.5 41.5c0 17.333 6.16699 31.833 18.5 43.5s25.5 17.5 39.5 17.5c16.667 0 31.667 -5.83301 45 -17.5s20 -25.5 20 -41.5c0 -16.667 -6.5 -31 -19.5 -43s-27.167 -18 -42.5 -18z
" />
    <glyph glyph-name="cent" unicode="&#xa2;" horiz-adv-x="497" 
d="M322 638c16.667 -1.33301 33 -4.00098 49 -8.00098s30.167 -8.83301 42.5 -14.5s22.333 -12.5 30 -20.5s11.5 -16.667 11.5 -26c0 -29.333 -16.667 -44 -50 -44c-8 0 -15.5 1.16699 -22.5 3.5s-15.167 4.66602 -24.5 6.99902s-21 4.66602 -35 6.99902
s-31.333 3.5 -52 3.5c-44 0 -78 -15 -102 -45s-36 -69 -36 -117c0 -52.667 12.167 -95 36.5 -127s58.833 -48 103.5 -48c28 0 50.667 2.33301 68 7s31.5 10 42.5 16s20 11.333 27 16s14.833 7 23.5 7c12 0 21.5 -2.5 28.5 -7.5s10.5 -15.167 10.5 -30.5
c0 -14 -4.66699 -26.333 -14 -37s-21.333 -19.834 -36 -27.501s-31 -14 -49 -19s-35.667 -8.5 -53 -10.5c0 -29.333 -0.833008 -52.166 -2.5 -68.499s-4.5 -28.5 -8.5 -36.5s-9 -13 -15 -15s-13 -3 -21 -3c-6 0 -11.833 0.833008 -17.5 2.5s-10.5 5 -14.5 10
s-7.33301 11.833 -10 20.5s-4 19.667 -4 33v60c-62.667 10.667 -111.5 37.5 -146.5 80.5s-52.5 100.167 -52.5 171.5c0 30.667 4.16699 60 12.5 88s20.666 53.333 36.999 76s36.833 42 61.5 58s53.334 27.333 86.001 34c1.33301 40.667 5.83301 70.167 13.5 88.5
s19.834 27.5 36.501 27.5c6 0 11.667 -0.666992 17 -2s10.166 -4.16602 14.499 -8.49902s7.83301 -10.666 10.5 -18.999s4 -19.166 4 -32.499v-50z" />
    <glyph glyph-name="sterling" unicode="&#xa3;" horiz-adv-x="614" 
d="M200 46c-14 0 -26.332 -2.50293 -36.999 -7.50293s-20.667 -10.333 -30 -16l-27.5 -16c-9 -5 -18.833 -7.5 -29.5 -7.5c-8 0 -15 3.5 -21 10.5s-9 16.167 -9 27.5c0 6.66699 3.16699 14.834 9.5 24.501s14.833 19.5 25.5 29.5s23.334 19.167 38.001 27.5
s30.334 14.5 47.001 18.5c-2.66699 26 -4.83398 51.667 -6.50098 77s-3.16699 50.666 -4.5 75.999c-19.333 0 -36.333 0.333008 -51 1s-26.834 2.66699 -36.501 6s-17 8.33301 -22 15s-7.5 15.667 -7.5 27c0 6 0.666992 11.333 2 16s4.33301 8.83398 9 12.501
s11.167 6.83398 19.5 9.50098s19.166 4.66699 32.499 6c8.66699 0.666992 16 1.33398 22 2.00098s15.667 1.33398 29 2.00098c-0.666992 15.333 -1 30.833 -1 46.5v48.5c0 76.667 16.833 134.667 50.5 174s86.5 59 158.5 59c12.667 0 27.834 -2 45.501 -6
s34.834 -10.167 51.501 -18.5s30.834 -19.333 42.501 -33s17.5 -30.167 17.5 -49.5c0 -15.333 -5.16699 -27.333 -15.5 -36s-21.833 -13 -34.5 -13c-8.66699 0 -15.334 2.83301 -20.001 8.5s-10.5 12 -17.5 19s-16.167 13.5 -27.5 19.5s-28 9 -50 9
c-14.667 0 -28.167 -2 -40.5 -6s-23 -11.667 -32 -23s-16 -27.166 -21 -47.499s-7.5 -46.5 -7.5 -78.5v-72c16 -0.666992 34.333 -1.16699 55 -1.5s44 -0.5 70 -0.5c16 0 28.333 -1.33301 37 -4s15.334 -6 20.001 -10s7.5 -8.83301 8.5 -14.5s1.5 -11.834 1.5 -18.501
c0 -12 -4.16699 -22 -12.5 -30s-26.166 -12.667 -53.499 -14c-21.333 -1.33301 -41.666 -2.33301 -60.999 -3s-40.333 -1.33398 -63 -2.00098c1.33301 -30.667 2.66602 -58.334 3.99902 -83.001s3.66602 -48.334 6.99902 -71.001
c17.333 -2.66699 31.666 -6.16699 42.999 -10.5l32.5 -12.5c10.333 -4 21.5 -7.5 33.5 -10.5s27.333 -4.5 46 -4.5c24.667 0 43.5 1.83301 56.5 5.5s23.333 7.83398 31 12.501s14 8.83398 19 12.501s12.167 5.5 21.5 5.5s18 -2.66699 26 -8s12 -13 12 -23
c0 -30 -14.5 -55 -43.5 -75s-70.5 -30 -124.5 -30c-22.667 0 -43.334 2.5 -62.001 7.5s-36.334 10.5 -53.001 16.5s-33.167 11.5 -49.5 16.5s-33.833 7.5 -52.5 7.5z" />
    <glyph glyph-name="currency" unicode="&#xa4;" horiz-adv-x="564" 
d="M292 564c38 0 71.334 -7.66504 100.001 -22.998c50 54 83.333 81 100 81c8 0 15 -3.16699 21 -9.5s9 -13.5 9 -21.5c-1.33301 -11.333 -8.83301 -26.5 -22.5 -45.5s-28.834 -38.167 -45.501 -57.5c11.333 -16.667 20.166 -35.334 26.499 -56.001s9.5 -43.667 9.5 -69
c0 -27.333 -3.33301 -52.333 -10 -75s-16.334 -43.334 -29.001 -62.001c19.333 -22.667 35.833 -43 49.5 -61s20.5 -32 20.5 -42c0 -8 -3.16699 -15.5 -9.5 -22.5s-14.166 -10.5 -23.499 -10.5c-8.66699 0 -21.667 7.83301 -39 23.5s-36.666 34.5 -57.999 56.5
c-33.333 -20.667 -71.333 -31 -114 -31c-40.667 0 -75.667 8.66699 -105 26c-19.333 -21.333 -37.5 -39.166 -54.5 -53.499s-29.5 -21.5 -37.5 -21.5c-8.66699 0 -16.334 3.5 -23.001 10.5s-10 14.5 -10 22.5c0 9.33301 5.83301 22.666 17.5 39.999s27.167 37 46.5 59
c-12.667 18.667 -22 39 -28 61s-9 45 -9 69c0 51.333 14 95.666 42 132.999c-8.66699 10 -17.167 20.333 -25.5 31s-15.666 20.667 -21.999 30s-11.5 17.833 -15.5 25.5s-6 14.167 -6 19.5c0 8 3 15.167 9 21.5s12.667 9.5 20 9.5c11.333 0 25 -7 41 -21
s36.667 -35.333 62 -64c16 8.66699 33.5 15.334 52.5 20.001s39.167 7 60.5 7zM281.001 230.002c19.333 0 35.999 3.33203 49.999 9.99902s25.5 15.834 34.5 27.501s15.667 25 20 40s6.5 30.833 6.5 47.5c0 32 -8.33301 59.333 -25 82s-42.667 34 -78 34
c-38 0 -66.833 -11.5 -86.5 -34.5s-29.5 -52.5 -29.5 -88.5c0 -34 9.33301 -62.167 28 -84.5s45.334 -33.5 80.001 -33.5z" />
    <glyph glyph-name="yen" unicode="&#xa5;" horiz-adv-x="589" 
d="M239 98l-46.999 0.00195312c-22.667 0 -42 0.333008 -58 1s-29 2.5 -39 5.5s-17.333 7.83301 -22 14.5s-7 16 -7 28c0 10 2.83301 18.333 8.5 25s15 12 28 16s30 6.66699 51 8s46.833 2 77.5 2h6c-0.666992 9.33301 -1 18.5 -1 27.5v28.5h-44
c-22.667 0 -42 0.333008 -58 1s-29 2.5 -39 5.5s-17.333 7.83301 -22 14.5s-7 16 -7 28c0 10 2.16699 18 6.5 24s12 10.833 23 14.5s26.167 6.33398 45.5 8.00098s44 3.16699 74 4.5l-178 255c-5.33301 7.33301 -9.5 15 -12.5 23s-4.5 15.667 -4.5 23
c0 12.667 3.5 23.167 10.5 31.5s19.167 12.5 36.5 12.5c26 0 48.667 -15 68 -45l149 -237l149 237c18.667 30 41.334 45 68.001 45c17.333 0 29.5 -4.16699 36.5 -12.5s10.5 -18.833 10.5 -31.5c0 -7.33301 -1.5 -15 -4.5 -23s-7.16699 -15.667 -12.5 -23l-179 -256
c34.667 0 62 -0.833008 82 -2.5s35 -4.5 45 -8.5s16.333 -9.16699 19 -15.5s4 -14.166 4 -23.499c0 -10.667 -2.66699 -19 -8 -25s-14.333 -10.5 -27 -13.5s-29.667 -5.16699 -51 -6.5s-48.333 -2.33301 -81 -3v-28.5c0 -9.66699 -0.333008 -19.5 -1 -29.5
c36.667 0 66 -0.666992 88 -2s39 -4 51 -8s19.833 -9.16699 23.5 -15.5s5.5 -14.5 5.5 -24.5c0 -10.667 -2.66699 -19 -8 -25s-14.666 -10.667 -27.999 -14s-31 -5.5 -53 -6.5s-49.333 -1.83301 -82 -2.5c0 -24.667 -1 -43.834 -3 -57.501s-4.83301 -23.834 -8.5 -30.501
s-8.33398 -10.834 -14.001 -12.501s-12.5 -2.5 -20.5 -2.5c-12.667 0 -22.834 4.16699 -30.501 12.5s-12.834 26.166 -15.501 53.499v36z" />
    <glyph glyph-name="brokenbar" unicode="&#xa6;" horiz-adv-x="220" 
d="M65 426c-1.33301 25.333 -2.5 58.167 -3.5 98.5s-1.5 83.166 -1.5 128.499c0 21.333 0.333008 39.5 1 54.5s2.5 27.333 5.5 37s7.83301 16.834 14.5 21.501s16 7 28 7c11.333 0 21.333 -1.66699 30 -5s13.667 -11 15 -23c2.66699 -23.333 4.33398 -46.833 5.00098 -70.5
s1 -47.5 1 -71.5c0 -30.667 -0.333008 -60 -1 -88s-2.33398 -57.667 -5.00098 -89c-1.33301 -14 -5.83301 -22.5 -13.5 -25.5s-18.167 -4.5 -31.5 -4.5c-12 0 -22 2 -30 6s-12.667 12 -14 24zM65 -28.999c-1.33301 25.333 -2.5 58.167 -3.5 98.5s-1.5 83.166 -1.5 128.499
c0 21.333 0.333008 39.5 1 54.5s2.5 27.333 5.5 37s7.83301 16.834 14.5 21.501s16 7 28 7c11.333 0 21.333 -1.66699 30 -5s13.667 -11 15 -23c2.66699 -23.333 4.33398 -46.833 5.00098 -70.5s1 -47.5 1 -71.5c0 -30.667 -0.333008 -60 -1 -88
s-2.33398 -57.667 -5.00098 -89c-1.33301 -14 -5.83301 -22.5 -13.5 -25.5s-18.167 -4.5 -31.5 -4.5c-12 0 -22 2 -30 6s-12.667 12 -14 24z" />
    <glyph glyph-name="section" unicode="&#xa7;" horiz-adv-x="460" 
d="M39 361c0 19.333 3.50391 37.666 10.5039 54.999s16.833 32.666 29.5 45.999c-12 10.667 -21.667 23.167 -29 37.5s-11 32.166 -11 53.499c0 22.667 4.66699 43.834 14 63.501s22.666 36.834 39.999 51.501s38.166 26 62.499 34s51.5 12 81.5 12
c14 0 31.667 -1.16699 53 -3.5s41.666 -6.66602 60.999 -12.999s36 -15.166 50 -26.499s21 -25.666 21 -42.999c0 -10 -2.83301 -18.667 -8.5 -26s-14.5 -11 -26.5 -11c-8.66699 0 -18.5 1.33301 -29.5 4s-23 5.83398 -36 9.50098s-27 6.83398 -42 9.50098
s-30.833 4 -47.5 4c-28 0 -50.833 -4.33301 -68.5 -13s-26.5 -22.334 -26.5 -41.001c0 -10.667 3.16699 -19.667 9.5 -27s15 -13.833 26 -19.5s24 -10.5 39 -14.5s30.833 -8 47.5 -12c20.667 -5.33301 41.167 -11.333 61.5 -18s38.5 -15.834 54.5 -27.501
s29 -26.334 39 -44.001s15 -39.5 15 -65.5c0 -40 -12 -73 -36 -99c11.333 -11.333 20.166 -24.5 26.499 -39.5s9.5 -32.833 9.5 -53.5c0 -49.333 -18.667 -88.5 -56 -117.5s-92.333 -43.5 -165 -43.5c-16 0 -35 1.16699 -57 3.5s-42.667 6.66602 -62 12.999
s-35.833 15.333 -49.5 27s-20.5 27.167 -20.5 46.5c0 13.333 3.16699 23.5 9.5 30.5s14.166 10.5 23.499 10.5c7.33301 0 15 -2.33301 23 -7s17.667 -9.66699 29 -15s25 -10.333 41 -15s35.667 -7 59 -7c8.66699 0 20 0.5 34 1.5s27.833 3.83301 41.5 8.5
s25.334 11.167 35.001 19.5s14.5 20.166 14.5 35.499c0 12 -3.33301 22.167 -10 30.5s-15.667 15.5 -27 21.5s-24.5 11.167 -39.5 15.5l-47.5 13.5c-19.333 5.33301 -38.833 11.333 -58.5 18s-37.5 15.334 -53.5 26.001s-29 24.167 -39 40.5s-15 36.5 -15 60.5zM259.004 299
l23.999 -6.00098c8 -2 16 -4.33301 24 -7c6.66699 4.66699 12 10.334 16 17.001s6 14.667 6 24c0 12 -3.33301 22.167 -10 30.5s-15.667 15.5 -27 21.5s-24.5 11.167 -39.5 15.5l-47.5 13.5l-32 9c-11.333 -4.66699 -20.166 -10.667 -26.499 -18s-9.5 -16.333 -9.5 -27
s3.16699 -19.667 9.5 -27s15 -13.833 26 -19.5s24 -10.5 39 -14.5s30.833 -8 47.5 -12z" />
    <glyph glyph-name="dieresis" unicode="&#xa8;" horiz-adv-x="317" 
d="M68 711c15.333 0 29.5 -6 42.5 -18s19.5 -26.333 19.5 -43c0 -16 -6.66699 -29.833 -20 -41.5s-28.333 -17.5 -45 -17.5c-14 0 -27.167 5.83301 -39.5 17.5s-18.5 26.167 -18.5 43.5c0 16 6.16699 29.833 18.5 41.5s26.5 17.5 42.5 17.5zM248 711
c15.333 0 29.5 -6 42.5 -18s19.5 -26.333 19.5 -43c0 -16 -6.66699 -29.833 -20 -41.5s-28.333 -17.5 -45 -17.5c-14 0 -27.167 5.83301 -39.5 17.5s-18.5 26.167 -18.5 43.5c0 16 6.16699 29.833 18.5 41.5s26.5 17.5 42.5 17.5z" />
    <glyph glyph-name="copyright" unicode="&#xa9;" 
d="M328 37c-38.667 0 -74.668 6.83398 -108.001 20.501s-62.5 33.5 -87.5 59.5s-44.667 58.167 -59 96.5s-21.5 82.166 -21.5 131.499c0 46 6.33301 88.167 19 126.5s31.167 71.333 55.5 99s54.833 49.167 91.5 64.5s79 23 127 23c43.333 0 82.833 -7.16699 118.5 -21.5
s66.167 -34.666 91.5 -60.999s45 -58.333 59 -96s21 -79.834 21 -126.501c0 -43.333 -6.16699 -84.166 -18.5 -122.499s-31.166 -71.833 -56.499 -100.5s-57.333 -51.334 -96 -68.001s-84 -25 -136 -25zM330.999 93.001c41.333 0 77.168 7.00098 107.501 21.001
s55.5 32.833 75.5 56.5s35 51.167 45 82.5s15 64.333 15 99c0 41.333 -6.16699 77.5 -18.5 108.5s-29 56.667 -50 77s-45.5 35.666 -73.5 45.999s-57.333 15.5 -88 15.5c-70.667 0 -126.167 -22.167 -166.5 -66.5s-60.5 -106.5 -60.5 -186.5c0 -40 5.66699 -75.667 17 -107
s26.666 -57.833 45.999 -79.5s42 -38.167 68 -49.5s53.667 -17 83 -17zM352.001 519.002c12.667 0 25.166 -1.33105 37.499 -3.99805s23.333 -6.33398 33 -11.001s17.5 -9.83398 23.5 -15.501s9 -11.834 9 -18.501c0 -18 -9.33301 -27 -28 -27
c-4.66699 0 -9.16699 0.666992 -13.5 2s-9.16602 3 -14.499 5s-12 3.66699 -20 5s-18.333 2 -31 2c-31.333 0 -55 -9.16699 -71 -27.5s-24 -43.5 -24 -75.5c0 -36 8.16699 -64 24.5 -84s40.5 -30 72.5 -30c16.667 0 29.834 1.5 39.501 4.5s17.667 6.5 24 10.5
s11.666 7.5 15.999 10.5s9.16602 4.5 14.499 4.5c6.66699 0 12.167 -1.66699 16.5 -5s6.5 -10 6.5 -20c0 -9.33301 -3.66699 -17.833 -11 -25.5s-16.666 -14.334 -27.999 -20.001s-23.833 -10 -37.5 -13s-26.5 -4.5 -38.5 -4.5c-52 0 -92.167 14.667 -120.5 44
s-42.5 70 -42.5 122c0 22.667 3.33301 44.334 10 65.001s16.834 38.834 30.501 54.501s30.667 28.167 51 37.5s44.166 14 71.499 14z" />
    <glyph glyph-name="ordfeminine" unicode="&#xaa;" horiz-adv-x="400" 
d="M308 432c-12.667 0 -21.5039 2.17188 -26.5039 6.50488s-8.5 10.166 -10.5 17.499c-10 -6.66699 -22.5 -12.834 -37.5 -18.501s-31.5 -8.5 -49.5 -8.5c-16.667 0 -33.5 2.33301 -50.5 7s-32.5 12.834 -46.5 24.501s-25.333 27.167 -34 46.5s-13 44 -13 74
c0 23.333 3 45.166 9 65.499s15 38.166 27 53.499s27.167 27.5 45.5 36.5s39.5 13.5 63.5 13.5c17.333 0 32.833 -2.16699 46.5 -6.5s26.5 -11.833 38.5 -22.5c2.66699 6.66699 6.83398 12.5 12.501 17.5s14.167 7.5 25.5 7.5c8.66699 0 16.334 -3.33301 23.001 -10
s10.667 -18.667 12 -36c1.33301 -18.667 2.33301 -36.834 3 -54.501s1 -34.834 1 -51.501c0 -21.333 -0.333008 -41 -1 -59s-1.66699 -36.667 -3 -56s-5.16602 -32 -11.499 -38s-14.166 -9 -23.499 -9zM265.996 587.005c0 18.667 -2.66699 34 -8 46s-11.833 21.333 -19.5 28
s-16.167 11.167 -25.5 13.5s-18 3.5 -26 3.5c-24 0 -40.833 -8.5 -50.5 -25.5s-14.5 -38.833 -14.5 -65.5c0 -30.667 6.33301 -53.5 19 -68.5s29.667 -22.5 51 -22.5c26 0 44.833 8.83301 56.5 26.5s17.5 39.167 17.5 64.5z" />
    <glyph glyph-name="guillemotleft" unicode="&#xab;" horiz-adv-x="650" 
d="M300 95c10.667 -11.333 18.167 -20.999 22.5 -28.999s6.5 -15.333 6.5 -22c0 -5.33301 -0.333008 -10.5 -1 -15.5s-3.33398 -9.83301 -8.00098 -14.5c-5.33301 -5.33301 -10.5 -8.83301 -15.5 -10.5s-10.5 -2.5 -16.5 -2.5s-13.167 2.16699 -21.5 6.5
s-18.5 11.833 -30.5 22.5c-25.333 21.333 -50.833 44.333 -76.5 69l-76.5 74l-21.5 20.5c-8.33301 7.66699 -16.333 15.834 -24 24.501s-14.167 17.5 -19.5 26.5s-8 17.5 -8 25.5c0 15.333 7 29.833 21 43.5l52 49.5l76.5 73.5c25.667 24.333 51.167 47.166 76.5 68.499
c12 10.667 22.167 18.167 30.5 22.5s15.5 6.5 21.5 6.5s11.333 -1.33301 16 -4s9.33398 -6.33398 14.001 -11.001c7.33301 -8.66699 11 -18 11 -28c0 -7.33301 -4.33301 -17.333 -13 -30s-18 -24 -28 -34l-32 -33l-30.5 -30.5l-40 -39l-59.5 -57.5l62 -61.5l41.5 -40.5
l33 -32.5zM601 95.001c10.667 -11.333 18.167 -20.999 22.5 -28.999s6.5 -15.333 6.5 -22c0 -5.33301 -0.333008 -10.5 -1 -15.5s-3.33398 -9.83301 -8.00098 -14.5c-5.33301 -5.33301 -10.5 -8.83301 -15.5 -10.5s-10.5 -2.5 -16.5 -2.5s-13.167 2.16699 -21.5 6.5
s-18.5 11.833 -30.5 22.5c-25.333 21.333 -50.833 44.333 -76.5 69l-76.5 74l-21.5 20.5c-8.33301 7.66699 -16.333 15.834 -24 24.501s-14.167 17.5 -19.5 26.5s-8 17.5 -8 25.5c0 15.333 7 29.833 21 43.5l52 49.5l76.5 73.5c25.667 24.333 51.167 47.166 76.5 68.499
c12 10.667 22.167 18.167 30.5 22.5s15.5 6.5 21.5 6.5s11.333 -1.33301 16 -4s9.33398 -6.33398 14.001 -11.001c7.33301 -8.66699 11 -18 11 -28c0 -7.33301 -4.33301 -17.333 -13 -30s-18 -24 -28 -34l-32 -33l-30.5 -30.5l-40 -39l-59.5 -57.5l62 -61.5l41.5 -40.5
l33 -32.5z" />
    <glyph glyph-name="logicalnot" unicode="&#xac;" horiz-adv-x="610" 
d="M493 411c8.66699 -0.666992 17.0039 -2.33398 25.0039 -5.00098s15.167 -9.16699 21.5 -19.5s11.333 -26.333 15 -48s5.5 -52.167 5.5 -91.5c0 -22.667 -0.333008 -42 -1 -58s-2.5 -29 -5.5 -39s-7.83301 -17.333 -14.5 -22s-16 -7 -28 -7c-10.667 0 -19.334 3 -26.001 9
s-11.834 16.5 -15.501 31.5s-6.16699 35.167 -7.5 60.5s-2 57.333 -2 96c-18.667 -0.666992 -37 -1.16699 -55 -1.5s-37.833 -0.666016 -59.5 -0.999023s-46.167 -0.5 -73.5 -0.5h-96c-45.333 0 -77.666 2.66699 -96.999 8s-29 19 -29 41c0 6 0.666992 11.5 2 16.5
s4.33301 9.66699 9 14s11.167 7.83301 19.5 10.5s19.166 4.66699 32.499 6c32 2.66699 64 4.66699 96 6s65 2 99 2c29.333 0 59.166 -0.666992 89.499 -2s62.166 -3.33301 95.499 -6z" />
    <glyph glyph-name="uni00AD" unicode="&#xad;" horiz-adv-x="480" 
d="M394 250c-30.667 -1.33301 -66 -2.50195 -106 -3.50195s-87.333 -1.5 -142 -1.5c-22.667 0 -42 0.333008 -58 1s-29 2.5 -39 5.5s-17.333 7.83301 -22 14.5s-7 16 -7 28c0 6 0.666992 11.5 2 16.5s4.33301 9.5 9 13.5s11.167 7.5 19.5 10.5s19.166 5.16699 32.499 6.5
c10 0.666992 18.833 1.33398 26.5 2.00098s15.167 1.16699 22.5 1.5s15.166 0.5 23.499 0.5h29.5c36 0 70.667 -0.166992 104 -0.5s68 -1.5 104 -3.5c16 -1.33301 28.333 -3.16602 37 -5.49902s15.334 -5.5 20.001 -9.5s7.5 -8.66699 8.5 -14s1.5 -11.333 1.5 -18
c0 -12 -4.16699 -22 -12.5 -30s-26.166 -12.667 -53.499 -14z" />
    <glyph glyph-name="registered" unicode="&#xae;" 
d="M328 248c-32 0 -61.8359 5.66699 -89.5029 17s-51.667 28 -72 50s-36.5 49 -48.5 81s-18 68.333 -18 109c0 38.667 5.16699 74.167 15.5 106.5s25.833 60 46.5 83s46.334 40.833 77.001 53.5s66 19 106 19c36.667 0 69.834 -6 99.501 -18s55 -29 76 -51
s37.333 -48.667 49 -80s17.5 -66.333 17.5 -105c0 -36.667 -5.16699 -71 -15.5 -103s-26.166 -60 -47.499 -84s-48.333 -43 -81 -57s-71 -21 -115 -21zM330.997 287c35.333 0 66.332 5.99902 92.999 17.999s48.834 28.333 66.501 49s31 44.667 40 72s13.5 56 13.5 86
c0 35.333 -5.33301 66.333 -16 93s-25 48.834 -43 66.501s-39.167 31 -63.5 40s-50.166 13.5 -77.499 13.5c-30 0 -57.333 -5 -82 -15s-45.5 -24.5 -62.5 -43.5s-30.167 -42 -39.5 -69s-14 -57.5 -14 -91.5s4.83301 -64.667 14.5 -92s23 -50.333 40 -69s36.667 -33 59 -43
s46.166 -15 71.499 -15zM325.996 469.999l-46.999 -0.000976562v-83c0 -7.33301 -1.66699 -12.166 -5 -14.499s-7.33301 -3.5 -12 -3.5c-4 0 -7.5 0.666992 -10.5 2s-5.16699 4.5 -6.5 9.5s-2.33301 12.333 -3 22s-1 23.167 -1 40.5v136c0 26 6.16699 46.167 18.5 60.5
s35.166 21.5 68.499 21.5c16 0 31 -1.5 45 -4.5s26.333 -8 37 -15s19.167 -16.167 25.5 -27.5s9.5 -25.333 9.5 -42c0 -56.667 -23.667 -87.667 -71 -93l65 -79c6 -6 9 -11.667 9 -17c0 -9.33301 -7.33301 -14 -22 -14c-4 0 -8.16699 1.5 -12.5 4.5s-8.5 6.16699 -12.5 9.5z
M404.997 564.998c0 36.667 -28.999 55.001 -86.999 55.001c-15.333 0 -25.5 -5.16699 -30.5 -15.5s-7.5 -30.5 -7.5 -60.5v-39c3.33301 -0.666992 6.66602 -1 9.99902 -1h10h11c12 0 23.667 0.666992 35 2s21.333 4.16602 30 8.49902s15.667 10.5 21 18.5s8 18.667 8 32z
" />
    <glyph glyph-name="macron" unicode="&#xaf;" horiz-adv-x="480" 
d="M344 655c-15.333 -0.666992 -26.5 -1.33203 -33.5 -1.99902s-14.5 -1.16699 -22.5 -1.5s-18.5 -0.666016 -31.5 -0.999023s-33.167 -0.5 -60.5 -0.5c-22.667 0 -42 0.333008 -58 1s-29 2.5 -39 5.5s-17.333 7.83301 -22 14.5s-7 16 -7 28c0 9.33301 2.33301 17.333 7 24
s13 12 25 16s28.667 6.83301 50 8.5s48.666 2.5 81.999 2.5c37.333 0 67.5 -0.833008 90.5 -2.5s40.833 -4.33398 53.5 -8.00098s21.167 -8.83398 25.5 -15.501s6.5 -15 6.5 -25c0 -12 -4.16699 -22 -12.5 -30s-26.166 -12.667 -53.499 -14z" />
    <glyph glyph-name="degree" unicode="&#xb0;" horiz-adv-x="365" 
d="M298 626c0 -16 -3.16602 -31 -9.49902 -45s-15 -26.167 -26 -36.5s-24 -18.5 -39 -24.5s-30.833 -9 -47.5 -9s-32.334 3 -47.001 9s-27.667 14.167 -39 24.5s-20.333 22.5 -27 36.5s-10 29 -10 45c0 16.667 3.5 32 10.5 46s16.167 26.167 27.5 36.5s24.5 18.333 39.5 24
s30.167 8.5 45.5 8.5c16 0 31.5 -3 46.5 -9s28 -14.167 39 -24.5s19.833 -22.5 26.5 -36.5s10 -29 10 -45zM110.001 625c0 -20 6.5 -35.001 19.5 -45.001s28.167 -15 45.5 -15c20 0 35.667 5.83301 47 17.5s17 26.5 17 44.5c0 17.333 -5.5 32.333 -16.5 45
s-25.167 19 -42.5 19c-22.667 0 -40 -6.16699 -52 -18.5s-18 -28.166 -18 -47.499z" />
    <glyph glyph-name="plusminus" unicode="&#xb1;" horiz-adv-x="459" 
d="M373 384c-14.667 -1.33301 -29.667 -2.16797 -45 -2.50098s-31.666 -0.833008 -48.999 -1.5v-25c0 -22.667 -0.333008 -42 -1 -58s-2.5 -29 -5.5 -39s-7.83301 -17.333 -14.5 -22s-16 -7 -28 -7c-9.33301 0 -17.333 2.33301 -24 7s-12 12.667 -16 24
s-6.83301 26.666 -8.5 45.999s-2.5 43.666 -2.5 72.999h-44c-22.667 0 -41.5 0.333008 -56.5 1s-26.833 2.5 -35.5 5.5s-14.834 7.83301 -18.501 14.5s-5.5 16 -5.5 28c0 10 2.66699 18.333 8 25s14.166 11.834 26.499 15.501s28.833 6.33398 49.5 8.00098s46 2.5 76 2.5
l4 83c0.666992 16 2.33398 28.333 5.00098 37s6 15.334 10 20.001s8.83301 7.5 14.5 8.5s11.5 1.5 17.5 1.5c12 0 22 -4.16699 30 -12.5s12.667 -26.166 14 -53.499l4 -85c34.667 0 62.667 -0.833008 84 -2.5s37.666 -4.33398 48.999 -8.00098s18.833 -8.66699 22.5 -15
s5.5 -14.5 5.5 -24.5c0 -12 -4.16699 -22 -12.5 -30s-26.166 -12.667 -53.499 -14zM373 83.998l-46.0029 -2.00195c-15.333 -0.666992 -32 -1.16699 -50 -1.5s-37.667 -0.666016 -59 -0.999023s-45.666 -0.5 -72.999 -0.5c-22.667 0 -42 0.333008 -58 1s-29 2.5 -39 5.5
s-17.333 7.83301 -22 14.5s-7 16 -7 28c0 22.667 14.333 36.834 43 42.501s72.667 8.5 132 8.5h48c14 0 27.667 -0.166992 41 -0.5s27 -0.833008 41 -1.5s30 -1.33398 48 -2.00098c16 -1.33301 28.333 -3.16602 37 -5.49902s15.334 -5.5 20.001 -9.5s7.5 -8.66699 8.5 -14
s1.5 -11.333 1.5 -18c0 -12 -4.16699 -22 -12.5 -30s-26.166 -12.667 -53.499 -14z" />
    <glyph glyph-name="twosuperior" unicode="&#xb2;" horiz-adv-x="356" 
d="M172 710c-14 0 -24.8281 -2.66699 -32.4951 -8s-13.834 -11.166 -18.501 -17.499s-9.16699 -12.166 -13.5 -17.499s-10.5 -8 -18.5 -8c-15.333 0 -25.666 2.33301 -30.999 7s-8 12.667 -8 24c0 6 1.66699 13.833 5 23.5s9.66602 19 18.999 28s22 16.833 38 23.5
s37 10 63 10c39.333 0 69.5 -9.33301 90.5 -28s31.5 -45 31.5 -79c0 -11.333 -2.83301 -26 -8.5 -44s-18.167 -36.667 -37.5 -56c-6 -6 -12.833 -11.833 -20.5 -17.5s-16 -11.5 -25 -17.5s-18.667 -13 -29 -21s-21.5 -17.333 -33.5 -28
c7.33301 -3.33301 14.5 -5.33301 21.5 -6s14.833 -1 23.5 -1c14.667 0 26.667 0.333008 36 1s17.166 1.5 23.499 2.5l16 2.5c4.33301 0.666992 8.83301 1 13.5 1c19.333 0 29 -7.66699 29 -23c0 -12 -4.5 -21.167 -13.5 -27.5s-19.833 -11 -32.5 -14
s-25.5 -4.83301 -38.5 -5.5s-23.833 -1 -32.5 -1c-7.33301 0 -18 0.666992 -32 2s-28.333 4.16602 -43 8.49902s-27.334 10.666 -38.001 18.999s-16 19.5 -16 33.5c0 12 4 23.167 12 33.5s18.167 20.5 30.5 30.5s25.666 20 39.999 30s27.666 20.167 39.999 30.5
s22.5 21 30.5 32s12 22.833 12 35.5c0 28 -17.667 42 -53 42z" />
    <glyph glyph-name="threesuperior" unicode="&#xb3;" horiz-adv-x="363" 
d="M103 706c-13.333 0 -23.5049 3.33301 -30.5049 10s-10.5 13.667 -10.5 21c0 8 3.16699 14.333 9.5 19s14.5 8.5 24.5 11.5s21.333 5 34 6s25.667 1.5 39 1.5c11.333 0 23.833 -0.5 37.5 -1.5s26.334 -3.33301 38.001 -7s21.5 -9.16699 29.5 -16.5s12 -17.333 12 -30
c0 -6.66699 -1.83301 -13.667 -5.5 -21s-8.5 -14.333 -14.5 -21s-12.333 -13 -19 -19s-13 -11 -19 -15c30 -4 51.667 -15.167 65 -33.5s20 -42.5 20 -72.5c0 -21.333 -4 -40 -12 -56s-18.667 -29.167 -32 -39.5s-28.5 -18.166 -45.5 -23.499s-34.5 -8 -52.5 -8
c-15.333 0 -30.166 1.33301 -44.499 4s-27.166 7.16699 -38.499 13.5s-20.5 14.666 -27.5 24.999s-10.5 23.5 -10.5 39.5c0 20.667 12.333 31 37 31c9.33301 0 15.833 -2.5 19.5 -7.5s7.33398 -10.667 11.001 -17s8.83398 -12 15.501 -17s18 -7.5 34 -7.5s30.667 4 44 12
s20 22.667 20 44c0 22 -4 37.167 -12 45.5s-18.667 12.5 -32 12.5c-8.66699 0 -16.667 -2 -24 -6s-16 -6 -26 -6c-8.66699 0 -16.167 2.83301 -22.5 8.5s-9.5 13.5 -9.5 23.5c0 11.333 8 24.5 24 39.5s38 34.167 66 57.5h-92z" />
    <glyph glyph-name="acute" unicode="&#xb4;" horiz-adv-x="324" 
d="M63 575c-7.33301 1.33301 -14.499 3.83398 -21.499 7.50098s-10.5 10.5 -10.5 20.5c0.666992 8 5.5 17.333 14.5 28s20.167 21.5 33.5 32.5s28.333 21.667 45 32s33.167 19.5 49.5 27.5s31.5 14.5 45.5 19.5s25.333 7.5 34 7.5c11.333 0 21.166 -3.33301 29.499 -10
s12.5 -16.334 12.5 -29.001c0 -8 -4.33301 -16.833 -13 -26.5s-20 -19.5 -34 -29.5s-29.667 -19.833 -47 -29.5s-34.5 -18.167 -51.5 -25.5s-33.167 -13.333 -48.5 -18s-28 -7 -38 -7z" />
    <glyph glyph-name="mu" unicode="&#xb5;" horiz-adv-x="532" 
d="M54 436c1.33301 27.333 6 45.165 14 53.498s18 12.5 30 12.5c6.66699 0 12.5 -0.5 17.5 -1.5s9.5 -3.83301 13.5 -8.5s7.16699 -11.334 9.5 -20.001s3.83301 -21 4.5 -37c1.33301 -34.667 2.66602 -67 3.99902 -97s2 -61.667 2 -95
c0 -16.667 -0.166992 -33.334 -0.5 -50.001s-0.833008 -33.667 -1.5 -51c16.667 -10 35.5 -19 56.5 -27s43.5 -12 67.5 -12s43.333 6.66699 58 20s26 30.5 34 51.5s13.333 44.5 16 70.5s4 51.667 4 77c0 22 -0.5 42.833 -1.5 62.5s-1.5 36.5 -1.5 50.5
c0 41.333 15.667 62 47 62c12.667 0 22.5 -3.83301 29.5 -11.5s12 -18 15 -31s4.83301 -28 5.5 -45s1 -34.5 1 -52.5c0 -45.333 -1.5 -89.166 -4.5 -131.499s-10.5 -80.166 -22.5 -113.499s-30.167 -60 -54.5 -80s-58.166 -30 -101.499 -30c-24 0 -49.5 4.33301 -76.5 13
s-52.167 19.667 -75.5 33v-201c0 -14 -1.33301 -25.167 -4 -33.5s-6 -14.666 -10 -18.999s-8.66699 -7.33301 -14 -9s-11 -2.5 -17 -2.5c-12 0 -22.167 4.66699 -30.5 14s-13.166 27 -14.499 53c-0.666992 20 -1.33398 44.167 -2.00098 72.5s-1.16699 59.5 -1.5 93.5
s-0.5 70.333 -0.5 109v119c0 38 0.5 73.333 1.5 106s2.16699 61.334 3.5 86.001z" />
    <glyph glyph-name="paragraph" unicode="&#xb6;" horiz-adv-x="598" 
d="M227 312c-64.667 0 -111.996 14.3271 -141.996 42.9941s-45 76.334 -45 143.001c0 42.667 9.16699 76.334 27.5 101.001s41.833 43.334 70.5 56.001s60.167 20.667 94.5 24s67.5 5 99.5 5c26.667 0 52.834 -0.166992 78.501 -0.5s52.5 -1.83301 80.5 -4.5
c24.667 -2 42 -7 52 -15s15 -18.667 15 -32c0 -10 -2.5 -17.833 -7.5 -23.5s-11.333 -10 -19 -13s-15.834 -5 -24.501 -6s-16.667 -1.83301 -24 -2.5c0.666992 -4.66699 1.16699 -14.167 1.5 -28.5s0.833008 -31.166 1.5 -50.499s1.16699 -40.5 1.5 -63.5
s0.5 -45.5 0.5 -67.5v-97.5c0 -31 -0.333008 -61.667 -1 -92l-2 -92.5c-0.666992 -31.333 -1.66699 -64 -3 -98c-0.666992 -20 -2.16699 -35.833 -4.5 -47.5s-5.5 -20.5 -9.5 -26.5s-8.5 -9.66699 -13.5 -11s-10.833 -2 -17.5 -2c-6 0 -11.333 1.16699 -16 3.5
s-8.66699 6.66602 -12 12.999s-6 15.166 -8 26.499s-3.33301 25.666 -4 42.999c-1.33301 27.333 -2.16602 55.5 -2.49902 84.5s-0.833008 60.333 -1.5 94s-1 70.334 -1 110.001v131.5v95c0 27.333 0.666992 51.333 2 72h-70c0 -167.333 -0.5 -300.666 -1.5 -399.999
s-2.16699 -163 -3.5 -191c-0.666992 -17.333 -1.83398 -31.666 -3.50098 -42.999s-4.33398 -20.166 -8.00098 -26.499s-7.83398 -10.666 -12.501 -12.999s-10.334 -3.5 -17.001 -3.5s-13 0.666992 -19 2s-11.333 5 -16 11s-8.33398 14.833 -11.001 26.5s-4 27.5 -4 47.5z
" />
    <glyph glyph-name="periodcentered" unicode="&#xb7;" horiz-adv-x="163" 
d="M81 310c15.333 0 29.5 -6 42.5 -18s19.5 -26.333 19.5 -43c0 -16 -6.66699 -29.833 -20 -41.5s-28.333 -17.5 -45 -17.5c-14 0 -27.167 5.83301 -39.5 17.5s-18.5 26.167 -18.5 43.5c0 16 6.16699 29.833 18.5 41.5s26.5 17.5 42.5 17.5z" />
    <glyph glyph-name="cedilla" unicode="&#xb8;" horiz-adv-x="259" 
d="M135 17c-2.66699 -13.333 -4.16699 -22.6689 -4.5 -28.002s-0.5 -9.33301 -0.5 -12c0 -10 3.16699 -17 9.5 -21s16.166 -8.66699 29.499 -14c19.333 -7.33301 34 -17.166 44 -29.499s15 -30.166 15 -53.499c0 -9.33301 -1.16699 -19.833 -3.5 -31.5
s-7.83301 -22.5 -16.5 -32.5s-21 -18.5 -37 -25.5s-37.333 -10.5 -64 -10.5c-19.333 0 -36.166 2.66699 -50.499 8s-21.5 16 -21.5 32c0 13.333 4.5 22.5 13.5 27.5s18.5 7.5 28.5 7.5c6 0 13.833 -0.5 23.5 -1.5s17.5 -1.5 23.5 -1.5c8 0 15.167 1.66699 21.5 5
s9.5 9.66602 9.5 18.999c0 12 -5.33301 20.5 -16 25.5l-34.5 16c-12.333 5.66699 -23.833 13.167 -34.5 22.5s-16 24 -16 44v5.5c0 2.33301 0.333008 6 1 11s1.66699 11.833 3 20.5s3 20.334 5 35.001z" />
    <glyph glyph-name="onesuperior" unicode="&#xb9;" horiz-adv-x="253" 
d="M133 461c-0.666992 12 -1.16895 24.3301 -1.50195 36.9971s-0.666016 27.667 -0.999023 45s-0.5 37.333 -0.5 60v82c-11.333 -6.66699 -20.333 -11.167 -27 -13.5s-13.334 -3.5 -20.001 -3.5c-9.33301 0 -17.166 2.33301 -23.499 7s-9.5 12.334 -9.5 23.001
c0 6.66699 5 14.334 15 23.001s21.667 17 35 25s26.333 14.833 39 20.5s22 8.5 28 8.5c7.33301 0 13.333 -3 18 -9s8.33398 -14 11.001 -24s4.5 -21.167 5.5 -33.5s1.5 -24.833 1.5 -37.5v-57.5c0 -17.667 -0.166992 -34.667 -0.5 -51s-0.833008 -32.666 -1.5 -48.999
l-2 -51.5c-1.33301 -18 -4.83301 -29.5 -10.5 -34.5s-12.834 -7.5 -21.501 -7.5c-9.33301 0 -17.166 2.66699 -23.499 8s-9.83301 16.333 -10.5 33z" />
    <glyph glyph-name="ordmasculine" unicode="&#xba;" horiz-adv-x="398" 
d="M205 751c48 0 85.501 -13.834 112.501 -41.501s40.5 -64.834 40.5 -111.501c0 -25.333 -4.16699 -48 -12.5 -68s-19.666 -37.167 -33.999 -51.5s-31.5 -25.333 -51.5 -33s-41.333 -11.5 -64 -11.5c-25.333 0 -47.833 4.33301 -67.5 13s-36 20.334 -49 35.001
s-22.833 31.5 -29.5 50.5s-10 38.833 -10 59.5c0 22.667 3.83301 43.834 11.5 63.501s18.667 36.5 33 50.5s31.666 25 51.999 33s43.166 12 68.499 12zM198.001 502.999c14 0 25.832 2.5 35.499 7.5s17.667 11.667 24 20s10.833 18 13.5 29s4 22.167 4 33.5
c0 24.667 -5.66699 45.5 -17 62.5s-29.666 25.5 -54.999 25.5c-26 0 -45.667 -8.66699 -59 -26s-20 -39.333 -20 -66c0 -26 6.33301 -46.833 19 -62.5s31 -23.5 55 -23.5z" />
    <glyph glyph-name="guillemotright" unicode="&#xbb;" horiz-adv-x="650" 
d="M350 95l37.5 37.499l33 32.5l41.5 40.5l62 61.5l-59.5 57.5l-40 39l-30.5 30.5l-32 33c-10 10 -19.333 21.333 -28 34s-13 22.667 -13 30c0 10 3.66699 19.333 11 28c4.66699 4.66699 9.33398 8.33398 14.001 11.001s10 4 16 4s13.167 -2.16699 21.5 -6.5
s18.5 -11.833 30.5 -22.5c25.333 -21.333 50.833 -44.166 76.5 -68.499l76.5 -73.5l52 -49.5c14 -13.667 21 -28.167 21 -43.5c0 -8 -2.66699 -16.5 -8 -25.5s-11.833 -17.833 -19.5 -26.5s-15.667 -16.834 -24 -24.501l-21.5 -20.5l-76.5 -74
c-25.667 -24.667 -51.167 -47.667 -76.5 -69c-12 -10.667 -22.167 -18.167 -30.5 -22.5s-15.5 -6.5 -21.5 -6.5s-11.5 0.833008 -16.5 2.5s-10.167 5.16699 -15.5 10.5c-4.66699 4.66699 -7.33398 9.5 -8.00098 14.5s-1 10.167 -1 15.5c0 6.66699 2.16699 14 6.5 22
s11.833 17.667 22.5 29zM49 94.999l37.5 37.499l33 32.5l41.5 40.5l62 61.5l-59.5 57.5l-40 39l-30.5 30.5l-32 33c-10 10 -19.333 21.333 -28 34s-13 22.667 -13 30c0 10 3.66699 19.333 11 28c4.66699 4.66699 9.33398 8.33398 14.001 11.001s10 4 16 4
s13.167 -2.16699 21.5 -6.5s18.5 -11.833 30.5 -22.5c25.333 -21.333 50.833 -44.166 76.5 -68.499l76.5 -73.5l52 -49.5c14 -13.667 21 -28.167 21 -43.5c0 -8 -2.66699 -16.5 -8 -25.5s-11.833 -17.833 -19.5 -26.5s-15.667 -16.834 -24 -24.501l-21.5 -20.5l-76.5 -74
c-25.667 -24.667 -51.167 -47.667 -76.5 -69c-12 -10.667 -22.167 -18.167 -30.5 -22.5s-15.5 -6.5 -21.5 -6.5s-11.5 0.833008 -16.5 2.5s-10.167 5.16699 -15.5 10.5c-4.66699 4.66699 -7.33398 9.5 -8.00098 14.5s-1 10.167 -1 15.5c0 6.66699 2.16699 14 6.5 22
s11.833 17.667 22.5 29z" />
    <glyph glyph-name="onequarter" unicode="&#xbc;" horiz-adv-x="876" 
d="M248 61l27.999 93.499l35.5 116l42 131.5l45.5 141l35.5 106.5c10.333 30.333 20 55.166 29 74.499s17.667 33.833 26 43.5s17.5 14.5 27.5 14.5s19.167 -3.33301 27.5 -10s12.5 -17 12.5 -31c0 -4.66699 -0.333008 -9.66699 -1 -15s-2 -11.666 -4 -18.999
c-31.333 -110.667 -65.333 -222.5 -102 -335.5s-75.667 -225.5 -117 -337.5c-8 -21.333 -15.667 -35.666 -23 -42.999s-14.666 -11 -21.999 -11c-12 0 -22.667 3.33301 -32 10s-14 17.667 -14 33c0 9.33301 2 22 6 38zM132.999 460.999
c-0.666992 12 -1.16895 24.3301 -1.50195 36.9971s-0.666016 27.667 -0.999023 45s-0.5 37.333 -0.5 60v82c-11.333 -6.66699 -20.333 -11.167 -27 -13.5s-13.334 -3.5 -20.001 -3.5c-9.33301 0 -17.166 2.33301 -23.499 7s-9.5 12.334 -9.5 23.001
c0 6.66699 5 14.334 15 23.001s21.667 17 35 25s26.333 14.833 39 20.5s22 8.5 28 8.5c7.33301 0 13.333 -3 18 -9s8.33398 -14 11.001 -24s4.5 -21.167 5.5 -33.5s1.5 -24.833 1.5 -37.5v-57.5c0 -17.667 -0.166992 -34.667 -0.5 -51s-0.833008 -32.666 -1.5 -48.999
l-2 -51.5c-1.33301 -18 -4.83301 -29.5 -10.5 -34.5s-12.834 -7.5 -21.501 -7.5c-9.33301 0 -17.166 2.66699 -23.499 8s-9.83301 16.333 -10.5 33zM783.997 105.996c0 -5.33301 0.164062 -13 0.49707 -23s0.5 -18.667 0.5 -26c0 -17.333 -2.33301 -31 -7 -41
s-14.667 -15 -30 -15c-8 0 -14.333 1 -19 3s-8.16699 6.5 -10.5 13.5s-3.66602 17.333 -3.99902 31s-0.5 31.834 -0.5 54.501c-6.66699 -0.666992 -14.5 -1 -23.5 -1h-24.5c-31.333 0 -56.166 2.16699 -74.499 6.5s-27.5 12.833 -27.5 25.5c0 6 2.16699 13.5 6.5 22.5
s10 18.833 17 29.5l22.5 33l24 33l27 35.5c10 13 20.167 25.167 30.5 36.5s20.5 20.666 30.5 27.999s18.667 11 26 11c8 0 14.5 -3 19.5 -9s8.83301 -13.667 11.5 -23s4.5 -20 5.5 -32s1.5 -24.333 1.5 -37c0 -13.333 -0.166992 -28.5 -0.5 -45.5s-0.5 -34.167 -0.5 -51.5
c18 -2 29.333 -5.5 34 -10.5s7 -11.833 7 -20.5c0 -10 -3.66699 -16.833 -11 -20.5s-17.666 -6.16699 -30.999 -7.5zM712.994 241.996l-61 -73c10.667 0.666992 20.167 1 28.5 1h32.5v72z" />
    <glyph glyph-name="onehalf" unicode="&#xbd;" horiz-adv-x="876" 
d="M238 61l27.999 93.499l35.5 116l42 131.5l45.5 141l35.5 106.5c10.333 30.333 20 55.166 29 74.499s17.667 33.833 26 43.5s17.5 14.5 27.5 14.5s19.167 -3.33301 27.5 -10s12.5 -17 12.5 -31c0 -4.66699 -0.333008 -9.66699 -1 -15s-2 -11.666 -4 -18.999
c-31.333 -110.667 -65.333 -222.5 -102 -335.5s-75.667 -225.5 -117 -337.5c-8 -21.333 -15.667 -35.666 -23 -42.999s-14.666 -11 -21.999 -11c-12 0 -22.667 3.33301 -32 10s-14 17.667 -14 33c0 9.33301 2 22 6 38zM132.999 460.999
c-0.666992 12 -1.16895 24.3301 -1.50195 36.9971s-0.666016 27.667 -0.999023 45s-0.5 37.333 -0.5 60v82c-11.333 -6.66699 -20.333 -11.167 -27 -13.5s-13.334 -3.5 -20.001 -3.5c-9.33301 0 -17.166 2.33301 -23.499 7s-9.5 12.334 -9.5 23.001
c0 6.66699 5 14.334 15 23.001s21.667 17 35 25s26.333 14.833 39 20.5s22 8.5 28 8.5c7.33301 0 13.333 -3 18 -9s8.33398 -14 11.001 -24s4.5 -21.167 5.5 -33.5s1.5 -24.833 1.5 -37.5v-57.5c0 -17.667 -0.166992 -34.667 -0.5 -51s-0.833008 -32.666 -1.5 -48.999
l-2 -51.5c-1.33301 -18 -4.83301 -29.5 -10.5 -34.5s-12.834 -7.5 -21.501 -7.5c-9.33301 0 -17.166 2.66699 -23.499 8s-9.83301 16.333 -10.5 33zM691.997 297.996c-14 0 -24.8281 -2.66699 -32.4951 -8s-13.834 -11.166 -18.501 -17.499s-9.16699 -12.166 -13.5 -17.499
s-10.5 -8 -18.5 -8c-15.333 0 -25.666 2.33301 -30.999 7s-8 12.667 -8 24c0 6 1.66699 13.833 5 23.5s9.66602 19 18.999 28s22 16.833 38 23.5s37 10 63 10c39.333 0 69.5 -9.33301 90.5 -28s31.5 -45 31.5 -79c0 -11.333 -2.83301 -26 -8.5 -44
s-18.167 -36.667 -37.5 -56c-6 -6 -12.833 -11.833 -20.5 -17.5s-16 -11.5 -25 -17.5s-18.667 -13 -29 -21s-21.5 -17.333 -33.5 -28c7.33301 -3.33301 14.5 -5.33301 21.5 -6s14.833 -1 23.5 -1c14.667 0 26.667 0.333008 36 1s17.166 1.5 23.499 2.5l16 2.5
c4.33301 0.666992 8.83301 1 13.5 1c19.333 0 29 -7.66699 29 -23c0 -12 -4.5 -21.167 -13.5 -27.5s-19.833 -11 -32.5 -14s-25.5 -4.83301 -38.5 -5.5s-23.833 -1 -32.5 -1c-7.33301 0 -18 0.666992 -32 2s-28.333 4.16602 -43 8.49902s-27.334 10.666 -38.001 18.999
s-16 19.5 -16 33.5c0 12 4 23.167 12 33.5s18.167 20.5 30.5 30.5s25.666 20 39.999 30s27.666 20.167 39.999 30.5s22.5 21 30.5 32s12 22.833 12 35.5c0 28 -17.667 42 -53 42z" />
    <glyph glyph-name="threequarters" unicode="&#xbe;" horiz-adv-x="876" 
d="M301 61l27.999 93.499l35.5 116l42 131.5l45.5 141l35.5 106.5c10.333 30.333 20 55.166 29 74.499s17.667 33.833 26 43.5s17.5 14.5 27.5 14.5s19.167 -3.33301 27.5 -10s12.5 -17 12.5 -31c0 -4.66699 -0.333008 -9.66699 -1 -15s-2 -11.666 -4 -18.999
c-31.333 -110.667 -65.333 -222.5 -102 -335.5s-75.667 -225.5 -117 -337.5c-8 -21.333 -15.667 -35.666 -23 -42.999s-14.666 -11 -21.999 -11c-12 0 -22.667 3.33301 -32 10s-14 17.667 -14 33c0 9.33301 2 22 6 38zM783.999 105.999c0 -5.33301 0.164062 -13 0.49707 -23
s0.5 -18.667 0.5 -26c0 -17.333 -2.33301 -31 -7 -41s-14.667 -15 -30 -15c-8 0 -14.333 1 -19 3s-8.16699 6.5 -10.5 13.5s-3.66602 17.333 -3.99902 31s-0.5 31.834 -0.5 54.501c-6.66699 -0.666992 -14.5 -1 -23.5 -1h-24.5c-31.333 0 -56.166 2.16699 -74.499 6.5
s-27.5 12.833 -27.5 25.5c0 6 2.16699 13.5 6.5 22.5s10 18.833 17 29.5l22.5 33l24 33l27 35.5c10 13 20.167 25.167 30.5 36.5s20.5 20.666 30.5 27.999s18.667 11 26 11c8 0 14.5 -3 19.5 -9s8.83301 -13.667 11.5 -23s4.5 -20 5.5 -32s1.5 -24.333 1.5 -37
c0 -13.333 -0.166992 -28.5 -0.5 -45.5s-0.5 -34.167 -0.5 -51.5c18 -2 29.333 -5.5 34 -10.5s7 -11.833 7 -20.5c0 -10 -3.66699 -16.833 -11 -20.5s-17.666 -6.16699 -30.999 -7.5zM712.996 241.999l-61 -73c10.667 0.666992 20.167 1 28.5 1h32.5v72zM102.996 705.999
c-13.333 0 -23.5049 3.33301 -30.5049 10s-10.5 13.667 -10.5 21c0 8 3.16699 14.333 9.5 19s14.5 8.5 24.5 11.5s21.333 5 34 6s25.667 1.5 39 1.5c11.333 0 23.833 -0.5 37.5 -1.5s26.334 -3.33301 38.001 -7s21.5 -9.16699 29.5 -16.5s12 -17.333 12 -30
c0 -6.66699 -1.83301 -13.667 -5.5 -21s-8.5 -14.333 -14.5 -21s-12.333 -13 -19 -19s-13 -11 -19 -15c29.333 -4 50.833 -15.167 64.5 -33.5s20.5 -42.5 20.5 -72.5c0 -21.333 -4 -40 -12 -56s-18.667 -29.167 -32 -39.5s-28.5 -18.166 -45.5 -23.499s-34.5 -8 -52.5 -8
c-15.333 0 -30.166 1.33301 -44.499 4s-27.166 7.16699 -38.499 13.5s-20.5 14.666 -27.5 24.999s-10.5 23.5 -10.5 39.5c0 20.667 12.333 31 37 31c9.33301 0 15.833 -2.5 19.5 -7.5s7.33398 -10.667 11.001 -17s8.83398 -12 15.501 -17s18 -7.5 34 -7.5s30.667 4 44 12
s20 22.667 20 44c0 22 -4 37.167 -12 45.5s-18.667 12.5 -32 12.5c-8.66699 0 -16.667 -2 -24 -6s-16 -6 -26 -6c-8.66699 0 -16.167 2.83301 -22.5 8.5s-9.5 13.5 -9.5 23.5c0 11.333 8 24.5 24 39.5s38 34.167 66 57.5h-92z" />
    <glyph glyph-name="questiondown" unicode="&#xbf;" horiz-adv-x="462" 
d="M241 224c-7.33301 -16 -18.165 -35.3301 -32.498 -57.9971l-43.5 -71c-14.667 -24.667 -27.334 -49.334 -38.001 -74.001s-16 -47.334 -16 -68.001c0 -34 11.5 -59.5 34.5 -76.5s55.833 -25.5 98.5 -25.5c21.333 0 38.666 2.5 51.999 7.5s24.166 11.5 32.499 19.5
s15 16.333 20 25s10.167 17 15.5 25s11.166 14.5 17.499 19.5s15.5 7.5 27.5 7.5c16.667 0 28 -4.16699 34 -12.5s9 -19.5 9 -33.5s-2.66699 -28 -8 -42s-13.666 -27.333 -24.999 -40c-6.66699 -8 -15.167 -16.333 -25.5 -25s-22.666 -16.834 -36.999 -24.501
s-31.333 -14 -51 -19s-41.834 -7.5 -66.501 -7.5c-72.667 0 -129 17.667 -169 53s-60 85 -60 149c0 22 3.33301 44 10 66s15.334 43.833 26.001 65.5s22.5 43 35.5 64l38.5 61.5c18 28.667 32.833 50.334 44.5 65.001s24.834 22 39.501 22c13.333 0 24.333 -3.16699 33 -9.5
s13 -14.5 13 -24.5c0 -6 -0.333008 -12.333 -1 -19s-3.33398 -13.334 -8.00098 -20.001zM215.001 392.003c-15.333 0 -29.5 6 -42.5 18s-19.5 26.333 -19.5 43c0 16 6.66699 29.833 20 41.5s28.333 17.5 45 17.5c14 0 27.167 -5.83301 39.5 -17.5s18.5 -26.167 18.5 -43.5
c0 -16 -6.16699 -29.833 -18.5 -41.5s-26.5 -17.5 -42.5 -17.5z" />
    <glyph glyph-name="Agrave" unicode="&#xc0;" horiz-adv-x="597" 
d="M479 51c-6.66699 16 -13.8379 34.5029 -21.5049 55.5029l-24.5 66.5c-20 -0.666992 -41 -1.16699 -63 -1.5s-44.333 -0.5 -67 -0.5h-78c-23.333 0 -44.666 0.333008 -63.999 1l-23 -66c-7.33301 -20.667 -14.333 -39 -21 -55c-13.333 -34 -32.666 -51 -57.999 -51
c-9.33301 0 -18.166 3 -26.499 9s-12.5 14.667 -12.5 26s2 26.166 6 44.499s9.16699 38 15.5 59l20.5 65l21 62.5c6.66699 21.333 16.167 48.5 28.5 81.5l39.5 103.5l42 106.5l38 91.5c2.66699 6.66699 6 14.167 10 22.5s8.83301 16.166 14.5 23.499s12 13.666 19 18.999
s14.833 8 23.5 8s16.667 -2.83301 24 -8.5s13.833 -12.5 19.5 -20.5s10.667 -16.333 15 -25s7.83301 -16.334 10.5 -23.001l36.5 -92l41 -105l38.5 -101c12 -32 21.667 -59 29 -81c6 -19.333 12.833 -40 20.5 -62s14.834 -43.667 21.501 -65s12.167 -41.166 16.5 -59.499
s6.5 -33.166 6.5 -44.499s-4.16699 -20 -12.5 -26s-17.166 -9 -26.499 -9c-12 0 -23 4.16699 -33 12.5s-18.667 21.166 -26 38.499zM301.996 271.003c16 0 31.998 -0.166016 47.998 -0.499023s32 -0.833008 48 -1.5l-24 70l-22.5 67l-19 59.5l-14.5 48.5
c-2.66699 8.66699 -5.66699 15.667 -9 21s-7.66602 8 -12.999 8s-9.66602 -2.83301 -12.999 -8.5s-6.33301 -12.834 -9 -21.501c-8 -27.333 -19.167 -62.833 -33.5 -106.5l-45.5 -137.5c18 0.666992 36 1.16699 54 1.5s35.667 0.5 53 0.5zM358.994 779.004
c-10 0 -22.6641 2.33398 -37.9971 7.00098s-31.5 10.667 -48.5 18s-34.167 15.833 -51.5 25.5s-33 19.5 -47 29.5s-25.333 19.833 -34 29.5s-13 18.5 -13 26.5c0 12.667 4 22 12 28s17.667 9 29 9c12.667 0 31.167 -5.33301 55.5 -16s48.666 -23.667 72.999 -39
s45.666 -31.333 63.999 -48s28.166 -31.334 29.499 -44.001c0 -10 -3.33301 -16.5 -10 -19.5s-13.667 -5.16699 -21 -6.5z" />
    <glyph glyph-name="Aacute" unicode="&#xc1;" horiz-adv-x="597" 
d="M479 51c-6.66699 16 -13.8379 34.5029 -21.5049 55.5029l-24.5 66.5c-20 -0.666992 -41 -1.16699 -63 -1.5s-44.333 -0.5 -67 -0.5h-78c-23.333 0 -44.666 0.333008 -63.999 1l-23 -66c-7.33301 -20.667 -14.333 -39 -21 -55c-13.333 -34 -32.666 -51 -57.999 -51
c-9.33301 0 -18.166 3 -26.499 9s-12.5 14.667 -12.5 26s2 26.166 6 44.499s9.16699 38 15.5 59l20.5 65l21 62.5c6.66699 21.333 16.167 48.5 28.5 81.5l39.5 103.5l42 106.5l38 91.5c2.66699 6.66699 6 14.167 10 22.5s8.83301 16.166 14.5 23.499s12 13.666 19 18.999
s14.833 8 23.5 8s16.667 -2.83301 24 -8.5s13.833 -12.5 19.5 -20.5s10.667 -16.333 15 -25s7.83301 -16.334 10.5 -23.001l36.5 -92l41 -105l38.5 -101c12 -32 21.667 -59 29 -81c6 -19.333 12.833 -40 20.5 -62s14.834 -43.667 21.501 -65s12.167 -41.166 16.5 -59.499
s6.5 -33.166 6.5 -44.499s-4.16699 -20 -12.5 -26s-17.166 -9 -26.499 -9c-12 0 -23 4.16699 -33 12.5s-18.667 21.166 -26 38.499zM301.996 271.003c16 0 31.998 -0.166016 47.998 -0.499023s32 -0.833008 48 -1.5l-24 70l-22.5 67l-19 59.5l-14.5 48.5
c-2.66699 8.66699 -5.66699 15.667 -9 21s-7.66602 8 -12.999 8s-9.66602 -2.83301 -12.999 -8.5s-6.33301 -12.834 -9 -21.501c-8 -27.333 -19.167 -62.833 -33.5 -106.5l-45.5 -137.5c18 0.666992 36 1.16699 54 1.5s35.667 0.5 53 0.5zM237.994 776.004
c-7.33301 1.33301 -14.499 3.83398 -21.499 7.50098s-10.5 10.5 -10.5 20.5c0.666992 8 5.5 17.333 14.5 28s20.167 21.5 33.5 32.5s28.333 21.667 45 32s33.167 19.5 49.5 27.5s31.5 14.5 45.5 19.5s25.333 7.5 34 7.5c11.333 0 21.166 -3.33301 29.499 -10
s12.5 -16.334 12.5 -29.001c0 -8 -4.33301 -16.833 -13 -26.5s-20 -19.5 -34 -29.5s-29.667 -19.833 -47 -29.5s-34.5 -18.167 -51.5 -25.5s-33.167 -13.333 -48.5 -18s-28 -7 -38 -7z" />
    <glyph glyph-name="Acircumflex" unicode="&#xc2;" horiz-adv-x="597" 
d="M479 51c-6.66699 16 -13.8379 34.5029 -21.5049 55.5029l-24.5 66.5c-20 -0.666992 -41 -1.16699 -63 -1.5s-44.333 -0.5 -67 -0.5h-78c-23.333 0 -44.666 0.333008 -63.999 1l-23 -66c-7.33301 -20.667 -14.333 -39 -21 -55c-13.333 -34 -32.666 -51 -57.999 -51
c-9.33301 0 -18.166 3 -26.499 9s-12.5 14.667 -12.5 26s2 26.166 6 44.499s9.16699 38 15.5 59l20.5 65l21 62.5c6.66699 21.333 16.167 48.5 28.5 81.5l39.5 103.5l42 106.5l38 91.5c2.66699 6.66699 6 14.167 10 22.5s8.83301 16.166 14.5 23.499s12 13.666 19 18.999
s14.833 8 23.5 8s16.667 -2.83301 24 -8.5s13.833 -12.5 19.5 -20.5s10.667 -16.333 15 -25s7.83301 -16.334 10.5 -23.001l36.5 -92l41 -105l38.5 -101c12 -32 21.667 -59 29 -81c6 -19.333 12.833 -40 20.5 -62s14.834 -43.667 21.501 -65s12.167 -41.166 16.5 -59.499
s6.5 -33.166 6.5 -44.499s-4.16699 -20 -12.5 -26s-17.166 -9 -26.499 -9c-12 0 -23 4.16699 -33 12.5s-18.667 21.166 -26 38.499zM301.996 271.003c16 0 31.998 -0.166016 47.998 -0.499023s32 -0.833008 48 -1.5l-24 70l-22.5 67l-19 59.5l-14.5 48.5
c-2.66699 8.66699 -5.66699 15.667 -9 21s-7.66602 8 -12.999 8s-9.66602 -2.83301 -12.999 -8.5s-6.33301 -12.834 -9 -21.501c-8 -27.333 -19.167 -62.833 -33.5 -106.5l-45.5 -137.5c18 0.666992 36 1.16699 54 1.5s35.667 0.5 53 0.5zM298.994 952.004
c6.66699 0 15.832 -2.83203 27.499 -8.49902s23.834 -12.667 36.501 -21s25.167 -17.666 37.5 -27.999s22.833 -19.833 31.5 -28.5c7.33301 -8 13.166 -15.833 17.499 -23.5s6.5 -15.834 6.5 -24.501c0 -11.333 -3.5 -21.333 -10.5 -30s-17.167 -13 -30.5 -13
c-11.333 0 -24.166 5 -38.499 15s-33.166 25.667 -56.499 47l-21 19l-21 -19c-23.333 -21.333 -42.5 -36.833 -57.5 -46.5s-28.167 -14.5 -39.5 -14.5c-12 0 -21.833 3.83301 -29.5 11.5s-11.5 17.167 -11.5 28.5c0 6 1.83301 13.167 5.5 21.5s10.5 17.833 20.5 28.5
c8.66699 8.66699 19.167 18.167 31.5 28.5s24.833 19.666 37.5 27.999s24.667 15.333 36 21s20.666 8.5 27.999 8.5z" />
    <glyph glyph-name="Atilde" unicode="&#xc3;" horiz-adv-x="597" 
d="M479 51c-6.66699 16 -13.8379 34.5029 -21.5049 55.5029l-24.5 66.5c-20 -0.666992 -41 -1.16699 -63 -1.5s-44.333 -0.5 -67 -0.5h-78c-23.333 0 -44.666 0.333008 -63.999 1l-23 -66c-7.33301 -20.667 -14.333 -39 -21 -55c-13.333 -34 -32.666 -51 -57.999 -51
c-9.33301 0 -18.166 3 -26.499 9s-12.5 14.667 -12.5 26s2 26.166 6 44.499s9.16699 38 15.5 59l20.5 65l21 62.5c6.66699 21.333 16.167 48.5 28.5 81.5l39.5 103.5l42 106.5l38 91.5c2.66699 6.66699 6 14.167 10 22.5s8.83301 16.166 14.5 23.499s12 13.666 19 18.999
s14.833 8 23.5 8s16.667 -2.83301 24 -8.5s13.833 -12.5 19.5 -20.5s10.667 -16.333 15 -25s7.83301 -16.334 10.5 -23.001l36.5 -92l41 -105l38.5 -101c12 -32 21.667 -59 29 -81c6 -19.333 12.833 -40 20.5 -62s14.834 -43.667 21.501 -65s12.167 -41.166 16.5 -59.499
s6.5 -33.166 6.5 -44.499s-4.16699 -20 -12.5 -26s-17.166 -9 -26.499 -9c-12 0 -23 4.16699 -33 12.5s-18.667 21.166 -26 38.499zM301.996 271.003c16 0 31.998 -0.166016 47.998 -0.499023s32 -0.833008 48 -1.5l-24 70l-22.5 67l-19 59.5l-14.5 48.5
c-2.66699 8.66699 -5.66699 15.667 -9 21s-7.66602 8 -12.999 8s-9.66602 -2.83301 -12.999 -8.5s-6.33301 -12.834 -9 -21.501c-8 -27.333 -19.167 -62.833 -33.5 -106.5l-45.5 -137.5c18 0.666992 36 1.16699 54 1.5s35.667 0.5 53 0.5zM223.994 843.004
c-10.667 0 -19.9961 -2.33203 -27.9961 -6.99902s-15.5 -10 -22.5 -16s-14 -11.333 -21 -16s-14.5 -7 -22.5 -7c-8.66699 0 -15.834 3.5 -21.501 10.5s-8.5 16.167 -8.5 27.5s2.33301 23.333 7 36s11.834 24.167 21.501 34.5s21.5 19 35.5 26s30.333 10.5 49 10.5
c19.333 0 35.666 -2.5 48.999 -7.5s25.166 -10.667 35.499 -17s20.5 -12 30.5 -17s21.667 -7.5 35 -7.5c20 0 34.833 2.33301 44.5 7s17 10 22 16s9.16699 11.333 12.5 16s8.66602 7 15.999 7c9.33301 0 18 -2.66699 26 -8s12 -13 12 -23
c0 -15.333 -2.83301 -29.833 -8.5 -43.5s-14.167 -25.834 -25.5 -36.501s-25.5 -19.167 -42.5 -25.5s-36.5 -9.5 -58.5 -9.5c-14 0 -26.667 2.66699 -38 8s-22.333 11 -33 17s-21.334 11.667 -32.001 17s-22 8 -34 8z" />
    <glyph glyph-name="Adieresis" unicode="&#xc4;" horiz-adv-x="597" 
d="M479 51c-6.66699 16 -13.8379 34.5029 -21.5049 55.5029l-24.5 66.5c-20 -0.666992 -41 -1.16699 -63 -1.5s-44.333 -0.5 -67 -0.5h-78c-23.333 0 -44.666 0.333008 -63.999 1l-23 -66c-7.33301 -20.667 -14.333 -39 -21 -55c-13.333 -34 -32.666 -51 -57.999 -51
c-9.33301 0 -18.166 3 -26.499 9s-12.5 14.667 -12.5 26s2 26.166 6 44.499s9.16699 38 15.5 59l20.5 65l21 62.5c6.66699 21.333 16.167 48.5 28.5 81.5l39.5 103.5l42 106.5l38 91.5c2.66699 6.66699 6 14.167 10 22.5s8.83301 16.166 14.5 23.499s12 13.666 19 18.999
s14.833 8 23.5 8s16.667 -2.83301 24 -8.5s13.833 -12.5 19.5 -20.5s10.667 -16.333 15 -25s7.83301 -16.334 10.5 -23.001l36.5 -92l41 -105l38.5 -101c12 -32 21.667 -59 29 -81c6 -19.333 12.833 -40 20.5 -62s14.834 -43.667 21.501 -65s12.167 -41.166 16.5 -59.499
s6.5 -33.166 6.5 -44.499s-4.16699 -20 -12.5 -26s-17.166 -9 -26.499 -9c-12 0 -23 4.16699 -33 12.5s-18.667 21.166 -26 38.499zM301.996 271.003c16 0 31.998 -0.166016 47.998 -0.499023s32 -0.833008 48 -1.5l-24 70l-22.5 67l-19 59.5l-14.5 48.5
c-2.66699 8.66699 -5.66699 15.667 -9 21s-7.66602 8 -12.999 8s-9.66602 -2.83301 -12.999 -8.5s-6.33301 -12.834 -9 -21.501c-8 -27.333 -19.167 -62.833 -33.5 -106.5l-45.5 -137.5c18 0.666992 36 1.16699 54 1.5s35.667 0.5 53 0.5zM208.994 932.004
c15.333 0 29.5 -6 42.5 -18s19.5 -26.333 19.5 -43c0 -16 -6.66699 -29.833 -20 -41.5s-28.333 -17.5 -45 -17.5c-14 0 -27.167 5.83301 -39.5 17.5s-18.5 26.167 -18.5 43.5c0 16 6.16699 29.833 18.5 41.5s26.5 17.5 42.5 17.5zM388.994 932.004
c15.333 0 29.5 -6 42.5 -18s19.5 -26.333 19.5 -43c0 -16 -6.66699 -29.833 -20 -41.5s-28.333 -17.5 -45 -17.5c-14 0 -27.167 5.83301 -39.5 17.5s-18.5 26.167 -18.5 43.5c0 16 6.16699 29.833 18.5 41.5s26.5 17.5 42.5 17.5z" />
    <glyph glyph-name="Aring" unicode="&#xc5;" horiz-adv-x="597" 
d="M418 807c0 -25.333 -7.50391 -47.667 -22.5039 -67s-34.5 -33 -58.5 -41c7.33301 -8.66699 13.333 -18 18 -28l12 -26l36.5 -92l41 -105l38.5 -101c12 -32 21.667 -59 29 -81c6 -19.333 12.833 -40 20.5 -62s14.834 -43.667 21.501 -65s12.167 -41.166 16.5 -59.499
s6.5 -33.166 6.5 -44.499s-4.16699 -20 -12.5 -26s-17.166 -9 -26.499 -9c-12 0 -23 4.16699 -33 12.5s-18.667 21.166 -26 38.499c-6.66699 16 -13.834 34.5 -21.501 55.5l-24.5 66.5c-20 -0.666992 -41 -1.16699 -63 -1.5s-44.333 -0.5 -67 -0.5h-78
c-23.333 0 -44.666 0.333008 -63.999 1l-23 -66c-7.33301 -20.667 -14.333 -39 -21 -55c-13.333 -34 -32.666 -51 -57.999 -51c-9.33301 0 -18.166 3 -26.499 9s-12.5 14.667 -12.5 26s2 26.166 6 44.499s9.16699 38 15.5 59l20.5 65l21 62.5
c6.66699 21.333 16.167 48.5 28.5 81.5l39.5 103.5l42 106.5l38 91.5l11 24c4 8.66699 9 17 15 25c-24 7.33301 -44 21 -60 41s-24 42.667 -24 68c0 16.667 3.5 32 10.5 46s16.167 26.167 27.5 36.5s24.5 18.333 39.5 24s30.167 8.5 45.5 8.5c16 0 31.5 -3 46.5 -9
s28 -14.167 39 -24.5s19.833 -22.5 26.5 -36.5s10 -29 10 -45zM301.996 270.999c16 0 31.998 -0.166016 47.998 -0.499023s32 -0.833008 48 -1.5l-24 70l-22.5 67l-19 59.5l-14.5 48.5c-2.66699 8.66699 -5.66699 15.667 -9 21s-7.66602 8 -12.999 8
s-9.66602 -2.83301 -12.999 -8.5s-6.33301 -12.834 -9 -21.501c-8 -27.333 -19.167 -62.833 -33.5 -106.5l-45.5 -137.5c18 0.666992 36 1.16699 54 1.5s35.667 0.5 53 0.5zM229.994 806c0 -20 6.5 -35.001 19.5 -45.001s28.167 -15 45.5 -15c20 0 35.667 5.83301 47 17.5
s17 26.5 17 44.5c0 17.333 -5.5 32.333 -16.5 45s-25.167 19 -42.5 19c-22.667 0 -40 -6.16699 -52 -18.5s-18 -28.166 -18 -47.499z" />
    <glyph glyph-name="AE" unicode="&#xc6;" horiz-adv-x="898" 
d="M403 172c-33.333 -2 -66.3291 -2.99707 -98.9961 -2.99707c-38 0 -77 1 -117 3l-34.5 -55.5c-12.333 -20.333 -24.5 -39.333 -36.5 -57s-23.5 -32.5 -34.5 -44.5s-20.5 -18 -28.5 -18c-11.333 0 -21.333 3.83301 -30 11.5s-13 17.834 -13 30.501
c0 5.33301 1.16699 11.666 3.5 18.999s6.16602 16.333 11.499 27c12.667 24.667 28.167 53.167 46.5 85.5l61 105l70.5 118.5l76 127l52.5 84c14.333 22 27 39.333 38 52s20.833 21.667 29.5 27s17.334 8.66602 26.001 9.99902c13.333 2 26.166 3.66699 38.499 5
s25.5 2.16602 39.5 2.49902s29.833 0.666016 47.5 0.999023s38.5 0.5 62.5 0.5h21.5c13.667 0 30.167 -0.166992 49.5 -0.5s39.5 -0.833008 60.5 -1.5s38.5 -1.33398 52.5 -2.00098c14.667 -1.33301 26.5 -3.16602 35.5 -5.49902s15.833 -5.33301 20.5 -9s7.66699 -8 9 -13
s2 -10.5 2 -16.5c0 -15.333 -4.33301 -26.5 -13 -33.5s-26.334 -11.5 -53.001 -13.5c-13.333 -1.33301 -32.833 -2.16602 -58.5 -2.49902s-51.834 -0.5 -78.501 -0.5s-50.667 -0.166992 -72 -0.5s-34.666 -0.5 -39.999 -0.5c-17.333 -0.666992 -29.5 -4.5 -36.5 -11.5
s-10.5 -23.5 -10.5 -49.5c0 -6 0.5 -20.5 1.5 -43.5s1.5 -55.167 1.5 -96.5h83c35.333 0 64.166 -0.5 86.499 -1.5s39.666 -3.16699 51.999 -6.5s20.833 -8.66602 25.5 -15.999s7 -17 7 -29c0 -10 -2.5 -18 -7.5 -24s-14 -10.833 -27 -14.5s-30.5 -6 -52.5 -7
s-50.333 -1.5 -85 -1.5h-84v-36v-43c0 -14.667 0.166992 -29 0.5 -43s0.833008 -25.333 1.5 -34c0.666992 -10.667 2.16699 -19.667 4.5 -27s6.66602 -13.333 12.999 -18s15.666 -8 27.999 -10s28.833 -3 49.5 -3h215c23.333 0 38 -4.33301 44 -13s9 -20.334 9 -35.001
c0 -12 -2.66699 -21.167 -8 -27.5s-18.166 -11 -38.499 -14s-50.666 -4.83301 -90.999 -5.5s-95.833 -1 -166.5 -1c-30 0 -54.667 2.66699 -74 8s-35 14.333 -47 27s-20.833 29.167 -26.5 49.5s-9.5 45.166 -11.5 74.499zM328.004 271.003
c12 0 24.001 -0.166992 36.001 -0.5s24 -0.833008 36 -1.5c-1.33301 13.333 -2 27 -2 41v41c0 30 0.5 60 1.5 90s1.83301 61 2.5 93l-76 -132.5l-78 -131.5c13.333 0.666992 26.666 1 39.999 1h40z" />
    <glyph glyph-name="Ccedilla" unicode="&#xc7;" horiz-adv-x="599" 
d="M351 708c22 0 44.1611 -1.83594 66.4941 -5.50293s42.5 -9.33398 60.5 -17.001s32.833 -17 44.5 -28s17.5 -23.833 17.5 -38.5c0 -15.333 -4 -27 -12 -35s-18 -12 -30 -12c-11.333 0 -21.333 1.83301 -30 5.5l-29.5 12.5c-11 4.66699 -24.167 8.83398 -39.5 12.501
s-35.666 5.5 -60.999 5.5s-49.5 -6.5 -72.5 -19.5s-43 -31 -60 -54s-30.5 -50.167 -40.5 -81.5s-15 -65.333 -15 -102c0 -45.333 5.83301 -84.333 17.5 -117s26.834 -59.5 45.501 -80.5s39.834 -36.667 63.501 -47s47.5 -15.5 71.5 -15.5c28.667 0 52.667 3 72 9
s35.833 12.667 49.5 20s25.5 14 35.5 20s19.667 9 29 9c11.333 0 20.333 -3.16699 27 -9.5s10 -17.5 10 -33.5c0 -12.667 -4.83301 -25.5 -14.5 -38.5s-23.334 -24.833 -41.001 -35.5s-39.167 -19.667 -64.5 -27s-53.666 -11.666 -84.999 -12.999v-6
c0 -13.333 3.33301 -22.833 10 -28.5s16.334 -10.834 29.001 -15.501c19.333 -7.33301 34 -17.166 44 -29.499s15 -30.166 15 -53.499c0 -9.33301 -1.16699 -19.833 -3.5 -31.5s-7.83301 -22.5 -16.5 -32.5s-21 -18.5 -37 -25.5s-37.333 -10.5 -64 -10.5
c-19.333 0 -36.166 2.66699 -50.499 8s-21.5 16 -21.5 32c0 13.333 4.5 22.5 13.5 27.5s18.5 7.5 28.5 7.5c6 0 13.833 -0.5 23.5 -1.5s17.5 -1.5 23.5 -1.5c8 0 15.167 1.66699 21.5 5s9.5 9.66602 9.5 18.999c0 12 -5.33301 20.5 -16 25.5l-34.5 16
c-12.333 5.66699 -23.833 13.167 -34.5 22.5s-16 24 -16 44c0 2 0.166992 5.16699 0.5 9.5s1.16602 12.166 2.49902 23.499c-33.333 6 -65.166 17.833 -95.499 35.5s-57.166 40.834 -80.499 69.501s-42 62.834 -56 102.501s-21 85.167 -21 136.5
c0 58 8.16699 109.667 24.5 155s38.666 83.833 66.999 115.5s61.333 55.834 99 72.501s77.834 25 120.501 25z" />
    <glyph glyph-name="Egrave" unicode="&#xc8;" horiz-adv-x="559" 
d="M66 152c-1.33301 21.333 -2.66211 50.3291 -3.99512 86.9961s-2 74.334 -2 113.001c0 22 0.166992 44.833 0.5 68.5s0.833008 47.834 1.5 72.501c1.33301 49.333 4.5 88 9.5 116s15 49 30 63s36.167 22.667 63.5 26s63.666 5 108.999 5h21.5
c13.667 0 30.167 -0.166992 49.5 -0.5s39.5 -0.833008 60.5 -1.5s38.5 -1.33398 52.5 -2.00098c14.667 -1.33301 26.5 -3.16602 35.5 -5.49902s15.833 -5.33301 20.5 -9s7.66699 -8 9 -13s2 -10.5 2 -16.5c0 -15.333 -4.33301 -26.5 -13 -33.5s-26.334 -11.5 -53.001 -13.5
c-13.333 -1.33301 -32.833 -2.16602 -58.5 -2.49902s-51.834 -0.5 -78.501 -0.5s-50.667 -0.166992 -72 -0.5s-34.666 -0.5 -39.999 -0.5c-17.333 -0.666992 -29.5 -4.5 -36.5 -11.5s-10.5 -23.5 -10.5 -49.5c0 -6 0.5 -20.5 1.5 -43.5s1.5 -55.167 1.5 -96.5h83
c35.333 0 64.166 -0.5 86.499 -1.5s39.666 -3.16699 51.999 -6.5s20.833 -8.66602 25.5 -15.999s7 -17 7 -29c0 -6 -0.5 -11.5 -1.5 -16.5s-3.83301 -9.33301 -8.5 -13s-11.334 -6.66699 -20.001 -9s-21 -4.16602 -37 -5.49902
c-19.333 -1.33301 -37.5 -2.16602 -54.5 -2.49902s-33.833 -0.5 -50.5 -0.5h-84v-36v-43c0 -14.667 0.166992 -29 0.5 -43s0.833008 -25.333 1.5 -34c0.666992 -10.667 2.16699 -19.667 4.5 -27s6.66602 -13.333 12.999 -18s15.666 -8 27.999 -10s28.833 -3 49.5 -3h215
c23.333 0 38 -4.33301 44 -13s9 -20.334 9 -35.001c0 -12 -2.66699 -21.167 -8 -27.5s-18.166 -11 -38.499 -14s-50.666 -4.83301 -90.999 -5.5s-95.833 -1 -166.5 -1c-30 0 -54.667 2.66699 -74 8s-35 14.333 -47 27s-20.833 29.167 -26.5 49.5s-9.5 45.166 -11.5 74.499z
M374.004 763.996c-10 0 -22.6641 2.33398 -37.9971 7.00098s-31.5 10.667 -48.5 18s-34.167 15.833 -51.5 25.5s-33 19.5 -47 29.5s-25.333 19.833 -34 29.5s-13 18.5 -13 26.5c0 12.667 4 22 12 28s17.667 9 29 9c12.667 0 31.167 -5.33301 55.5 -16
s48.666 -23.667 72.999 -39s45.666 -31.333 63.999 -48s28.166 -31.334 29.499 -44.001c0 -10 -3.33301 -16.5 -10 -19.5s-13.667 -5.16699 -21 -6.5z" />
    <glyph glyph-name="Eacute" unicode="&#xc9;" horiz-adv-x="559" 
d="M66 152c-1.33301 21.333 -2.66211 50.3291 -3.99512 86.9961s-2 74.334 -2 113.001c0 22 0.166992 44.833 0.5 68.5s0.833008 47.834 1.5 72.501c1.33301 49.333 4.5 88 9.5 116s15 49 30 63s36.167 22.667 63.5 26s63.666 5 108.999 5h21.5
c13.667 0 30.167 -0.166992 49.5 -0.5s39.5 -0.833008 60.5 -1.5s38.5 -1.33398 52.5 -2.00098c14.667 -1.33301 26.5 -3.16602 35.5 -5.49902s15.833 -5.33301 20.5 -9s7.66699 -8 9 -13s2 -10.5 2 -16.5c0 -15.333 -4.33301 -26.5 -13 -33.5s-26.334 -11.5 -53.001 -13.5
c-13.333 -1.33301 -32.833 -2.16602 -58.5 -2.49902s-51.834 -0.5 -78.501 -0.5s-50.667 -0.166992 -72 -0.5s-34.666 -0.5 -39.999 -0.5c-17.333 -0.666992 -29.5 -4.5 -36.5 -11.5s-10.5 -23.5 -10.5 -49.5c0 -6 0.5 -20.5 1.5 -43.5s1.5 -55.167 1.5 -96.5h83
c35.333 0 64.166 -0.5 86.499 -1.5s39.666 -3.16699 51.999 -6.5s20.833 -8.66602 25.5 -15.999s7 -17 7 -29c0 -6 -0.5 -11.5 -1.5 -16.5s-3.83301 -9.33301 -8.5 -13s-11.334 -6.66699 -20.001 -9s-21 -4.16602 -37 -5.49902
c-19.333 -1.33301 -37.5 -2.16602 -54.5 -2.49902s-33.833 -0.5 -50.5 -0.5h-84v-36v-43c0 -14.667 0.166992 -29 0.5 -43s0.833008 -25.333 1.5 -34c0.666992 -10.667 2.16699 -19.667 4.5 -27s6.66602 -13.333 12.999 -18s15.666 -8 27.999 -10s28.833 -3 49.5 -3h215
c23.333 0 38 -4.33301 44 -13s9 -20.334 9 -35.001c0 -12 -2.66699 -21.167 -8 -27.5s-18.166 -11 -38.499 -14s-50.666 -4.83301 -90.999 -5.5s-95.833 -1 -166.5 -1c-30 0 -54.667 2.66699 -74 8s-35 14.333 -47 27s-20.833 29.167 -26.5 49.5s-9.5 45.166 -11.5 74.499z
M261.004 757.996c-7.33301 1.33301 -14.499 3.83398 -21.499 7.50098s-10.5 10.5 -10.5 20.5c0.666992 8 5.5 17.333 14.5 28s20.167 21.5 33.5 32.5s28.333 21.667 45 32s33.167 19.5 49.5 27.5s31.5 14.5 45.5 19.5s25.333 7.5 34 7.5
c11.333 0 21.166 -3.33301 29.499 -10s12.5 -16.334 12.5 -29.001c0 -8 -4.33301 -16.833 -13 -26.5s-20 -19.5 -34 -29.5s-29.667 -19.833 -47 -29.5s-34.5 -18.167 -51.5 -25.5s-33.167 -13.333 -48.5 -18s-28 -7 -38 -7z" />
    <glyph glyph-name="Ecircumflex" unicode="&#xca;" horiz-adv-x="559" 
d="M66 152c-1.33301 21.333 -2.66211 50.3291 -3.99512 86.9961s-2 74.334 -2 113.001c0 22 0.166992 44.833 0.5 68.5s0.833008 47.834 1.5 72.501c1.33301 49.333 4.5 88 9.5 116s15 49 30 63s36.167 22.667 63.5 26s63.666 5 108.999 5h21.5
c13.667 0 30.167 -0.166992 49.5 -0.5s39.5 -0.833008 60.5 -1.5s38.5 -1.33398 52.5 -2.00098c14.667 -1.33301 26.5 -3.16602 35.5 -5.49902s15.833 -5.33301 20.5 -9s7.66699 -8 9 -13s2 -10.5 2 -16.5c0 -15.333 -4.33301 -26.5 -13 -33.5s-26.334 -11.5 -53.001 -13.5
c-13.333 -1.33301 -32.833 -2.16602 -58.5 -2.49902s-51.834 -0.5 -78.501 -0.5s-50.667 -0.166992 -72 -0.5s-34.666 -0.5 -39.999 -0.5c-17.333 -0.666992 -29.5 -4.5 -36.5 -11.5s-10.5 -23.5 -10.5 -49.5c0 -6 0.5 -20.5 1.5 -43.5s1.5 -55.167 1.5 -96.5h83
c35.333 0 64.166 -0.5 86.499 -1.5s39.666 -3.16699 51.999 -6.5s20.833 -8.66602 25.5 -15.999s7 -17 7 -29c0 -6 -0.5 -11.5 -1.5 -16.5s-3.83301 -9.33301 -8.5 -13s-11.334 -6.66699 -20.001 -9s-21 -4.16602 -37 -5.49902
c-19.333 -1.33301 -37.5 -2.16602 -54.5 -2.49902s-33.833 -0.5 -50.5 -0.5h-84v-36v-43c0 -14.667 0.166992 -29 0.5 -43s0.833008 -25.333 1.5 -34c0.666992 -10.667 2.16699 -19.667 4.5 -27s6.66602 -13.333 12.999 -18s15.666 -8 27.999 -10s28.833 -3 49.5 -3h215
c23.333 0 38 -4.33301 44 -13s9 -20.334 9 -35.001c0 -12 -2.66699 -21.167 -8 -27.5s-18.166 -11 -38.499 -14s-50.666 -4.83301 -90.999 -5.5s-95.833 -1 -166.5 -1c-30 0 -54.667 2.66699 -74 8s-35 14.333 -47 27s-20.833 29.167 -26.5 49.5s-9.5 45.166 -11.5 74.499z
M310.004 924.996c6.66699 0 15.832 -2.83203 27.499 -8.49902s23.834 -12.667 36.501 -21s25.167 -17.666 37.5 -27.999s22.833 -19.833 31.5 -28.5c7.33301 -8 13.166 -15.833 17.499 -23.5s6.5 -15.834 6.5 -24.501c0 -11.333 -3.5 -21.333 -10.5 -30
s-17.167 -13 -30.5 -13c-11.333 0 -24.166 5 -38.499 15s-33.166 25.667 -56.499 47l-21 19l-21 -19c-23.333 -21.333 -42.5 -36.833 -57.5 -46.5s-28.167 -14.5 -39.5 -14.5c-12 0 -21.833 3.83301 -29.5 11.5s-11.5 17.167 -11.5 28.5c0 6 1.83301 13.167 5.5 21.5
s10.5 17.833 20.5 28.5c8.66699 8.66699 19.167 18.167 31.5 28.5s24.833 19.666 37.5 27.999s24.667 15.333 36 21s20.666 8.5 27.999 8.5z" />
    <glyph glyph-name="Edieresis" unicode="&#xcb;" horiz-adv-x="559" 
d="M66 152c-1.33301 21.333 -2.66211 50.3291 -3.99512 86.9961s-2 74.334 -2 113.001c0 22 0.166992 44.833 0.5 68.5s0.833008 47.834 1.5 72.501c1.33301 49.333 4.5 88 9.5 116s15 49 30 63s36.167 22.667 63.5 26s63.666 5 108.999 5h21.5
c13.667 0 30.167 -0.166992 49.5 -0.5s39.5 -0.833008 60.5 -1.5s38.5 -1.33398 52.5 -2.00098c14.667 -1.33301 26.5 -3.16602 35.5 -5.49902s15.833 -5.33301 20.5 -9s7.66699 -8 9 -13s2 -10.5 2 -16.5c0 -15.333 -4.33301 -26.5 -13 -33.5s-26.334 -11.5 -53.001 -13.5
c-13.333 -1.33301 -32.833 -2.16602 -58.5 -2.49902s-51.834 -0.5 -78.501 -0.5s-50.667 -0.166992 -72 -0.5s-34.666 -0.5 -39.999 -0.5c-17.333 -0.666992 -29.5 -4.5 -36.5 -11.5s-10.5 -23.5 -10.5 -49.5c0 -6 0.5 -20.5 1.5 -43.5s1.5 -55.167 1.5 -96.5h83
c35.333 0 64.166 -0.5 86.499 -1.5s39.666 -3.16699 51.999 -6.5s20.833 -8.66602 25.5 -15.999s7 -17 7 -29c0 -6 -0.5 -11.5 -1.5 -16.5s-3.83301 -9.33301 -8.5 -13s-11.334 -6.66699 -20.001 -9s-21 -4.16602 -37 -5.49902
c-19.333 -1.33301 -37.5 -2.16602 -54.5 -2.49902s-33.833 -0.5 -50.5 -0.5h-84v-36v-43c0 -14.667 0.166992 -29 0.5 -43s0.833008 -25.333 1.5 -34c0.666992 -10.667 2.16699 -19.667 4.5 -27s6.66602 -13.333 12.999 -18s15.666 -8 27.999 -10s28.833 -3 49.5 -3h215
c23.333 0 38 -4.33301 44 -13s9 -20.334 9 -35.001c0 -12 -2.66699 -21.167 -8 -27.5s-18.166 -11 -38.499 -14s-50.666 -4.83301 -90.999 -5.5s-95.833 -1 -166.5 -1c-30 0 -54.667 2.66699 -74 8s-35 14.333 -47 27s-20.833 29.167 -26.5 49.5s-9.5 45.166 -11.5 74.499z
M212.004 918.996c15.333 0 29.5 -6 42.5 -18s19.5 -26.333 19.5 -43c0 -16 -6.66699 -29.833 -20 -41.5s-28.333 -17.5 -45 -17.5c-14 0 -27.167 5.83301 -39.5 17.5s-18.5 26.167 -18.5 43.5c0 16 6.16699 29.833 18.5 41.5s26.5 17.5 42.5 17.5zM392.004 918.996
c15.333 0 29.5 -6 42.5 -18s19.5 -26.333 19.5 -43c0 -16 -6.66699 -29.833 -20 -41.5s-28.333 -17.5 -45 -17.5c-14 0 -27.167 5.83301 -39.5 17.5s-18.5 26.167 -18.5 43.5c0 16 6.16699 29.833 18.5 41.5s26.5 17.5 42.5 17.5z" />
    <glyph glyph-name="Igrave" unicode="&#xcc;" horiz-adv-x="244" 
d="M75 62c-1.33301 24 -2.16602 48.999 -2.49902 74.999s-0.833008 54 -1.5 84s-1 62.5 -1 97.5v117.5c0 47.333 0.333008 87.833 1 121.5s2.66699 61.167 6 82.5s8.5 37 15.5 47s16.5 15 28.5 15c6 0 11.667 -0.666992 17 -2s10 -4.16602 14 -8.49902
s7.5 -10.666 10.5 -18.999s4.83301 -19.166 5.5 -32.499c1.33301 -24 2.33301 -45.333 3 -64l2 -55.5c0.666992 -18.333 1 -37.333 1 -57v-66.5v-86c0 -27.333 -0.333008 -54.333 -1 -81l-2 -81c-0.666992 -27.333 -1.66699 -56 -3 -86
c-0.666992 -16 -2.33398 -28.333 -5.00098 -37s-6 -15.334 -10 -20.001s-8.66699 -7.5 -14 -8.5s-11.333 -1.5 -18 -1.5c-12 0 -22.333 4.16699 -31 12.5s-13.667 26.166 -15 53.499zM160 776.999c-10 0 -22.6641 2.33398 -37.9971 7.00098s-31.5 10.667 -48.5 18
s-34.167 15.833 -51.5 25.5s-33 19.5 -47 29.5s-25.333 19.833 -34 29.5s-13 18.5 -13 26.5c0 12.667 4 22 12 28s17.667 9 29 9c12.667 0 31.167 -5.33301 55.5 -16s48.666 -23.667 72.999 -39s45.666 -31.333 63.999 -48s28.166 -31.334 29.499 -44.001
c0 -10 -3.33301 -16.5 -10 -19.5s-13.667 -5.16699 -21 -6.5z" />
    <glyph glyph-name="Iacute" unicode="&#xcd;" horiz-adv-x="244" 
d="M75 62c-1.33301 24 -2.16602 48.999 -2.49902 74.999s-0.833008 54 -1.5 84s-1 62.5 -1 97.5v117.5c0 47.333 0.333008 87.833 1 121.5s2.66699 61.167 6 82.5s8.5 37 15.5 47s16.5 15 28.5 15c6 0 11.667 -0.666992 17 -2s10 -4.16602 14 -8.49902
s7.5 -10.666 10.5 -18.999s4.83301 -19.166 5.5 -32.499c1.33301 -24 2.33301 -45.333 3 -64l2 -55.5c0.666992 -18.333 1 -37.333 1 -57v-66.5v-86c0 -27.333 -0.333008 -54.333 -1 -81l-2 -81c-0.666992 -27.333 -1.66699 -56 -3 -86
c-0.666992 -16 -2.33398 -28.333 -5.00098 -37s-6 -15.334 -10 -20.001s-8.66699 -7.5 -14 -8.5s-11.333 -1.5 -18 -1.5c-12 0 -22.333 4.16699 -31 12.5s-13.667 26.166 -15 53.499zM64 772.999c-7.33301 1.33301 -14.499 3.83398 -21.499 7.50098s-10.5 10.5 -10.5 20.5
c0.666992 8 5.5 17.333 14.5 28s20.167 21.5 33.5 32.5s28.333 21.667 45 32s33.167 19.5 49.5 27.5s31.5 14.5 45.5 19.5s25.333 7.5 34 7.5c11.333 0 21.166 -3.33301 29.499 -10s12.5 -16.334 12.5 -29.001c0 -8 -4.33301 -16.833 -13 -26.5s-20 -19.5 -34 -29.5
s-29.667 -19.833 -47 -29.5s-34.5 -18.167 -51.5 -25.5s-33.167 -13.333 -48.5 -18s-28 -7 -38 -7z" />
    <glyph glyph-name="Icircumflex" unicode="&#xce;" horiz-adv-x="244" 
d="M75 62c-1.33301 24 -2.16602 48.999 -2.49902 74.999s-0.833008 54 -1.5 84s-1 62.5 -1 97.5v117.5c0 47.333 0.333008 87.833 1 121.5s2.66699 61.167 6 82.5s8.5 37 15.5 47s16.5 15 28.5 15c6 0 11.667 -0.666992 17 -2s10 -4.16602 14 -8.49902
s7.5 -10.666 10.5 -18.999s4.83301 -19.166 5.5 -32.499c1.33301 -24 2.33301 -45.333 3 -64l2 -55.5c0.666992 -18.333 1 -37.333 1 -57v-66.5v-86c0 -27.333 -0.333008 -54.333 -1 -81l-2 -81c-0.666992 -27.333 -1.66699 -56 -3 -86
c-0.666992 -16 -2.33398 -28.333 -5.00098 -37s-6 -15.334 -10 -20.001s-8.66699 -7.5 -14 -8.5s-11.333 -1.5 -18 -1.5c-12 0 -22.333 4.16699 -31 12.5s-13.667 26.166 -15 53.499zM120 946.999c6.66699 0 15.832 -2.83203 27.499 -8.49902s23.834 -12.667 36.501 -21
s25.167 -17.666 37.5 -27.999s22.833 -19.833 31.5 -28.5c7.33301 -8 13.166 -15.833 17.499 -23.5s6.5 -15.834 6.5 -24.501c0 -11.333 -3.5 -21.333 -10.5 -30s-17.167 -13 -30.5 -13c-11.333 0 -24.166 5 -38.499 15s-33.166 25.667 -56.499 47l-21 19l-21 -19
c-23.333 -21.333 -42.5 -36.833 -57.5 -46.5s-28.167 -14.5 -39.5 -14.5c-12 0 -21.833 3.83301 -29.5 11.5s-11.5 17.167 -11.5 28.5c0 6 1.83301 13.167 5.5 21.5s10.5 17.833 20.5 28.5c8.66699 8.66699 19.167 18.167 31.5 28.5s24.833 19.666 37.5 27.999
s24.667 15.333 36 21s20.666 8.5 27.999 8.5z" />
    <glyph glyph-name="Idieresis" unicode="&#xcf;" horiz-adv-x="244" 
d="M75 62c-1.33301 24 -2.16602 48.999 -2.49902 74.999s-0.833008 54 -1.5 84s-1 62.5 -1 97.5v117.5c0 47.333 0.333008 87.833 1 121.5s2.66699 61.167 6 82.5s8.5 37 15.5 47s16.5 15 28.5 15c6 0 11.667 -0.666992 17 -2s10 -4.16602 14 -8.49902
s7.5 -10.666 10.5 -18.999s4.83301 -19.166 5.5 -32.499c1.33301 -24 2.33301 -45.333 3 -64l2 -55.5c0.666992 -18.333 1 -37.333 1 -57v-66.5v-86c0 -27.333 -0.333008 -54.333 -1 -81l-2 -81c-0.666992 -27.333 -1.66699 -56 -3 -86
c-0.666992 -16 -2.33398 -28.333 -5.00098 -37s-6 -15.334 -10 -20.001s-8.66699 -7.5 -14 -8.5s-11.333 -1.5 -18 -1.5c-12 0 -22.333 4.16699 -31 12.5s-13.667 26.166 -15 53.499zM29 909.999c15.333 0 29.5 -6 42.5 -18s19.5 -26.333 19.5 -43
c0 -16 -6.66699 -29.833 -20 -41.5s-28.333 -17.5 -45 -17.5c-14 0 -27.167 5.83301 -39.5 17.5s-18.5 26.167 -18.5 43.5c0 16 6.16699 29.833 18.5 41.5s26.5 17.5 42.5 17.5zM209 909.999c15.333 0 29.5 -6 42.5 -18s19.5 -26.333 19.5 -43
c0 -16 -6.66699 -29.833 -20 -41.5s-28.333 -17.5 -45 -17.5c-14 0 -27.167 5.83301 -39.5 17.5s-18.5 26.167 -18.5 43.5c0 16 6.16699 29.833 18.5 41.5s26.5 17.5 42.5 17.5z" />
    <glyph glyph-name="Eth" unicode="&#xd0;" horiz-adv-x="659" 
d="M305 707c68.667 0 123.665 -10.3311 164.998 -30.998s73 -48 95 -82s36.5 -72.667 43.5 -116s10.5 -87.333 10.5 -132c0 -48.667 -6.16699 -94.667 -18.5 -138s-31.333 -81.166 -57 -113.499s-58.5 -58 -98.5 -77s-87.667 -28.5 -143 -28.5
c-44 0 -79.167 3.16699 -105.5 9.5s-46.666 15.833 -60.999 28.5s-23.833 28.667 -28.5 48s-7 42 -7 68v144c-32 0.666992 -55 3.66699 -69 9s-21 18.666 -21 39.999c0 15.333 6.83301 26.666 20.5 33.999s36.834 12.333 69.501 15v134c0 28.667 2.5 54.667 7.5 78
s14.833 43.166 29.5 59.499s35.5 28.833 62.5 37.5s62.167 13 105.5 13zM308.998 89.002c41.333 0 75.5 7.49902 102.5 22.499s48.5 34.833 64.5 59.5s27.167 52.667 33.5 84s9.5 63.333 9.5 96c0 30 -2.33301 60.167 -7 90.5s-14.334 57.833 -29.001 82.5
s-35.667 44.667 -63 60s-63.666 23 -108.999 23c-41.333 0 -70 -6 -86 -18s-24 -30.333 -24 -55v-147c36.667 -1.33301 66 -2.66602 88 -3.99902s39 -3.83301 51 -7.5s20 -8.5 24 -14.5s6 -14.333 6 -25c0 -10 -2.5 -18 -7.5 -24s-13.667 -10.833 -26 -14.5
s-29.5 -6.16699 -51.5 -7.5s-50 -2.33301 -84 -3v-136c0 -20.667 7.5 -36.167 22.5 -46.5s43.5 -15.5 85.5 -15.5z" />
    <glyph glyph-name="Ntilde" unicode="&#xd1;" horiz-adv-x="631" 
d="M456 47c-21.333 29.333 -41.501 58.502 -60.501 87.502l-61 95.5l-74 115.5l-99.5 148.5v-134.5c0 -39.667 -0.333008 -76.5 -1 -110.5s-1.33398 -66 -2.00098 -96s-1.66699 -60 -3 -90c-0.666992 -16 -2.16699 -28.333 -4.5 -37s-5.5 -15.334 -9.5 -20.001
s-8.5 -7.5 -13.5 -8.5s-10.833 -1.5 -17.5 -1.5c-12 0 -22 4.16699 -30 12.5s-12.667 26.166 -14 53.499c-3.33301 73.333 -5.16602 146.833 -5.49902 220.5s-0.5 149.834 -0.5 228.501c0 44.667 0.5 79.667 1.5 105s3.33301 44.333 7 57s8.66699 20.667 15 24
s14.833 5 25.5 5s24.667 -8.16699 42 -24.5s36.333 -37.833 57 -64.5s42.834 -57.334 66.501 -92.001l70.5 -107l67.5 -109l59.5 -98c-0.666992 31.333 -1 65.833 -1 103.5v125.5c0 52.667 0.333008 96.167 1 130.5s2.5 61.5 5.5 81.5s7.83301 34 14.5 42s16 12 28 12
c11.333 0 21.333 -3.66699 30 -11s13.667 -24.333 15 -51c1.33301 -24 2.33301 -45.333 3 -64l2 -55.5c0.666992 -18.333 1 -37.333 1 -57v-66.5v-86c0 -27.333 -0.333008 -54.333 -1 -81l-2 -81c-0.666992 -27.333 -1.66699 -56 -3 -86
c-0.666992 -16 -2.16699 -28.333 -4.5 -37s-5.5 -15.334 -9.5 -20.001s-8.5 -7.5 -13.5 -8.5s-10.833 -1.5 -17.5 -1.5c-11.333 0 -21 3.33301 -29 10s-19.667 20.334 -35 41.001zM236.999 843.002c-10.667 0 -19.9961 -2.33203 -27.9961 -6.99902s-15.5 -10 -22.5 -16
s-14 -11.333 -21 -16s-14.5 -7 -22.5 -7c-8.66699 0 -15.834 3.5 -21.501 10.5s-8.5 16.167 -8.5 27.5s2.33301 23.333 7 36s11.834 24.167 21.501 34.5s21.5 19 35.5 26s30.333 10.5 49 10.5c19.333 0 35.666 -2.5 48.999 -7.5s25.166 -10.667 35.499 -17
s20.5 -12 30.5 -17s21.667 -7.5 35 -7.5c20 0 34.833 2.33301 44.5 7s17 10 22 16s9.16699 11.333 12.5 16s8.66602 7 15.999 7c9.33301 0 18 -2.66699 26 -8s12 -13 12 -23c0 -15.333 -2.83301 -29.833 -8.5 -43.5s-14.167 -25.834 -25.5 -36.501
s-25.5 -19.167 -42.5 -25.5s-36.5 -9.5 -58.5 -9.5c-14 0 -26.667 2.66699 -38 8s-22.333 11 -33 17s-21.334 11.667 -32.001 17s-22 8 -34 8z" />
    <glyph glyph-name="Ograve" unicode="&#xd2;" 
d="M328 -10c-40 0 -77.502 8 -112.502 24s-65.5 39.167 -91.5 69.5s-46.5 67.5 -61.5 111.5s-22.5 94 -22.5 150c0 52.667 6.5 101 19.5 145s32.333 82 58 114s57.5 56.833 95.5 74.5s82 26.5 132 26.5c40.667 0 79.334 -7.33301 116.001 -22s68.834 -36.667 96.501 -66
s49.5 -66 65.5 -110s24 -95.333 24 -154c0 -48.667 -6.5 -95 -19.5 -139s-32.667 -82.5 -59 -115.5s-59.5 -59.333 -99.5 -79s-87 -29.5 -141 -29.5zM329.998 84c36.667 0 68.668 7.5 96.001 22.5s50 34.833 68 59.5s31.333 53.167 40 85.5s13 65.5 13 99.5
c0 41.333 -5.5 78.166 -16.5 110.499s-25.833 59.5 -44.5 81.5s-40.334 38.833 -65.001 50.5s-51 17.5 -79 17.5c-33.333 0 -62.5 -7 -87.5 -21s-46 -33 -63 -57s-29.833 -52.167 -38.5 -84.5s-13 -66.833 -13 -103.5c0 -39.333 5 -75.166 15 -107.499
s23.5 -59.833 40.5 -82.5s37.167 -40.167 60.5 -52.5s48 -18.5 74 -18.5zM374.999 779c-10 0 -22.6641 2.33398 -37.9971 7.00098s-31.5 10.667 -48.5 18s-34.167 15.833 -51.5 25.5s-33 19.5 -47 29.5s-25.333 19.833 -34 29.5s-13 18.5 -13 26.5c0 12.667 4 22 12 28
s17.667 9 29 9c12.667 0 31.167 -5.33301 55.5 -16s48.666 -23.667 72.999 -39s45.666 -31.333 63.999 -48s28.166 -31.334 29.499 -44.001c0 -10 -3.33301 -16.5 -10 -19.5s-13.667 -5.16699 -21 -6.5z" />
    <glyph glyph-name="Oacute" unicode="&#xd3;" 
d="M328 -10c-40 0 -77.502 8 -112.502 24s-65.5 39.167 -91.5 69.5s-46.5 67.5 -61.5 111.5s-22.5 94 -22.5 150c0 52.667 6.5 101 19.5 145s32.333 82 58 114s57.5 56.833 95.5 74.5s82 26.5 132 26.5c40.667 0 79.334 -7.33301 116.001 -22s68.834 -36.667 96.501 -66
s49.5 -66 65.5 -110s24 -95.333 24 -154c0 -48.667 -6.5 -95 -19.5 -139s-32.667 -82.5 -59 -115.5s-59.5 -59.333 -99.5 -79s-87 -29.5 -141 -29.5zM329.998 84c36.667 0 68.668 7.5 96.001 22.5s50 34.833 68 59.5s31.333 53.167 40 85.5s13 65.5 13 99.5
c0 41.333 -5.5 78.166 -16.5 110.499s-25.833 59.5 -44.5 81.5s-40.334 38.833 -65.001 50.5s-51 17.5 -79 17.5c-33.333 0 -62.5 -7 -87.5 -21s-46 -33 -63 -57s-29.833 -52.167 -38.5 -84.5s-13 -66.833 -13 -103.5c0 -39.333 5 -75.166 15 -107.499
s23.5 -59.833 40.5 -82.5s37.167 -40.167 60.5 -52.5s48 -18.5 74 -18.5zM280.999 777c-7.33301 1.33301 -14.499 3.83398 -21.499 7.50098s-10.5 10.5 -10.5 20.5c0.666992 8 5.5 17.333 14.5 28s20.167 21.5 33.5 32.5s28.333 21.667 45 32s33.167 19.5 49.5 27.5
s31.5 14.5 45.5 19.5s25.333 7.5 34 7.5c11.333 0 21.166 -3.33301 29.499 -10s12.5 -16.334 12.5 -29.001c0 -8 -4.33301 -16.833 -13 -26.5s-20 -19.5 -34 -29.5s-29.667 -19.833 -47 -29.5s-34.5 -18.167 -51.5 -25.5s-33.167 -13.333 -48.5 -18s-28 -7 -38 -7z" />
    <glyph glyph-name="Ocircumflex" unicode="&#xd4;" 
d="M328 -10c-40 0 -77.502 8 -112.502 24s-65.5 39.167 -91.5 69.5s-46.5 67.5 -61.5 111.5s-22.5 94 -22.5 150c0 52.667 6.5 101 19.5 145s32.333 82 58 114s57.5 56.833 95.5 74.5s82 26.5 132 26.5c40.667 0 79.334 -7.33301 116.001 -22s68.834 -36.667 96.501 -66
s49.5 -66 65.5 -110s24 -95.333 24 -154c0 -48.667 -6.5 -95 -19.5 -139s-32.667 -82.5 -59 -115.5s-59.5 -59.333 -99.5 -79s-87 -29.5 -141 -29.5zM329.998 84c36.667 0 68.668 7.5 96.001 22.5s50 34.833 68 59.5s31.333 53.167 40 85.5s13 65.5 13 99.5
c0 41.333 -5.5 78.166 -16.5 110.499s-25.833 59.5 -44.5 81.5s-40.334 38.833 -65.001 50.5s-51 17.5 -79 17.5c-33.333 0 -62.5 -7 -87.5 -21s-46 -33 -63 -57s-29.833 -52.167 -38.5 -84.5s-13 -66.833 -13 -103.5c0 -39.333 5 -75.166 15 -107.499
s23.5 -59.833 40.5 -82.5s37.167 -40.167 60.5 -52.5s48 -18.5 74 -18.5zM333.999 942c6.66699 0 15.832 -2.83203 27.499 -8.49902s23.834 -12.667 36.501 -21s25.167 -17.666 37.5 -27.999s22.833 -19.833 31.5 -28.5c7.33301 -8 13.166 -15.833 17.499 -23.5
s6.5 -15.834 6.5 -24.501c0 -11.333 -3.5 -21.333 -10.5 -30s-17.167 -13 -30.5 -13c-11.333 0 -24.166 5 -38.499 15s-33.166 25.667 -56.499 47l-21 19l-21 -19c-23.333 -21.333 -42.5 -36.833 -57.5 -46.5s-28.167 -14.5 -39.5 -14.5c-12 0 -21.833 3.83301 -29.5 11.5
s-11.5 17.167 -11.5 28.5c0 6 1.83301 13.167 5.5 21.5s10.5 17.833 20.5 28.5c8.66699 8.66699 19.167 18.167 31.5 28.5s24.833 19.666 37.5 27.999s24.667 15.333 36 21s20.666 8.5 27.999 8.5z" />
    <glyph glyph-name="Otilde" unicode="&#xd5;" 
d="M328 -10c-40 0 -77.502 8 -112.502 24s-65.5 39.167 -91.5 69.5s-46.5 67.5 -61.5 111.5s-22.5 94 -22.5 150c0 52.667 6.5 101 19.5 145s32.333 82 58 114s57.5 56.833 95.5 74.5s82 26.5 132 26.5c40.667 0 79.334 -7.33301 116.001 -22s68.834 -36.667 96.501 -66
s49.5 -66 65.5 -110s24 -95.333 24 -154c0 -48.667 -6.5 -95 -19.5 -139s-32.667 -82.5 -59 -115.5s-59.5 -59.333 -99.5 -79s-87 -29.5 -141 -29.5zM329.998 84c36.667 0 68.668 7.5 96.001 22.5s50 34.833 68 59.5s31.333 53.167 40 85.5s13 65.5 13 99.5
c0 41.333 -5.5 78.166 -16.5 110.499s-25.833 59.5 -44.5 81.5s-40.334 38.833 -65.001 50.5s-51 17.5 -79 17.5c-33.333 0 -62.5 -7 -87.5 -21s-46 -33 -63 -57s-29.833 -52.167 -38.5 -84.5s-13 -66.833 -13 -103.5c0 -39.333 5 -75.166 15 -107.499
s23.5 -59.833 40.5 -82.5s37.167 -40.167 60.5 -52.5s48 -18.5 74 -18.5zM260.999 852c-10.667 0 -19.9961 -2.33203 -27.9961 -6.99902s-15.5 -10 -22.5 -16s-14 -11.333 -21 -16s-14.5 -7 -22.5 -7c-8.66699 0 -15.834 3.5 -21.501 10.5s-8.5 16.167 -8.5 27.5
s2.33301 23.333 7 36s11.834 24.167 21.501 34.5s21.5 19 35.5 26s30.333 10.5 49 10.5c19.333 0 35.666 -2.5 48.999 -7.5s25.166 -10.667 35.499 -17s20.5 -12 30.5 -17s21.667 -7.5 35 -7.5c20 0 34.833 2.33301 44.5 7s17 10 22 16s9.16699 11.333 12.5 16
s8.66602 7 15.999 7c9.33301 0 18 -2.66699 26 -8s12 -13 12 -23c0 -15.333 -2.83301 -29.833 -8.5 -43.5s-14.167 -25.834 -25.5 -36.501s-25.5 -19.167 -42.5 -25.5s-36.5 -9.5 -58.5 -9.5c-14 0 -26.667 2.66699 -38 8s-22.333 11 -33 17s-21.334 11.667 -32.001 17
s-22 8 -34 8z" />
    <glyph glyph-name="Odieresis" unicode="&#xd6;" 
d="M328 -10c-40 0 -77.502 8 -112.502 24s-65.5 39.167 -91.5 69.5s-46.5 67.5 -61.5 111.5s-22.5 94 -22.5 150c0 52.667 6.5 101 19.5 145s32.333 82 58 114s57.5 56.833 95.5 74.5s82 26.5 132 26.5c40.667 0 79.334 -7.33301 116.001 -22s68.834 -36.667 96.501 -66
s49.5 -66 65.5 -110s24 -95.333 24 -154c0 -48.667 -6.5 -95 -19.5 -139s-32.667 -82.5 -59 -115.5s-59.5 -59.333 -99.5 -79s-87 -29.5 -141 -29.5zM329.998 84c36.667 0 68.668 7.5 96.001 22.5s50 34.833 68 59.5s31.333 53.167 40 85.5s13 65.5 13 99.5
c0 41.333 -5.5 78.166 -16.5 110.499s-25.833 59.5 -44.5 81.5s-40.334 38.833 -65.001 50.5s-51 17.5 -79 17.5c-33.333 0 -62.5 -7 -87.5 -21s-46 -33 -63 -57s-29.833 -52.167 -38.5 -84.5s-13 -66.833 -13 -103.5c0 -39.333 5 -75.166 15 -107.499
s23.5 -59.833 40.5 -82.5s37.167 -40.167 60.5 -52.5s48 -18.5 74 -18.5zM247.999 922c15.333 0 29.5 -6 42.5 -18s19.5 -26.333 19.5 -43c0 -16 -6.66699 -29.833 -20 -41.5s-28.333 -17.5 -45 -17.5c-14 0 -27.167 5.83301 -39.5 17.5s-18.5 26.167 -18.5 43.5
c0 16 6.16699 29.833 18.5 41.5s26.5 17.5 42.5 17.5zM427.999 922c15.333 0 29.5 -6 42.5 -18s19.5 -26.333 19.5 -43c0 -16 -6.66699 -29.833 -20 -41.5s-28.333 -17.5 -45 -17.5c-14 0 -27.167 5.83301 -39.5 17.5s-18.5 26.167 -18.5 43.5
c0 16 6.16699 29.833 18.5 41.5s26.5 17.5 42.5 17.5z" />
    <glyph glyph-name="multiply" unicode="&#xd7;" horiz-adv-x="357" 
d="M248 350c15.333 -17.333 29.334 -32.1689 42.001 -44.502l32.5 -32.5c9 -9.33301 15.833 -17.666 20.5 -24.999s7 -15 7 -23c0 -3.33301 -1.16699 -7.66602 -3.5 -12.999s-5.5 -10.333 -9.5 -15s-8.66699 -8.66699 -14 -12s-11.333 -5 -18 -5
c-7.33301 0 -15.833 3 -25.5 9s-20.167 13.667 -31.5 23s-23 19.833 -35 31.5l-35 34.5l-47.5 -47.5c-13 -13 -24.333 -23.5 -34 -31.5s-17.667 -13.667 -24 -17s-12.5 -5 -18.5 -5c-3.33301 0 -7.66602 1.16699 -12.999 3.5s-10.333 5.5 -15 9.5s-8.66699 8.66699 -12 14
s-5 11.333 -5 18c0 7.33301 3 15.833 9 25.5s13.667 20.167 23 31.5s19.833 23 31.5 35l34.5 35c-10.667 10 -21.834 21.333 -33.501 34s-22.334 25 -32.001 37s-17.667 23 -24 33s-9.5 18 -9.5 24c0 8.66699 4.5 17.667 13.5 27s18.5 14 28.5 14
c6.66699 0 14 -2.16699 22 -6.5s17.667 -11.5 29 -21.5l76 -71l34 32.5c12.667 11.667 25 22.5 37 32.5s23.167 18.333 33.5 25s18.5 10 24.5 10c8.66699 0 17.667 -4.5 27 -13.5s14 -18.5 14 -28.5c0 -6.66699 -2.16699 -14.167 -6.5 -22.5s-11.5 -17.833 -21.5 -28.5z" />
    <glyph glyph-name="Oslash" unicode="&#xd8;" 
d="M328 -10c-70.667 0 -131.329 23.333 -181.996 70l-27 -27c-8.66699 -8.66699 -17.334 -16.667 -26.001 -24c-12 -11.333 -22.167 -19.166 -30.5 -23.499s-15.833 -6.5 -22.5 -6.5c-10 0 -19 4.16699 -27 12.5s-12 17.5 -12 27.5c0 8.66699 2 16.667 6 24s11.333 17 22 29
l58 64c-15.333 28 -27 59.333 -35 94s-12 73 -12 115c0 52.667 6.5 101 19.5 145s32.333 82 58 114s57.5 56.833 95.5 74.5s82 26.5 132 26.5c38 0 74.167 -6.5 108.5 -19.5s65.166 -32.167 92.499 -57.5c21.333 22.667 40.166 40.834 56.499 54.501
s30.166 20.5 41.499 20.5c9.33301 0 17.833 -4 25.5 -12s11.5 -17 11.5 -27c0 -13.333 -8 -29 -24 -47l-56 -62c14.667 -26.667 26 -56.834 34 -90.501s12 -70.834 12 -111.501c0 -48.667 -6.5 -95 -19.5 -139s-32.667 -82.5 -59 -115.5s-59.5 -59.333 -99.5 -79
s-87 -29.5 -141 -29.5zM478.005 552c-38 39.333 -83.333 59 -136 59c-33.333 0 -62.5 -7 -87.5 -21s-46 -33 -63 -57s-29.833 -52.167 -38.5 -84.5s-13 -66.833 -13 -103.5c0 -47.333 7.33301 -90.333 22 -129l131 140l136 143zM330.005 84c36.667 0 68.667 7.5 96 22.5
s50 34.833 68 59.5s31.333 53.167 40 85.5s13 65.5 13 99.5c0 44 -6.66699 84 -20 120l-153.5 -172.5l-156.5 -167.5c31.333 -31.333 69 -47 113 -47z" />
    <glyph glyph-name="Ugrave" unicode="&#xd9;" horiz-adv-x="612" 
d="M301 -17c-76 0 -131.667 20.666 -167 61.999c-14 16 -25.833 36.5 -35.5 61.5s-17.334 57.5 -23.001 97.5s-9.66699 89.5 -12 148.5s-3.5 130.833 -3.5 215.5c0 27.333 0.666992 49.833 2 67.5s4 31.667 8 42s9.16699 17.5 15.5 21.5s14.5 6 24.5 6
c19.333 0 33 -8.66699 41 -26s12 -47.333 12 -90c0 -14.667 -0.166992 -27.667 -0.5 -39s-0.5 -22.833 -0.5 -34.5s-0.166992 -24.5 -0.5 -38.5s-0.5 -31 -0.5 -51c0 -66.667 2.16699 -122 6.5 -166s11.833 -79.167 22.5 -105.5s25.167 -44.833 43.5 -55.5
s41.166 -16 68.499 -16c28.667 0 52.5 5.83301 71.5 17.5s34.167 31.334 45.5 59.001s19.5 64.5 24.5 110.5s7.5 103.333 7.5 172c0 30 -0.166992 55.667 -0.5 77s-0.5 40.666 -0.5 57.999c0 24.667 0.833008 45.334 2.5 62.001s4.33398 29.834 8.00098 39.501
s8.83398 16.5 15.501 20.5s15 6 25 6s18.333 -2 25 -6s12 -11 16 -21s6.66699 -23.833 8 -41.5s2 -40.5 2 -68.5c0 -117.333 -3.66699 -213.833 -11 -289.5s-20.333 -135.334 -39 -179.001s-44.167 -74 -76.5 -91s-73.833 -25.5 -124.5 -25.5zM309 778.999
c-10 0 -22.6641 2.33398 -37.9971 7.00098s-31.5 10.667 -48.5 18s-34.167 15.833 -51.5 25.5s-33 19.5 -47 29.5s-25.333 19.833 -34 29.5s-13 18.5 -13 26.5c0 12.667 4 22 12 28s17.667 9 29 9c12.667 0 31.167 -5.33301 55.5 -16s48.666 -23.667 72.999 -39
s45.666 -31.333 63.999 -48s28.166 -31.334 29.499 -44.001c0 -10 -3.33301 -16.5 -10 -19.5s-13.667 -5.16699 -21 -6.5z" />
    <glyph glyph-name="Uacute" unicode="&#xda;" horiz-adv-x="612" 
d="M301 -17c-76 0 -131.667 20.666 -167 61.999c-14 16 -25.833 36.5 -35.5 61.5s-17.334 57.5 -23.001 97.5s-9.66699 89.5 -12 148.5s-3.5 130.833 -3.5 215.5c0 27.333 0.666992 49.833 2 67.5s4 31.667 8 42s9.16699 17.5 15.5 21.5s14.5 6 24.5 6
c19.333 0 33 -8.66699 41 -26s12 -47.333 12 -90c0 -14.667 -0.166992 -27.667 -0.5 -39s-0.5 -22.833 -0.5 -34.5s-0.166992 -24.5 -0.5 -38.5s-0.5 -31 -0.5 -51c0 -66.667 2.16699 -122 6.5 -166s11.833 -79.167 22.5 -105.5s25.167 -44.833 43.5 -55.5
s41.166 -16 68.499 -16c28.667 0 52.5 5.83301 71.5 17.5s34.167 31.334 45.5 59.001s19.5 64.5 24.5 110.5s7.5 103.333 7.5 172c0 30 -0.166992 55.667 -0.5 77s-0.5 40.666 -0.5 57.999c0 24.667 0.833008 45.334 2.5 62.001s4.33398 29.834 8.00098 39.501
s8.83398 16.5 15.501 20.5s15 6 25 6s18.333 -2 25 -6s12 -11 16 -21s6.66699 -23.833 8 -41.5s2 -40.5 2 -68.5c0 -117.333 -3.66699 -213.833 -11 -289.5s-20.333 -135.334 -39 -179.001s-44.167 -74 -76.5 -91s-73.833 -25.5 -124.5 -25.5zM239 776.999
c-7.33301 1.33301 -14.499 3.83398 -21.499 7.50098s-10.5 10.5 -10.5 20.5c0.666992 8 5.5 17.333 14.5 28s20.167 21.5 33.5 32.5s28.333 21.667 45 32s33.167 19.5 49.5 27.5s31.5 14.5 45.5 19.5s25.333 7.5 34 7.5c11.333 0 21.166 -3.33301 29.499 -10
s12.5 -16.334 12.5 -29.001c0 -8 -4.33301 -16.833 -13 -26.5s-20 -19.5 -34 -29.5s-29.667 -19.833 -47 -29.5s-34.5 -18.167 -51.5 -25.5s-33.167 -13.333 -48.5 -18s-28 -7 -38 -7z" />
    <glyph glyph-name="Ucircumflex" unicode="&#xdb;" horiz-adv-x="612" 
d="M301 -17c-76 0 -131.667 20.666 -167 61.999c-14 16 -25.833 36.5 -35.5 61.5s-17.334 57.5 -23.001 97.5s-9.66699 89.5 -12 148.5s-3.5 130.833 -3.5 215.5c0 27.333 0.666992 49.833 2 67.5s4 31.667 8 42s9.16699 17.5 15.5 21.5s14.5 6 24.5 6
c19.333 0 33 -8.66699 41 -26s12 -47.333 12 -90c0 -14.667 -0.166992 -27.667 -0.5 -39s-0.5 -22.833 -0.5 -34.5s-0.166992 -24.5 -0.5 -38.5s-0.5 -31 -0.5 -51c0 -66.667 2.16699 -122 6.5 -166s11.833 -79.167 22.5 -105.5s25.167 -44.833 43.5 -55.5
s41.166 -16 68.499 -16c28.667 0 52.5 5.83301 71.5 17.5s34.167 31.334 45.5 59.001s19.5 64.5 24.5 110.5s7.5 103.333 7.5 172c0 30 -0.166992 55.667 -0.5 77s-0.5 40.666 -0.5 57.999c0 24.667 0.833008 45.334 2.5 62.001s4.33398 29.834 8.00098 39.501
s8.83398 16.5 15.501 20.5s15 6 25 6s18.333 -2 25 -6s12 -11 16 -21s6.66699 -23.833 8 -41.5s2 -40.5 2 -68.5c0 -117.333 -3.66699 -213.833 -11 -289.5s-20.333 -135.334 -39 -179.001s-44.167 -74 -76.5 -91s-73.833 -25.5 -124.5 -25.5zM308 950.999
c6.66699 0 15.832 -2.83203 27.499 -8.49902s23.834 -12.667 36.501 -21s25.167 -17.666 37.5 -27.999s22.833 -19.833 31.5 -28.5c7.33301 -8 13.166 -15.833 17.499 -23.5s6.5 -15.834 6.5 -24.501c0 -11.333 -3.5 -21.333 -10.5 -30s-17.167 -13 -30.5 -13
c-11.333 0 -24.166 5 -38.499 15s-33.166 25.667 -56.499 47l-21 19l-21 -19c-23.333 -21.333 -42.5 -36.833 -57.5 -46.5s-28.167 -14.5 -39.5 -14.5c-12 0 -21.833 3.83301 -29.5 11.5s-11.5 17.167 -11.5 28.5c0 6 1.83301 13.167 5.5 21.5s10.5 17.833 20.5 28.5
c8.66699 8.66699 19.167 18.167 31.5 28.5s24.833 19.666 37.5 27.999s24.667 15.333 36 21s20.666 8.5 27.999 8.5z" />
    <glyph glyph-name="Udieresis" unicode="&#xdc;" horiz-adv-x="612" 
d="M301 -17c-76 0 -131.667 20.666 -167 61.999c-14 16 -25.833 36.5 -35.5 61.5s-17.334 57.5 -23.001 97.5s-9.66699 89.5 -12 148.5s-3.5 130.833 -3.5 215.5c0 27.333 0.666992 49.833 2 67.5s4 31.667 8 42s9.16699 17.5 15.5 21.5s14.5 6 24.5 6
c19.333 0 33 -8.66699 41 -26s12 -47.333 12 -90c0 -14.667 -0.166992 -27.667 -0.5 -39s-0.5 -22.833 -0.5 -34.5s-0.166992 -24.5 -0.5 -38.5s-0.5 -31 -0.5 -51c0 -66.667 2.16699 -122 6.5 -166s11.833 -79.167 22.5 -105.5s25.167 -44.833 43.5 -55.5
s41.166 -16 68.499 -16c28.667 0 52.5 5.83301 71.5 17.5s34.167 31.334 45.5 59.001s19.5 64.5 24.5 110.5s7.5 103.333 7.5 172c0 30 -0.166992 55.667 -0.5 77s-0.5 40.666 -0.5 57.999c0 24.667 0.833008 45.334 2.5 62.001s4.33398 29.834 8.00098 39.501
s8.83398 16.5 15.501 20.5s15 6 25 6s18.333 -2 25 -6s12 -11 16 -21s6.66699 -23.833 8 -41.5s2 -40.5 2 -68.5c0 -117.333 -3.66699 -213.833 -11 -289.5s-20.333 -135.334 -39 -179.001s-44.167 -74 -76.5 -91s-73.833 -25.5 -124.5 -25.5zM215 904.999
c15.333 0 29.5 -6 42.5 -18s19.5 -26.333 19.5 -43c0 -16 -6.66699 -29.833 -20 -41.5s-28.333 -17.5 -45 -17.5c-14 0 -27.167 5.83301 -39.5 17.5s-18.5 26.167 -18.5 43.5c0 16 6.16699 29.833 18.5 41.5s26.5 17.5 42.5 17.5zM395 904.999c15.333 0 29.5 -6 42.5 -18
s19.5 -26.333 19.5 -43c0 -16 -6.66699 -29.833 -20 -41.5s-28.333 -17.5 -45 -17.5c-14 0 -27.167 5.83301 -39.5 17.5s-18.5 26.167 -18.5 43.5c0 16 6.16699 29.833 18.5 41.5s26.5 17.5 42.5 17.5z" />
    <glyph glyph-name="Yacute" unicode="&#xdd;" horiz-adv-x="568" 
d="M241 62c-1.33301 36.667 -2.5 75.834 -3.5 117.501s-1.5 89.834 -1.5 144.501l-199 285c-5.33301 7.33301 -9.5 15 -12.5 23s-4.5 15.667 -4.5 23c0 12.667 3.5 23.167 10.5 31.5s19.167 12.5 36.5 12.5c14 0 26.5 -3.83301 37.5 -11.5s21.167 -18.834 30.5 -33.501
l149 -237l149 237c9.33301 14.667 19.5 25.834 30.5 33.501s23.5 11.5 37.5 11.5c17.333 0 29.5 -4.16699 36.5 -12.5s10.5 -18.833 10.5 -31.5c0 -7.33301 -1.5 -15 -4.5 -23s-7.16699 -15.667 -12.5 -23l-195 -279c0 -45.333 -0.5 -88.833 -1.5 -130.5
s-2.5 -87.167 -4.5 -136.5c-0.666992 -16 -2.16699 -28.333 -4.5 -37s-5.5 -15.334 -9.5 -20.001s-8.5 -7.5 -13.5 -8.5s-10.833 -1.5 -17.5 -1.5c-12 0 -22 4.16699 -30 12.5s-12.667 26.166 -14 53.499zM235 776c-7.33301 1.33301 -14.499 3.83398 -21.499 7.50098
s-10.5 10.5 -10.5 20.5c0.666992 8 5.5 17.333 14.5 28s20.167 21.5 33.5 32.5s28.333 21.667 45 32s33.167 19.5 49.5 27.5s31.5 14.5 45.5 19.5s25.333 7.5 34 7.5c11.333 0 21.166 -3.33301 29.499 -10s12.5 -16.334 12.5 -29.001c0 -8 -4.33301 -16.833 -13 -26.5
s-20 -19.5 -34 -29.5s-29.667 -19.833 -47 -29.5s-34.5 -18.167 -51.5 -25.5s-33.167 -13.333 -48.5 -18s-28 -7 -38 -7z" />
    <glyph glyph-name="Thorn" unicode="&#xde;" horiz-adv-x="538" 
d="M35 49c-1.33301 24 -2.16992 52.4961 -2.50293 85.4961s-0.666016 68.833 -0.999023 107.5s-0.5 79 -0.5 121v128c0 47.333 0.333008 85 1 113s2.5 49.5 5.5 64.5s7.83301 24.667 14.5 29s16 6.5 28 6.5c4.66699 0 9.66699 -0.666992 15 -2s10 -4.16602 14 -8.49902
s7.5 -10.666 10.5 -18.999s4.83301 -19.166 5.5 -32.499l4 -89c18 9.33301 39.333 16.5 64 21.5s54 7.5 88 7.5c25.333 0 52 -3.83301 80 -11.5s53.833 -19.834 77.5 -36.501s43.167 -38.334 58.5 -65.001s23 -59 23 -97c0 -43.333 -6.83301 -79.166 -20.5 -107.499
s-33.667 -50.833 -60 -67.5s-59.166 -28.5 -98.499 -35.5s-84.666 -10.5 -135.999 -10.5h-34c-11.333 0 -24 0.666992 -38 2c0 -41.333 -1.5 -73.5 -4.5 -96.5s-6.83301 -40 -11.5 -51s-10.167 -17.5 -16.5 -19.5s-13.166 -3 -20.499 -3c-6 0 -11.5 0.666992 -16.5 2
s-9.5 4.33301 -13.5 9s-7.33301 11.334 -10 20.001s-4.33398 20.334 -5.00098 35.001zM419.996 361.996c0 22.667 -4.33398 41.667 -13.001 57s-19.667 27.666 -33 36.999s-28.5 16 -45.5 20s-33.5 6 -49.5 6c-27.333 0 -50.333 -1.5 -69 -4.5s-33.667 -8.66699 -45 -17
s-19.5 -20 -24.5 -35s-7.5 -34.5 -7.5 -58.5v-58c0 -19.333 0.333008 -39.666 1 -60.999c15.333 -0.666992 32.5 -1 51.5 -1h53.5c20.667 0 41.834 1.16699 63.501 3.5s41.167 7.33301 58.5 15s31.5 19.167 42.5 34.5s16.5 36 16.5 62z" />
    <glyph glyph-name="germandbls" unicode="&#xdf;" horiz-adv-x="553" 
d="M269 332c-12.667 1.33301 -23.5039 3.99902 -32.5039 7.99902s-13.5 14.667 -13.5 32c0 9.33301 1.33301 16.833 4 22.5s6.33398 10 11.001 13s9.5 5.16699 14.5 6.5s10.167 2.33301 15.5 3c10.667 1.33301 22 3.5 34 6.5s23.167 8.16699 33.5 15.5s19 18.166 26 32.499
s10.5 33.833 10.5 58.5c0 17.333 -2.16699 33.833 -6.5 49.5s-11.166 29.5 -20.499 41.5s-21.666 21.667 -36.999 29s-34.333 11 -57 11c-24 0 -43.333 -4 -58 -12s-25.834 -18.833 -33.501 -32.5s-12.667 -29.167 -15 -46.5s-3.5 -35 -3.5 -53v-451
c0 -15.333 -1.16699 -27.5 -3.5 -36.5s-5.33301 -15.667 -9 -20s-8 -7.16602 -13 -8.49902s-10.5 -2 -16.5 -2c-15.333 0 -28 4 -38 12s-15 26 -15 54v34v65.5c0 29 0.166992 67.5 0.5 115.5s0.833008 110 1.5 186c0 32.667 1.66699 65.5 5 98.5s11.833 62.667 25.5 89
s34.167 47.666 61.5 63.999s65.333 24.5 114 24.5c34 0 64.333 -4.83301 91 -14.5s49.5 -23.167 68.5 -40.5s33.5 -38.166 43.5 -62.499s15 -51.5 15 -81.5c0 -28.667 -6.16699 -57.5 -18.5 -86.5s-33.166 -51.833 -62.499 -68.5
c18.667 -3.33301 36.167 -10.666 52.5 -21.999s30.5 -25.5 42.5 -42.5s21.5 -36.667 28.5 -59s10.5 -45.833 10.5 -70.5c0 -28.667 -4.83301 -55 -14.5 -79s-24.167 -44.5 -43.5 -61.5s-43.666 -30.167 -72.999 -39.5s-63.666 -14 -102.999 -14c-32 0 -58.167 4 -78.5 12
s-30.5 23 -30.5 45c0 12 4 23.167 12 33.5s23 15.5 45 15.5c7.33301 0 13.666 -0.5 18.999 -1.5s10.833 -2.33301 16.5 -4s11.667 -3 18 -4s14.5 -1.5 24.5 -1.5c40.667 0 69.5 10.5 86.5 31.5s25.5 46.167 25.5 75.5c0 23.333 -4.66699 43 -14 59s-21.5 29 -36.5 39
s-32 17.333 -51 22s-38.5 8 -58.5 10z" />
    <glyph glyph-name="agrave" unicode="&#xe0;" horiz-adv-x="573" 
d="M471 -4c-10.667 0 -19.1699 1.83496 -25.5029 5.50195s-11.166 8.5 -14.499 14.5s-5.66602 13.167 -6.99902 21.5s-2.33301 17.166 -3 26.499c-16.667 -20.667 -38.167 -38 -64.5 -52s-59.833 -21 -100.5 -21c-26 0 -52.5 3.83301 -79.5 11.5s-51.5 21 -73.5 40
s-40 44.5 -54 76.5s-21 72.333 -21 121c0 38 4.66699 73.667 14 107s23.5 62.5 42.5 87.5s42.833 44.833 71.5 59.5s62.334 22 101.001 22c34 0 64.333 -6.16699 91 -18.5s50.667 -32.5 72 -60.5c0 8 0.333008 16.167 1 24.5s2.5 16 5.5 23s7.83301 12.667 14.5 17
s15.667 6.5 27 6.5c10 0 19.333 -4 28 -12s13.667 -25.333 15 -52c2 -35.333 3.5 -67 4.5 -95s1.5 -57 1.5 -87c0 -36.667 -0.333008 -70.334 -1 -101.001s-2.33398 -63.334 -5.00098 -98.001c-1.33301 -15.333 -3.16602 -27.5 -5.49902 -36.5
s-5.16602 -15.667 -8.49902 -20s-7.33301 -7.16602 -12 -8.49902s-9.33398 -2 -14.001 -2zM416.997 250.002c0 34.667 -5.16797 63 -15.501 85s-23.333 39.167 -39 51.5s-32.5 20.833 -50.5 25.5s-34.667 7 -50 7c-24 0 -44.5 -4.33301 -61.5 -13s-30.833 -20.5 -41.5 -35.5
s-18.5 -32.667 -23.5 -53s-7.5 -42.5 -7.5 -66.5c0 -58.667 12.833 -102 38.5 -130s60.5 -42 104.5 -42c26 0 48.167 4.5 66.5 13.5s33.333 21.167 45 36.5s20.334 33.5 26.001 54.5s8.5 43.167 8.5 66.5zM341.996 584.002c-10 0 -22.6641 2.33398 -37.9971 7.00098
s-31.5 10.667 -48.5 18s-34.167 15.833 -51.5 25.5s-33 19.5 -47 29.5s-25.333 19.833 -34 29.5s-13 18.5 -13 26.5c0 12.667 4 22 12 28s17.667 9 29 9c12.667 0 31.167 -5.33301 55.5 -16s48.666 -23.667 72.999 -39s45.666 -31.333 63.999 -48
s28.166 -31.334 29.499 -44.001c0 -10 -3.33301 -16.5 -10 -19.5s-13.667 -5.16699 -21 -6.5z" />
    <glyph glyph-name="aacute" unicode="&#xe1;" horiz-adv-x="573" 
d="M471 -4c-10.667 0 -19.1699 1.83496 -25.5029 5.50195s-11.166 8.5 -14.499 14.5s-5.66602 13.167 -6.99902 21.5s-2.33301 17.166 -3 26.499c-16.667 -20.667 -38.167 -38 -64.5 -52s-59.833 -21 -100.5 -21c-26 0 -52.5 3.83301 -79.5 11.5s-51.5 21 -73.5 40
s-40 44.5 -54 76.5s-21 72.333 -21 121c0 38 4.66699 73.667 14 107s23.5 62.5 42.5 87.5s42.833 44.833 71.5 59.5s62.334 22 101.001 22c34 0 64.333 -6.16699 91 -18.5s50.667 -32.5 72 -60.5c0 8 0.333008 16.167 1 24.5s2.5 16 5.5 23s7.83301 12.667 14.5 17
s15.667 6.5 27 6.5c10 0 19.333 -4 28 -12s13.667 -25.333 15 -52c2 -35.333 3.5 -67 4.5 -95s1.5 -57 1.5 -87c0 -36.667 -0.333008 -70.334 -1 -101.001s-2.33398 -63.334 -5.00098 -98.001c-1.33301 -15.333 -3.16602 -27.5 -5.49902 -36.5
s-5.16602 -15.667 -8.49902 -20s-7.33301 -7.16602 -12 -8.49902s-9.33398 -2 -14.001 -2zM416.997 250.002c0 34.667 -5.16797 63 -15.501 85s-23.333 39.167 -39 51.5s-32.5 20.833 -50.5 25.5s-34.667 7 -50 7c-24 0 -44.5 -4.33301 -61.5 -13s-30.833 -20.5 -41.5 -35.5
s-18.5 -32.667 -23.5 -53s-7.5 -42.5 -7.5 -66.5c0 -58.667 12.833 -102 38.5 -130s60.5 -42 104.5 -42c26 0 48.167 4.5 66.5 13.5s33.333 21.167 45 36.5s20.334 33.5 26.001 54.5s8.5 43.167 8.5 66.5zM193.996 585.002
c-7.33301 1.33301 -14.499 3.83398 -21.499 7.50098s-10.5 10.5 -10.5 20.5c0.666992 8 5.5 17.333 14.5 28s20.167 21.5 33.5 32.5s28.333 21.667 45 32s33.167 19.5 49.5 27.5s31.5 14.5 45.5 19.5s25.333 7.5 34 7.5c11.333 0 21.166 -3.33301 29.499 -10
s12.5 -16.334 12.5 -29.001c0 -8 -4.33301 -16.833 -13 -26.5s-20 -19.5 -34 -29.5s-29.667 -19.833 -47 -29.5s-34.5 -18.167 -51.5 -25.5s-33.167 -13.333 -48.5 -18s-28 -7 -38 -7z" />
    <glyph glyph-name="acircumflex" unicode="&#xe2;" horiz-adv-x="573" 
d="M471 -4c-10.667 0 -19.1699 1.83496 -25.5029 5.50195s-11.166 8.5 -14.499 14.5s-5.66602 13.167 -6.99902 21.5s-2.33301 17.166 -3 26.499c-16.667 -20.667 -38.167 -38 -64.5 -52s-59.833 -21 -100.5 -21c-26 0 -52.5 3.83301 -79.5 11.5s-51.5 21 -73.5 40
s-40 44.5 -54 76.5s-21 72.333 -21 121c0 38 4.66699 73.667 14 107s23.5 62.5 42.5 87.5s42.833 44.833 71.5 59.5s62.334 22 101.001 22c34 0 64.333 -6.16699 91 -18.5s50.667 -32.5 72 -60.5c0 8 0.333008 16.167 1 24.5s2.5 16 5.5 23s7.83301 12.667 14.5 17
s15.667 6.5 27 6.5c10 0 19.333 -4 28 -12s13.667 -25.333 15 -52c2 -35.333 3.5 -67 4.5 -95s1.5 -57 1.5 -87c0 -36.667 -0.333008 -70.334 -1 -101.001s-2.33398 -63.334 -5.00098 -98.001c-1.33301 -15.333 -3.16602 -27.5 -5.49902 -36.5
s-5.16602 -15.667 -8.49902 -20s-7.33301 -7.16602 -12 -8.49902s-9.33398 -2 -14.001 -2zM416.997 250.002c0 34.667 -5.16797 63 -15.501 85s-23.333 39.167 -39 51.5s-32.5 20.833 -50.5 25.5s-34.667 7 -50 7c-24 0 -44.5 -4.33301 -61.5 -13s-30.833 -20.5 -41.5 -35.5
s-18.5 -32.667 -23.5 -53s-7.5 -42.5 -7.5 -66.5c0 -58.667 12.833 -102 38.5 -130s60.5 -42 104.5 -42c26 0 48.167 4.5 66.5 13.5s33.333 21.167 45 36.5s20.334 33.5 26.001 54.5s8.5 43.167 8.5 66.5zM280.996 760.002c6.66699 0 15.832 -2.83203 27.499 -8.49902
s23.834 -12.667 36.501 -21s25.167 -17.666 37.5 -27.999s22.833 -19.833 31.5 -28.5c7.33301 -8 13.166 -15.833 17.499 -23.5s6.5 -15.834 6.5 -24.501c0 -11.333 -3.5 -21.333 -10.5 -30s-17.167 -13 -30.5 -13c-11.333 0 -24.166 5 -38.499 15
s-33.166 25.667 -56.499 47l-21 19l-21 -19c-23.333 -21.333 -42.5 -36.833 -57.5 -46.5s-28.167 -14.5 -39.5 -14.5c-12 0 -21.833 3.83301 -29.5 11.5s-11.5 17.167 -11.5 28.5c0 6 1.83301 13.167 5.5 21.5s10.5 17.833 20.5 28.5
c8.66699 8.66699 19.167 18.167 31.5 28.5s24.833 19.666 37.5 27.999s24.667 15.333 36 21s20.666 8.5 27.999 8.5z" />
    <glyph glyph-name="atilde" unicode="&#xe3;" horiz-adv-x="573" 
d="M471 -4c-10.667 0 -19.1699 1.83496 -25.5029 5.50195s-11.166 8.5 -14.499 14.5s-5.66602 13.167 -6.99902 21.5s-2.33301 17.166 -3 26.499c-16.667 -20.667 -38.167 -38 -64.5 -52s-59.833 -21 -100.5 -21c-26 0 -52.5 3.83301 -79.5 11.5s-51.5 21 -73.5 40
s-40 44.5 -54 76.5s-21 72.333 -21 121c0 38 4.66699 73.667 14 107s23.5 62.5 42.5 87.5s42.833 44.833 71.5 59.5s62.334 22 101.001 22c34 0 64.333 -6.16699 91 -18.5s50.667 -32.5 72 -60.5c0 8 0.333008 16.167 1 24.5s2.5 16 5.5 23s7.83301 12.667 14.5 17
s15.667 6.5 27 6.5c10 0 19.333 -4 28 -12s13.667 -25.333 15 -52c2 -35.333 3.5 -67 4.5 -95s1.5 -57 1.5 -87c0 -36.667 -0.333008 -70.334 -1 -101.001s-2.33398 -63.334 -5.00098 -98.001c-1.33301 -15.333 -3.16602 -27.5 -5.49902 -36.5
s-5.16602 -15.667 -8.49902 -20s-7.33301 -7.16602 -12 -8.49902s-9.33398 -2 -14.001 -2zM416.997 250.002c0 34.667 -5.16797 63 -15.501 85s-23.333 39.167 -39 51.5s-32.5 20.833 -50.5 25.5s-34.667 7 -50 7c-24 0 -44.5 -4.33301 -61.5 -13s-30.833 -20.5 -41.5 -35.5
s-18.5 -32.667 -23.5 -53s-7.5 -42.5 -7.5 -66.5c0 -58.667 12.833 -102 38.5 -130s60.5 -42 104.5 -42c26 0 48.167 4.5 66.5 13.5s33.333 21.167 45 36.5s20.334 33.5 26.001 54.5s8.5 43.167 8.5 66.5zM212.996 661.002c-10.667 0 -19.9961 -2.33203 -27.9961 -6.99902
s-15.5 -10 -22.5 -16s-14 -11.333 -21 -16s-14.5 -7 -22.5 -7c-8.66699 0 -15.834 3.5 -21.501 10.5s-8.5 16.167 -8.5 27.5s2.33301 23.333 7 36s11.834 24.167 21.501 34.5s21.5 19 35.5 26s30.333 10.5 49 10.5c19.333 0 35.666 -2.5 48.999 -7.5
s25.166 -10.667 35.499 -17s20.5 -12 30.5 -17s21.667 -7.5 35 -7.5c20 0 34.833 2.33301 44.5 7s17 10 22 16s9.16699 11.333 12.5 16s8.66602 7 15.999 7c9.33301 0 18 -2.66699 26 -8s12 -13 12 -23c0 -15.333 -2.83301 -29.833 -8.5 -43.5
s-14.167 -25.834 -25.5 -36.501s-25.5 -19.167 -42.5 -25.5s-36.5 -9.5 -58.5 -9.5c-14 0 -26.667 2.66699 -38 8s-22.333 11 -33 17s-21.334 11.667 -32.001 17s-22 8 -34 8z" />
    <glyph glyph-name="adieresis" unicode="&#xe4;" horiz-adv-x="573" 
d="M471 -4c-10.667 0 -19.1699 1.83496 -25.5029 5.50195s-11.166 8.5 -14.499 14.5s-5.66602 13.167 -6.99902 21.5s-2.33301 17.166 -3 26.499c-16.667 -20.667 -38.167 -38 -64.5 -52s-59.833 -21 -100.5 -21c-26 0 -52.5 3.83301 -79.5 11.5s-51.5 21 -73.5 40
s-40 44.5 -54 76.5s-21 72.333 -21 121c0 38 4.66699 73.667 14 107s23.5 62.5 42.5 87.5s42.833 44.833 71.5 59.5s62.334 22 101.001 22c34 0 64.333 -6.16699 91 -18.5s50.667 -32.5 72 -60.5c0 8 0.333008 16.167 1 24.5s2.5 16 5.5 23s7.83301 12.667 14.5 17
s15.667 6.5 27 6.5c10 0 19.333 -4 28 -12s13.667 -25.333 15 -52c2 -35.333 3.5 -67 4.5 -95s1.5 -57 1.5 -87c0 -36.667 -0.333008 -70.334 -1 -101.001s-2.33398 -63.334 -5.00098 -98.001c-1.33301 -15.333 -3.16602 -27.5 -5.49902 -36.5
s-5.16602 -15.667 -8.49902 -20s-7.33301 -7.16602 -12 -8.49902s-9.33398 -2 -14.001 -2zM416.997 250.002c0 34.667 -5.16797 63 -15.501 85s-23.333 39.167 -39 51.5s-32.5 20.833 -50.5 25.5s-34.667 7 -50 7c-24 0 -44.5 -4.33301 -61.5 -13s-30.833 -20.5 -41.5 -35.5
s-18.5 -32.667 -23.5 -53s-7.5 -42.5 -7.5 -66.5c0 -58.667 12.833 -102 38.5 -130s60.5 -42 104.5 -42c26 0 48.167 4.5 66.5 13.5s33.333 21.167 45 36.5s20.334 33.5 26.001 54.5s8.5 43.167 8.5 66.5zM197.996 751.002c15.333 0 29.5 -6 42.5 -18s19.5 -26.333 19.5 -43
c0 -16 -6.66699 -29.833 -20 -41.5s-28.333 -17.5 -45 -17.5c-14 0 -27.167 5.83301 -39.5 17.5s-18.5 26.167 -18.5 43.5c0 16 6.16699 29.833 18.5 41.5s26.5 17.5 42.5 17.5zM377.996 751.002c15.333 0 29.5 -6 42.5 -18s19.5 -26.333 19.5 -43
c0 -16 -6.66699 -29.833 -20 -41.5s-28.333 -17.5 -45 -17.5c-14 0 -27.167 5.83301 -39.5 17.5s-18.5 26.167 -18.5 43.5c0 16 6.16699 29.833 18.5 41.5s26.5 17.5 42.5 17.5z" />
    <glyph glyph-name="aring" unicode="&#xe5;" horiz-adv-x="573" 
d="M471 -4c-10.667 0 -19.1699 1.83496 -25.5029 5.50195s-11.166 8.5 -14.499 14.5s-5.66602 13.167 -6.99902 21.5s-2.33301 17.166 -3 26.499c-16.667 -20.667 -38.167 -38 -64.5 -52s-59.833 -21 -100.5 -21c-26 0 -52.5 3.83301 -79.5 11.5s-51.5 21 -73.5 40
s-40 44.5 -54 76.5s-21 72.333 -21 121c0 38 4.66699 73.667 14 107s23.5 62.5 42.5 87.5s42.833 44.833 71.5 59.5s62.334 22 101.001 22c34 0 64.333 -6.16699 91 -18.5s50.667 -32.5 72 -60.5c0 8 0.333008 16.167 1 24.5s2.5 16 5.5 23s7.83301 12.667 14.5 17
s15.667 6.5 27 6.5c10 0 19.333 -4 28 -12s13.667 -25.333 15 -52c2 -35.333 3.5 -67 4.5 -95s1.5 -57 1.5 -87c0 -36.667 -0.333008 -70.334 -1 -101.001s-2.33398 -63.334 -5.00098 -98.001c-1.33301 -15.333 -3.16602 -27.5 -5.49902 -36.5
s-5.16602 -15.667 -8.49902 -20s-7.33301 -7.16602 -12 -8.49902s-9.33398 -2 -14.001 -2zM416.997 250.002c0 34.667 -5.16797 63 -15.501 85s-23.333 39.167 -39 51.5s-32.5 20.833 -50.5 25.5s-34.667 7 -50 7c-24 0 -44.5 -4.33301 -61.5 -13s-30.833 -20.5 -41.5 -35.5
s-18.5 -32.667 -23.5 -53s-7.5 -42.5 -7.5 -66.5c0 -58.667 12.833 -102 38.5 -130s60.5 -42 104.5 -42c26 0 48.167 4.5 66.5 13.5s33.333 21.167 45 36.5s20.334 33.5 26.001 54.5s8.5 43.167 8.5 66.5zM385.996 660.002c0 -16 -3.16602 -31 -9.49902 -45
s-15 -26.167 -26 -36.5s-24 -18.5 -39 -24.5s-30.833 -9 -47.5 -9s-32.334 3 -47.001 9s-27.667 14.167 -39 24.5s-20.333 22.5 -27 36.5s-10 29 -10 45c0 16.667 3.5 32 10.5 46s16.167 26.167 27.5 36.5s24.5 18.333 39.5 24s30.167 8.5 45.5 8.5c16 0 31.5 -3 46.5 -9
s28 -14.167 39 -24.5s19.833 -22.5 26.5 -36.5s10 -29 10 -45zM197.997 659.002c0 -20 6.5 -35.001 19.5 -45.001s28.167 -15 45.5 -15c20 0 35.667 5.83301 47 17.5s17 26.5 17 44.5c0 17.333 -5.5 32.333 -16.5 45s-25.167 19 -42.5 19c-22.667 0 -40 -6.16699 -52 -18.5
s-18 -28.166 -18 -47.499z" />
    </font>
</defs>
</svg>
